<?xml version="1.0" encoding="UTF-8" standalone="no"?>
<svg
   xmlns:dc="http://purl.org/dc/elements/1.1/"
   xmlns:cc="http://creativecommons.org/ns#"
   xmlns:rdf="http://www.w3.org/1999/02/22-rdf-syntax-ns#"
   xmlns:svg="http://www.w3.org/2000/svg"
   xmlns="http://www.w3.org/2000/svg"
   xmlns:sodipodi="http://sodipodi.sourceforge.net/DTD/sodipodi-0.dtd"
   xmlns:inkscape="http://www.inkscape.org/namespaces/inkscape"
   width="258.27036mm"
   height="98.296516mm"
   viewBox="0 0 258.27036 98.296516"
   version="1.1"
   id="svg964"
   inkscape:version="1.0 (6e3e5246a0, 2020-05-07)"
   sodipodi:docname="logo_col.svg">
  <defs
     id="defs958" />
  <sodipodi:namedview
     id="base"
     pagecolor="#ffffff"
     bordercolor="#666666"
     borderopacity="1.0"
     inkscape:pageopacity="0.0"
     inkscape:pageshadow="2"
     inkscape:zoom="0.7"
     inkscape:cx="234.19493"
     inkscape:cy="84.55959"
     inkscape:document-units="mm"
     inkscape:current-layer="layer1"
     inkscape:document-rotation="0"
     showgrid="false"
     inkscape:snap-midpoints="true"
     inkscape:snap-intersection-paths="true"
     inkscape:object-paths="true"
     inkscape:snap-smooth-nodes="true"
     inkscape:snap-object-midpoints="true"
     showguides="false"
     inkscape:snap-page="false"
     inkscape:window-width="1920"
     inkscape:window-height="1016"
     inkscape:window-x="0"
     inkscape:window-y="27"
     inkscape:window-maximized="1"
     inkscape:snap-bbox="false"
     inkscape:snap-global="true" />
  <metadata
     id="metadata961">
    <rdf:RDF>
      <cc:Work
         rdf:about="">
        <dc:format>image/svg+xml</dc:format>
        <dc:type
           rdf:resource="http://purl.org/dc/dcmitype/StillImage" />
        <dc:title></dc:title>
      </cc:Work>
    </rdf:RDF>
  </metadata>
  <g
     inkscape:label="Layer 1"
     inkscape:groupmode="layer"
     id="layer1"
     transform="translate(-19.365087,-99.35078)">
    <path
       style="fill:none;stroke:#ecf0f1;stroke-width:14.6267;stroke-linecap:round;stroke-linejoin:round;stroke-miterlimit:4;stroke-dasharray:none;stroke-opacity:1"
       d="m 270.3221,130.21666 c -6.99987,-14.40698 -21.61132,-23.55254 -37.62879,-23.55253 -23.10474,8e-5 -41.83479,18.73016 -41.83491,41.83489 1.2e-4,23.10474 18.73017,41.83481 41.83491,41.8349 16.01633,-9e-5 30.62688,-9.14448 37.62722,-23.54995"
       id="path877" />
    <path
       id="path1818"
       style="fill:none;fill-opacity:1;stroke:#ecf0f1;stroke-width:14.6261;stroke-linecap:round;stroke-linejoin:round;stroke-miterlimit:4;stroke-dasharray:none;stroke-opacity:1"
       d="m 26.678137,190.33392 20.17856,-75.30678 c 1.04324,-3.89296 4.08399,-6.93371 7.97695,-7.97679 0.96315,-0.25815 1.95626,-0.38744 2.9534,-0.38454 5.09309,0.0146 9.54411,3.44173 10.86216,8.36133 l 17.93805,66.94573 c 1.04308,3.89296 4.08383,6.93371 7.97679,7.97679 0.96315,0.25815 1.956264,0.38745 2.953399,0.38454 5.093084,-0.0146 9.544104,-3.44173 10.862334,-8.36135 l 17.93838,-66.94554 c 1.04324,-3.89278 4.08399,-6.93353 7.97695,-7.97661 0.96315,-0.25815 1.95627,-0.38745 2.9534,-0.38452 5.09309,0.0146 9.54411,3.44171 10.86216,8.36131 l 20.17839,75.3064"
       sodipodi:nodetypes="ccscccscccsccc" />
    <g
       id="g906"
       style="opacity:1;fill:#a8e944;fill-opacity:1">
      <path
         style="color:#000000;font-style:normal;font-variant:normal;font-weight:normal;font-stretch:normal;font-size:medium;line-height:normal;font-family:sans-serif;font-variant-ligatures:normal;font-variant-position:normal;font-variant-caps:normal;font-variant-numeric:normal;font-variant-alternates:normal;font-variant-east-asian:normal;font-feature-settings:normal;font-variation-settings:normal;text-indent:0;text-align:start;text-decoration:none;text-decoration-line:none;text-decoration-style:solid;text-decoration-color:#000000;letter-spacing:normal;word-spacing:normal;text-transform:none;writing-mode:lr-tb;direction:ltr;text-orientation:mixed;dominant-baseline:auto;baseline-shift:baseline;text-anchor:start;white-space:normal;shape-padding:0;shape-margin:0;inline-size:0;clip-rule:nonzero;display:inline;overflow:visible;visibility:visible;isolation:auto;mix-blend-mode:normal;color-interpolation:sRGB;color-interpolation-filters:linearRGB;solid-color:#000000;solid-opacity:1;vector-effect:none;fill:#a8e944;fill-opacity:1;fill-rule:nonzero;stroke:#000000;stroke-width:0;stroke-linecap:round;stroke-linejoin:miter;stroke-miterlimit:4;stroke-dasharray:none;stroke-dashoffset:0;stroke-opacity:0;color-rendering:auto;image-rendering:auto;shape-rendering:auto;text-rendering:auto;enable-background:accumulate;stop-color:#000000;stop-opacity:1"
         d="m 232.69336,133.87305 c -7.99116,-1e-5 -14.62696,6.63579 -14.62695,14.62695 -1e-5,7.99116 6.63579,14.625 14.62695,14.625 7.99116,0 14.62695,-6.63384 14.62695,-14.625 0,-7.99116 -6.63579,-14.62696 -14.62695,-14.62695 z"
         id="path910" />
    </g>
  </g>
</svg>
