<?xml version="1.0" encoding="UTF-8" standalone="no"?>
<!-- Created with Inkscape (http://www.inkscape.org/) -->

<svg
   xmlns:dc="http://purl.org/dc/elements/1.1/"
   xmlns:cc="http://creativecommons.org/ns#"
   xmlns:rdf="http://www.w3.org/1999/02/22-rdf-syntax-ns#"
   xmlns:svg="http://www.w3.org/2000/svg"
   xmlns="http://www.w3.org/2000/svg"
   xmlns:xlink="http://www.w3.org/1999/xlink"
   xmlns:sodipodi="http://sodipodi.sourceforge.net/DTD/sodipodi-0.dtd"
   xmlns:inkscape="http://www.inkscape.org/namespaces/inkscape"
   width="191.09627mm"
   height="101.00878mm"
   viewBox="0 0 191.09627 101.00878"
   version="1.1"
   id="svg1224"
   inkscape:export-filename="/home/max/Documents/Web Projects/Portfolio/assets/dots.png"
   inkscape:export-xdpi="106.33384"
   inkscape:export-ydpi="106.33384"
   inkscape:version="0.92.4 (f8dce91, 2019-08-02)"
   sodipodi:docname="dots.svg">
  <defs
     id="defs1218">
    <linearGradient
       inkscape:collect="always"
       id="linearGradient8702">
      <stop
         style="stop-color:#efe6fd;stop-opacity:1"
         offset="0"
         id="stop8698" />
      <stop
         style="stop-color:#efe6fd;stop-opacity:0.06804734"
         offset="1"
         id="stop8700" />
    </linearGradient>
    <linearGradient
       inkscape:collect="always"
       xlink:href="#linearGradient8702"
       id="linearGradient8704"
       x1="412.20508"
       y1="942.37683"
       x2="412.20508"
       y2="218.81848"
       gradientUnits="userSpaceOnUse" />
    <linearGradient
       inkscape:collect="always"
       xlink:href="#linearGradient8702"
       id="linearGradient8711"
       gradientUnits="userSpaceOnUse"
       x1="412.20508"
       y1="639.51965"
       x2="412.20508"
       y2="213.81848" />
  </defs>
  <sodipodi:namedview
     id="base"
     pagecolor="#ffffff"
     bordercolor="#666666"
     borderopacity="1.0"
     inkscape:pageopacity="0.0"
     inkscape:pageshadow="2"
     inkscape:zoom="2.8"
     inkscape:cx="410.80796"
     inkscape:cy="307.73131"
     inkscape:document-units="mm"
     inkscape:current-layer="layer1"
     showgrid="false"
     inkscape:window-width="1920"
     inkscape:window-height="1016"
     inkscape:window-x="0"
     inkscape:window-y="27"
     inkscape:window-maximized="1" />
  <metadata
     id="metadata1221">
    <rdf:RDF>
      <cc:Work
         rdf:about="">
        <dc:format>image/svg+xml</dc:format>
        <dc:type
           rdf:resource="http://purl.org/dc/dcmitype/StillImage" />
        <dc:title></dc:title>
      </cc:Work>
    </rdf:RDF>
  </metadata>
  <g
     inkscape:label="Layer 1"
     inkscape:groupmode="layer"
     id="layer1"
     transform="translate(-9.4519158,-52.951424)">
    <path
       style="opacity:1;fill:url(#linearGradient8711);fill-opacity:1;stroke:none;stroke-width:1.94984746;stroke-linecap:round;stroke-linejoin:round;stroke-miterlimit:4;stroke-dasharray:none;stroke-dashoffset:0;stroke-opacity:1;paint-order:normal"
       d="m 40.759766,200.13281 a 5.1589715,5.1589715 0 0 0 -2.457032,0.68946 5.1589715,5.1589715 0 0 0 -1.886718,7.04687 5.1589715,5.1589715 0 0 0 7.046875,1.88867 5.1589715,5.1589715 0 0 0 1.886718,-7.04687 5.1589715,5.1589715 0 0 0 -4.589843,-2.57813 z m 30.955078,0 a 5.1589715,5.1589715 0 0 0 -2.458985,0.68946 5.1589715,5.1589715 0 0 0 -1.886718,7.04687 5.1589715,5.1589715 0 0 0 7.046875,1.88867 5.1589715,5.1589715 0 0 0 1.888672,-7.04687 5.1589715,5.1589715 0 0 0 -4.589844,-2.57813 z m 30.953126,0 a 5.1589715,5.1589715 0 0 0 -2.45703,0.68946 5.1589715,5.1589715 0 0 0 -1.888674,7.04687 5.1589715,5.1589715 0 0 0 7.046874,1.88867 5.1589715,5.1589715 0 0 0 1.88867,-7.04687 5.1589715,5.1589715 0 0 0 -4.58984,-2.57813 z m 30.95312,0 a 5.1589715,5.1589715 0 0 0 -2.45703,0.68946 5.1589715,5.1589715 0 0 0 -1.88867,7.04687 5.1589715,5.1589715 0 0 0 7.04883,1.88867 5.1589715,5.1589715 0 0 0 1.88672,-7.04687 5.1589715,5.1589715 0 0 0 -4.58985,-2.57813 z m 30.95313,0 a 5.1589715,5.1589715 0 0 0 -2.45703,0.68946 5.1589715,5.1589715 0 0 0 -1.88672,7.04687 5.1589715,5.1589715 0 0 0 7.04687,1.88867 5.1589715,5.1589715 0 0 0 1.88672,-7.04687 5.1589715,5.1589715 0 0 0 -4.58984,-2.57813 z m 30.95508,0 a 5.1589715,5.1589715 0 0 0 -2.45899,0.68946 5.1589715,5.1589715 0 0 0 -1.88672,7.04687 5.1589715,5.1589715 0 0 0 7.04688,1.88867 5.1589715,5.1589715 0 0 0 1.88867,-7.04687 5.1589715,5.1589715 0 0 0 -4.58984,-2.57813 z m 30.95312,0 a 5.1589715,5.1589715 0 0 0 -2.45703,0.68946 5.1589715,5.1589715 0 0 0 -1.88867,7.04687 5.1589715,5.1589715 0 0 0 7.04883,1.88867 5.1589715,5.1589715 0 0 0 1.88672,-7.04687 5.1589715,5.1589715 0 0 0 -4.58985,-2.57813 z m 30.95313,0 a 5.1589715,5.1589715 0 0 0 -2.45703,0.68946 5.1589715,5.1589715 0 0 0 -1.88672,7.04687 5.1589715,5.1589715 0 0 0 7.04687,1.88867 5.1589715,5.1589715 0 0 0 1.88672,-7.04687 5.1589715,5.1589715 0 0 0 -4.58984,-2.57813 z m 30.95507,0 a 5.1589715,5.1589715 0 0 0 -2.45898,0.68946 5.1589715,5.1589715 0 0 0 -1.88672,7.04687 5.1589715,5.1589715 0 0 0 7.04688,1.88867 5.1589715,5.1589715 0 0 0 1.88867,-7.04687 5.1589715,5.1589715 0 0 0 -4.58985,-2.57813 z m 30.95313,0 a 5.1589715,5.1589715 0 0 0 -2.45703,0.68946 5.1589715,5.1589715 0 0 0 -1.88867,7.04687 5.1589715,5.1589715 0 0 0 7.04883,1.88867 5.1589715,5.1589715 0 0 0 1.88671,-7.04687 5.1589715,5.1589715 0 0 0 -4.58984,-2.57813 z m 30.95313,0 a 5.1589715,5.1589715 0 0 0 -2.45704,0.68946 5.1589715,5.1589715 0 0 0 -1.88672,7.04687 5.1589715,5.1589715 0 0 0 7.04688,1.88867 5.1589715,5.1589715 0 0 0 1.88672,-7.04687 5.1589715,5.1589715 0 0 0 -4.58984,-2.57813 z m 30.95507,0 a 5.1589715,5.1589715 0 0 0 -2.45898,0.68946 5.1589715,5.1589715 0 0 0 -1.88672,7.04687 5.1589715,5.1589715 0 0 0 7.04687,1.88867 5.1589715,5.1589715 0 0 0 1.88868,-7.04687 5.1589715,5.1589715 0 0 0 -4.58985,-2.57813 z m 30.95313,0 a 5.1589715,5.1589715 0 0 0 -2.45703,0.68946 5.1589715,5.1589715 0 0 0 -1.88867,7.04687 5.1589715,5.1589715 0 0 0 7.04882,1.88867 5.1589715,5.1589715 0 0 0 1.88672,-7.04687 5.1589715,5.1589715 0 0 0 -4.58984,-2.57813 z m 30.95312,0 a 5.1589715,5.1589715 0 0 0 -2.45703,0.68946 5.1589715,5.1589715 0 0 0 -1.88672,7.04687 5.1589715,5.1589715 0 0 0 7.04688,1.88867 5.1589715,5.1589715 0 0 0 1.88672,-7.04687 5.1589715,5.1589715 0 0 0 -4.58985,-2.57813 z m 30.95313,0 a 5.1589715,5.1589715 0 0 0 -2.45703,0.68946 5.1589715,5.1589715 0 0 0 -1.88672,7.04687 5.1589715,5.1589715 0 0 0 7.04687,1.88867 5.1589715,5.1589715 0 0 0 1.88672,-7.04687 5.1589715,5.1589715 0 0 0 -4.58984,-2.57813 z m 30.95508,0 a 5.1589715,5.1589715 0 0 0 -2.45899,0.68946 5.1589715,5.1589715 0 0 0 -1.88672,7.04687 5.1589715,5.1589715 0 0 0 7.04688,1.88867 5.1589715,5.1589715 0 0 0 1.88867,-7.04687 5.1589715,5.1589715 0 0 0 -4.58984,-2.57813 z m 30.95312,0 a 5.1589715,5.1589715 0 0 0 -2.45703,0.68946 5.1589715,5.1589715 0 0 0 -1.88867,7.04687 5.1589715,5.1589715 0 0 0 7.04883,1.88867 5.1589715,5.1589715 0 0 0 1.88672,-7.04687 5.1589715,5.1589715 0 0 0 -4.58985,-2.57813 z m 30.95313,0 a 5.1589715,5.1589715 0 0 0 -2.45704,0.68946 5.1589715,5.1589715 0 0 0 -1.88671,7.04687 5.1589715,5.1589715 0 0 0 7.04687,1.88867 5.1589715,5.1589715 0 0 0 1.88672,-7.04687 5.1589715,5.1589715 0 0 0 -4.58984,-2.57813 z m 30.95507,0 a 5.1589715,5.1589715 0 0 0 -2.45898,0.68946 5.1589715,5.1589715 0 0 0 -1.88672,7.04687 5.1589715,5.1589715 0 0 0 7.04688,1.88867 5.1589715,5.1589715 0 0 0 1.88867,-7.04687 5.1589715,5.1589715 0 0 0 -4.58985,-2.57813 z m 30.95313,0 a 5.1589715,5.1589715 0 0 0 -2.45703,0.68946 5.1589715,5.1589715 0 0 0 -1.88867,7.04687 5.1589715,5.1589715 0 0 0 7.04882,1.88867 5.1589715,5.1589715 0 0 0 1.88672,-7.04687 5.1589715,5.1589715 0 0 0 -4.58984,-2.57813 z m 30.95312,0 a 5.1589715,5.1589715 0 0 0 -2.45703,0.68946 5.1589715,5.1589715 0 0 0 -1.88672,7.04687 5.1589715,5.1589715 0 0 0 7.04688,1.88867 5.1589715,5.1589715 0 0 0 1.88672,-7.04687 5.1589715,5.1589715 0 0 0 -4.58985,-2.57813 z m 30.95508,0 a 5.1589715,5.1589715 0 0 0 -2.45898,0.68946 5.1589715,5.1589715 0 0 0 -1.88672,7.04687 5.1589715,5.1589715 0 0 0 7.04687,1.88867 5.1589715,5.1589715 0 0 0 1.88868,-7.04687 5.1589715,5.1589715 0 0 0 -4.58985,-2.57813 z m 30.95313,0 a 5.1589715,5.1589715 0 0 0 -2.45703,0.68946 5.1589715,5.1589715 0 0 0 -1.88868,7.04687 5.1589715,5.1589715 0 0 0 7.04883,1.88867 5.1589715,5.1589715 0 0 0 1.88672,-7.04687 5.1589715,5.1589715 0 0 0 -4.58984,-2.57813 z m 30.95312,0 a 5.1589715,5.1589715 0 0 0 -2.45703,0.68946 5.1589715,5.1589715 0 0 0 -1.88672,7.04687 5.1589715,5.1589715 0 0 0 7.04688,1.88867 5.1589715,5.1589715 0 0 0 1.88672,-7.04687 5.1589715,5.1589715 0 0 0 -4.58985,-2.57813 z M 40.759766,231.08594 a 5.1589715,5.1589715 0 0 0 -2.457032,0.68945 5.1589715,5.1589715 0 0 0 -1.886718,7.04883 5.1589715,5.1589715 0 0 0 7.046875,1.88867 5.1589715,5.1589715 0 0 0 1.886718,-7.04883 5.1589715,5.1589715 0 0 0 -4.589843,-2.57812 z m 30.955078,0 a 5.1589715,5.1589715 0 0 0 -2.458985,0.68945 5.1589715,5.1589715 0 0 0 -1.886718,7.04883 5.1589715,5.1589715 0 0 0 7.046875,1.88867 5.1589715,5.1589715 0 0 0 1.888672,-7.04883 5.1589715,5.1589715 0 0 0 -4.589844,-2.57812 z m 30.953126,0 a 5.1589715,5.1589715 0 0 0 -2.45703,0.68945 5.1589715,5.1589715 0 0 0 -1.888674,7.04883 5.1589715,5.1589715 0 0 0 7.046874,1.88867 5.1589715,5.1589715 0 0 0 1.88867,-7.04883 5.1589715,5.1589715 0 0 0 -4.58984,-2.57812 z m 30.95312,0 a 5.1589715,5.1589715 0 0 0 -2.45703,0.68945 5.1589715,5.1589715 0 0 0 -1.88867,7.04883 5.1589715,5.1589715 0 0 0 7.04883,1.88867 5.1589715,5.1589715 0 0 0 1.88672,-7.04883 5.1589715,5.1589715 0 0 0 -4.58985,-2.57812 z m 30.95313,0 a 5.1589715,5.1589715 0 0 0 -2.45703,0.68945 5.1589715,5.1589715 0 0 0 -1.88672,7.04883 5.1589715,5.1589715 0 0 0 7.04687,1.88867 5.1589715,5.1589715 0 0 0 1.88672,-7.04883 5.1589715,5.1589715 0 0 0 -4.58984,-2.57812 z m 30.95508,0 a 5.1589715,5.1589715 0 0 0 -2.45899,0.68945 5.1589715,5.1589715 0 0 0 -1.88672,7.04883 5.1589715,5.1589715 0 0 0 7.04688,1.88867 5.1589715,5.1589715 0 0 0 1.88867,-7.04883 5.1589715,5.1589715 0 0 0 -4.58984,-2.57812 z m 30.95312,0 a 5.1589715,5.1589715 0 0 0 -2.45703,0.68945 5.1589715,5.1589715 0 0 0 -1.88867,7.04883 5.1589715,5.1589715 0 0 0 7.04883,1.88867 5.1589715,5.1589715 0 0 0 1.88672,-7.04883 5.1589715,5.1589715 0 0 0 -4.58985,-2.57812 z m 30.95313,0 a 5.1589715,5.1589715 0 0 0 -2.45703,0.68945 5.1589715,5.1589715 0 0 0 -1.88672,7.04883 5.1589715,5.1589715 0 0 0 7.04687,1.88867 5.1589715,5.1589715 0 0 0 1.88672,-7.04883 5.1589715,5.1589715 0 0 0 -4.58984,-2.57812 z m 30.95507,0 a 5.1589715,5.1589715 0 0 0 -2.45898,0.68945 5.1589715,5.1589715 0 0 0 -1.88672,7.04883 5.1589715,5.1589715 0 0 0 7.04688,1.88867 5.1589715,5.1589715 0 0 0 1.88867,-7.04883 5.1589715,5.1589715 0 0 0 -4.58985,-2.57812 z m 30.95313,0 a 5.1589715,5.1589715 0 0 0 -2.45703,0.68945 5.1589715,5.1589715 0 0 0 -1.88867,7.04883 5.1589715,5.1589715 0 0 0 7.04883,1.88867 5.1589715,5.1589715 0 0 0 1.88671,-7.04883 5.1589715,5.1589715 0 0 0 -4.58984,-2.57812 z m 30.95313,0 a 5.1589715,5.1589715 0 0 0 -2.45704,0.68945 5.1589715,5.1589715 0 0 0 -1.88672,7.04883 5.1589715,5.1589715 0 0 0 7.04688,1.88867 5.1589715,5.1589715 0 0 0 1.88672,-7.04883 5.1589715,5.1589715 0 0 0 -4.58984,-2.57812 z m 30.95507,0 a 5.1589715,5.1589715 0 0 0 -2.45898,0.68945 5.1589715,5.1589715 0 0 0 -1.88672,7.04883 5.1589715,5.1589715 0 0 0 7.04687,1.88867 5.1589715,5.1589715 0 0 0 1.88868,-7.04883 5.1589715,5.1589715 0 0 0 -4.58985,-2.57812 z m 30.95313,0 a 5.1589715,5.1589715 0 0 0 -2.45703,0.68945 5.1589715,5.1589715 0 0 0 -1.88867,7.04883 5.1589715,5.1589715 0 0 0 7.04882,1.88867 5.1589715,5.1589715 0 0 0 1.88672,-7.04883 5.1589715,5.1589715 0 0 0 -4.58984,-2.57812 z m 30.95312,0 a 5.1589715,5.1589715 0 0 0 -2.45703,0.68945 5.1589715,5.1589715 0 0 0 -1.88672,7.04883 5.1589715,5.1589715 0 0 0 7.04688,1.88867 5.1589715,5.1589715 0 0 0 1.88672,-7.04883 5.1589715,5.1589715 0 0 0 -4.58985,-2.57812 z m 30.95313,0 a 5.1589715,5.1589715 0 0 0 -2.45703,0.68945 5.1589715,5.1589715 0 0 0 -1.88672,7.04883 5.1589715,5.1589715 0 0 0 7.04687,1.88867 5.1589715,5.1589715 0 0 0 1.88672,-7.04883 5.1589715,5.1589715 0 0 0 -4.58984,-2.57812 z m 30.95508,0 a 5.1589715,5.1589715 0 0 0 -2.45899,0.68945 5.1589715,5.1589715 0 0 0 -1.88672,7.04883 5.1589715,5.1589715 0 0 0 7.04688,1.88867 5.1589715,5.1589715 0 0 0 1.88867,-7.04883 5.1589715,5.1589715 0 0 0 -4.58984,-2.57812 z m 30.95312,0 a 5.1589715,5.1589715 0 0 0 -2.45703,0.68945 5.1589715,5.1589715 0 0 0 -1.88867,7.04883 5.1589715,5.1589715 0 0 0 7.04883,1.88867 5.1589715,5.1589715 0 0 0 1.88672,-7.04883 5.1589715,5.1589715 0 0 0 -4.58985,-2.57812 z m 30.95313,0 a 5.1589715,5.1589715 0 0 0 -2.45704,0.68945 5.1589715,5.1589715 0 0 0 -1.88671,7.04883 5.1589715,5.1589715 0 0 0 7.04687,1.88867 5.1589715,5.1589715 0 0 0 1.88672,-7.04883 5.1589715,5.1589715 0 0 0 -4.58984,-2.57812 z m 30.95507,0 a 5.1589715,5.1589715 0 0 0 -2.45898,0.68945 5.1589715,5.1589715 0 0 0 -1.88672,7.04883 5.1589715,5.1589715 0 0 0 7.04688,1.88867 5.1589715,5.1589715 0 0 0 1.88867,-7.04883 5.1589715,5.1589715 0 0 0 -4.58985,-2.57812 z m 30.95313,0 a 5.1589715,5.1589715 0 0 0 -2.45703,0.68945 5.1589715,5.1589715 0 0 0 -1.88867,7.04883 5.1589715,5.1589715 0 0 0 7.04882,1.88867 5.1589715,5.1589715 0 0 0 1.88672,-7.04883 5.1589715,5.1589715 0 0 0 -4.58984,-2.57812 z m 30.95312,0 a 5.1589715,5.1589715 0 0 0 -2.45703,0.68945 5.1589715,5.1589715 0 0 0 -1.88672,7.04883 5.1589715,5.1589715 0 0 0 7.04688,1.88867 5.1589715,5.1589715 0 0 0 1.88672,-7.04883 5.1589715,5.1589715 0 0 0 -4.58985,-2.57812 z m 30.95508,0 a 5.1589715,5.1589715 0 0 0 -2.45898,0.68945 5.1589715,5.1589715 0 0 0 -1.88672,7.04883 5.1589715,5.1589715 0 0 0 7.04687,1.88867 5.1589715,5.1589715 0 0 0 1.88868,-7.04883 5.1589715,5.1589715 0 0 0 -4.58985,-2.57812 z m 30.95313,0 a 5.1589715,5.1589715 0 0 0 -2.45703,0.68945 5.1589715,5.1589715 0 0 0 -1.88868,7.04883 5.1589715,5.1589715 0 0 0 7.04883,1.88867 5.1589715,5.1589715 0 0 0 1.88672,-7.04883 5.1589715,5.1589715 0 0 0 -4.58984,-2.57812 z m 30.95312,0 a 5.1589715,5.1589715 0 0 0 -2.45703,0.68945 5.1589715,5.1589715 0 0 0 -1.88672,7.04883 5.1589715,5.1589715 0 0 0 7.04688,1.88867 5.1589715,5.1589715 0 0 0 1.88672,-7.04883 5.1589715,5.1589715 0 0 0 -4.58985,-2.57812 z M 40.759766,262.04102 a 5.1589715,5.1589715 0 0 0 -2.457032,0.68945 5.1589715,5.1589715 0 0 0 -1.886718,7.04687 5.1589715,5.1589715 0 0 0 7.046875,1.88868 5.1589715,5.1589715 0 0 0 1.886718,-7.04688 5.1589715,5.1589715 0 0 0 -4.589843,-2.57812 z m 30.955078,0 a 5.1589715,5.1589715 0 0 0 -2.458985,0.68945 5.1589715,5.1589715 0 0 0 -1.886718,7.04687 5.1589715,5.1589715 0 0 0 7.046875,1.88868 5.1589715,5.1589715 0 0 0 1.888672,-7.04688 5.1589715,5.1589715 0 0 0 -4.589844,-2.57812 z m 30.953126,0 a 5.1589715,5.1589715 0 0 0 -2.45703,0.68945 5.1589715,5.1589715 0 0 0 -1.888674,7.04687 5.1589715,5.1589715 0 0 0 7.046874,1.88868 5.1589715,5.1589715 0 0 0 1.88867,-7.04688 5.1589715,5.1589715 0 0 0 -4.58984,-2.57812 z m 30.95312,0 a 5.1589715,5.1589715 0 0 0 -2.45703,0.68945 5.1589715,5.1589715 0 0 0 -1.88867,7.04687 5.1589715,5.1589715 0 0 0 7.04883,1.88868 5.1589715,5.1589715 0 0 0 1.88672,-7.04688 5.1589715,5.1589715 0 0 0 -4.58985,-2.57812 z m 30.95313,0 a 5.1589715,5.1589715 0 0 0 -2.45703,0.68945 5.1589715,5.1589715 0 0 0 -1.88672,7.04687 5.1589715,5.1589715 0 0 0 7.04687,1.88868 5.1589715,5.1589715 0 0 0 1.88672,-7.04688 5.1589715,5.1589715 0 0 0 -4.58984,-2.57812 z m 30.95508,0 a 5.1589715,5.1589715 0 0 0 -2.45899,0.68945 5.1589715,5.1589715 0 0 0 -1.88672,7.04687 5.1589715,5.1589715 0 0 0 7.04688,1.88868 5.1589715,5.1589715 0 0 0 1.88867,-7.04688 5.1589715,5.1589715 0 0 0 -4.58984,-2.57812 z m 30.95312,0 a 5.1589715,5.1589715 0 0 0 -2.45703,0.68945 5.1589715,5.1589715 0 0 0 -1.88867,7.04687 5.1589715,5.1589715 0 0 0 7.04883,1.88868 5.1589715,5.1589715 0 0 0 1.88672,-7.04688 5.1589715,5.1589715 0 0 0 -4.58985,-2.57812 z m 30.95313,0 a 5.1589715,5.1589715 0 0 0 -2.45703,0.68945 5.1589715,5.1589715 0 0 0 -1.88672,7.04687 5.1589715,5.1589715 0 0 0 7.04687,1.88868 5.1589715,5.1589715 0 0 0 1.88672,-7.04688 5.1589715,5.1589715 0 0 0 -4.58984,-2.57812 z m 30.95507,0 a 5.1589715,5.1589715 0 0 0 -2.45898,0.68945 5.1589715,5.1589715 0 0 0 -1.88672,7.04687 5.1589715,5.1589715 0 0 0 7.04688,1.88868 5.1589715,5.1589715 0 0 0 1.88867,-7.04688 5.1589715,5.1589715 0 0 0 -4.58985,-2.57812 z m 30.95313,0 a 5.1589715,5.1589715 0 0 0 -2.45703,0.68945 5.1589715,5.1589715 0 0 0 -1.88867,7.04687 5.1589715,5.1589715 0 0 0 7.04883,1.88868 5.1589715,5.1589715 0 0 0 1.88671,-7.04688 5.1589715,5.1589715 0 0 0 -4.58984,-2.57812 z m 30.95313,0 a 5.1589715,5.1589715 0 0 0 -2.45704,0.68945 5.1589715,5.1589715 0 0 0 -1.88672,7.04687 5.1589715,5.1589715 0 0 0 7.04688,1.88868 5.1589715,5.1589715 0 0 0 1.88672,-7.04688 5.1589715,5.1589715 0 0 0 -4.58984,-2.57812 z m 30.95507,0 a 5.1589715,5.1589715 0 0 0 -2.45898,0.68945 5.1589715,5.1589715 0 0 0 -1.88672,7.04687 5.1589715,5.1589715 0 0 0 7.04687,1.88868 5.1589715,5.1589715 0 0 0 1.88868,-7.04688 5.1589715,5.1589715 0 0 0 -4.58985,-2.57812 z m 30.95313,0 a 5.1589715,5.1589715 0 0 0 -2.45703,0.68945 5.1589715,5.1589715 0 0 0 -1.88867,7.04687 5.1589715,5.1589715 0 0 0 7.04882,1.88868 5.1589715,5.1589715 0 0 0 1.88672,-7.04688 5.1589715,5.1589715 0 0 0 -4.58984,-2.57812 z m 30.95312,0 a 5.1589715,5.1589715 0 0 0 -2.45703,0.68945 5.1589715,5.1589715 0 0 0 -1.88672,7.04687 5.1589715,5.1589715 0 0 0 7.04688,1.88868 5.1589715,5.1589715 0 0 0 1.88672,-7.04688 5.1589715,5.1589715 0 0 0 -4.58985,-2.57812 z m 30.95313,0 a 5.1589715,5.1589715 0 0 0 -2.45703,0.68945 5.1589715,5.1589715 0 0 0 -1.88672,7.04687 5.1589715,5.1589715 0 0 0 7.04687,1.88868 5.1589715,5.1589715 0 0 0 1.88672,-7.04688 5.1589715,5.1589715 0 0 0 -4.58984,-2.57812 z m 30.95508,0 a 5.1589715,5.1589715 0 0 0 -2.45899,0.68945 5.1589715,5.1589715 0 0 0 -1.88672,7.04687 5.1589715,5.1589715 0 0 0 7.04688,1.88868 5.1589715,5.1589715 0 0 0 1.88867,-7.04688 5.1589715,5.1589715 0 0 0 -4.58984,-2.57812 z m 30.95312,0 a 5.1589715,5.1589715 0 0 0 -2.45703,0.68945 5.1589715,5.1589715 0 0 0 -1.88867,7.04687 5.1589715,5.1589715 0 0 0 7.04883,1.88868 5.1589715,5.1589715 0 0 0 1.88672,-7.04688 5.1589715,5.1589715 0 0 0 -4.58985,-2.57812 z m 30.95313,0 a 5.1589715,5.1589715 0 0 0 -2.45704,0.68945 5.1589715,5.1589715 0 0 0 -1.88671,7.04687 5.1589715,5.1589715 0 0 0 7.04687,1.88868 5.1589715,5.1589715 0 0 0 1.88672,-7.04688 5.1589715,5.1589715 0 0 0 -4.58984,-2.57812 z m 30.95507,0 a 5.1589715,5.1589715 0 0 0 -2.45898,0.68945 5.1589715,5.1589715 0 0 0 -1.88672,7.04687 5.1589715,5.1589715 0 0 0 7.04688,1.88868 5.1589715,5.1589715 0 0 0 1.88867,-7.04688 5.1589715,5.1589715 0 0 0 -4.58985,-2.57812 z m 30.95313,0 a 5.1589715,5.1589715 0 0 0 -2.45703,0.68945 5.1589715,5.1589715 0 0 0 -1.88867,7.04687 5.1589715,5.1589715 0 0 0 7.04882,1.88868 5.1589715,5.1589715 0 0 0 1.88672,-7.04688 5.1589715,5.1589715 0 0 0 -4.58984,-2.57812 z m 30.95312,0 a 5.1589715,5.1589715 0 0 0 -2.45703,0.68945 5.1589715,5.1589715 0 0 0 -1.88672,7.04687 5.1589715,5.1589715 0 0 0 7.04688,1.88868 5.1589715,5.1589715 0 0 0 1.88672,-7.04688 5.1589715,5.1589715 0 0 0 -4.58985,-2.57812 z m 30.95508,0 a 5.1589715,5.1589715 0 0 0 -2.45898,0.68945 5.1589715,5.1589715 0 0 0 -1.88672,7.04687 5.1589715,5.1589715 0 0 0 7.04687,1.88868 5.1589715,5.1589715 0 0 0 1.88868,-7.04688 5.1589715,5.1589715 0 0 0 -4.58985,-2.57812 z m 30.95313,0 a 5.1589715,5.1589715 0 0 0 -2.45703,0.68945 5.1589715,5.1589715 0 0 0 -1.88868,7.04687 5.1589715,5.1589715 0 0 0 7.04883,1.88868 5.1589715,5.1589715 0 0 0 1.88672,-7.04688 5.1589715,5.1589715 0 0 0 -4.58984,-2.57812 z m 30.95312,0 a 5.1589715,5.1589715 0 0 0 -2.45703,0.68945 5.1589715,5.1589715 0 0 0 -1.88672,7.04687 5.1589715,5.1589715 0 0 0 7.04688,1.88868 5.1589715,5.1589715 0 0 0 1.88672,-7.04688 5.1589715,5.1589715 0 0 0 -4.58985,-2.57812 z M 40.759766,292.99414 a 5.1589715,5.1589715 0 0 0 -2.457032,0.68945 5.1589715,5.1589715 0 0 0 -1.886718,7.04688 5.1589715,5.1589715 0 0 0 7.046875,1.88867 5.1589715,5.1589715 0 0 0 1.886718,-7.04687 5.1589715,5.1589715 0 0 0 -4.589843,-2.57813 z m 30.955078,0 a 5.1589715,5.1589715 0 0 0 -2.458985,0.68945 5.1589715,5.1589715 0 0 0 -1.886718,7.04688 5.1589715,5.1589715 0 0 0 7.046875,1.88867 5.1589715,5.1589715 0 0 0 1.888672,-7.04687 5.1589715,5.1589715 0 0 0 -4.589844,-2.57813 z m 30.953126,0 a 5.1589715,5.1589715 0 0 0 -2.45703,0.68945 5.1589715,5.1589715 0 0 0 -1.888674,7.04688 5.1589715,5.1589715 0 0 0 7.046874,1.88867 5.1589715,5.1589715 0 0 0 1.88867,-7.04687 5.1589715,5.1589715 0 0 0 -4.58984,-2.57813 z m 30.95312,0 a 5.1589715,5.1589715 0 0 0 -2.45703,0.68945 5.1589715,5.1589715 0 0 0 -1.88867,7.04688 5.1589715,5.1589715 0 0 0 7.04883,1.88867 5.1589715,5.1589715 0 0 0 1.88672,-7.04687 5.1589715,5.1589715 0 0 0 -4.58985,-2.57813 z m 30.95313,0 a 5.1589715,5.1589715 0 0 0 -2.45703,0.68945 5.1589715,5.1589715 0 0 0 -1.88672,7.04688 5.1589715,5.1589715 0 0 0 7.04687,1.88867 5.1589715,5.1589715 0 0 0 1.88672,-7.04687 5.1589715,5.1589715 0 0 0 -4.58984,-2.57813 z m 30.95508,0 a 5.1589715,5.1589715 0 0 0 -2.45899,0.68945 5.1589715,5.1589715 0 0 0 -1.88672,7.04688 5.1589715,5.1589715 0 0 0 7.04688,1.88867 5.1589715,5.1589715 0 0 0 1.88867,-7.04687 5.1589715,5.1589715 0 0 0 -4.58984,-2.57813 z m 30.95312,0 a 5.1589715,5.1589715 0 0 0 -2.45703,0.68945 5.1589715,5.1589715 0 0 0 -1.88867,7.04688 5.1589715,5.1589715 0 0 0 7.04883,1.88867 5.1589715,5.1589715 0 0 0 1.88672,-7.04687 5.1589715,5.1589715 0 0 0 -4.58985,-2.57813 z m 30.95313,0 a 5.1589715,5.1589715 0 0 0 -2.45703,0.68945 5.1589715,5.1589715 0 0 0 -1.88672,7.04688 5.1589715,5.1589715 0 0 0 7.04687,1.88867 5.1589715,5.1589715 0 0 0 1.88672,-7.04687 5.1589715,5.1589715 0 0 0 -4.58984,-2.57813 z m 30.95507,0 a 5.1589715,5.1589715 0 0 0 -2.45898,0.68945 5.1589715,5.1589715 0 0 0 -1.88672,7.04688 5.1589715,5.1589715 0 0 0 7.04688,1.88867 5.1589715,5.1589715 0 0 0 1.88867,-7.04687 5.1589715,5.1589715 0 0 0 -4.58985,-2.57813 z m 30.95313,0 a 5.1589715,5.1589715 0 0 0 -2.45703,0.68945 5.1589715,5.1589715 0 0 0 -1.88867,7.04688 5.1589715,5.1589715 0 0 0 7.04883,1.88867 5.1589715,5.1589715 0 0 0 1.88671,-7.04687 5.1589715,5.1589715 0 0 0 -4.58984,-2.57813 z m 30.95313,0 a 5.1589715,5.1589715 0 0 0 -2.45704,0.68945 5.1589715,5.1589715 0 0 0 -1.88672,7.04688 5.1589715,5.1589715 0 0 0 7.04688,1.88867 5.1589715,5.1589715 0 0 0 1.88672,-7.04687 5.1589715,5.1589715 0 0 0 -4.58984,-2.57813 z m 30.95507,0 a 5.1589715,5.1589715 0 0 0 -2.45898,0.68945 5.1589715,5.1589715 0 0 0 -1.88672,7.04688 5.1589715,5.1589715 0 0 0 7.04687,1.88867 5.1589715,5.1589715 0 0 0 1.88868,-7.04687 5.1589715,5.1589715 0 0 0 -4.58985,-2.57813 z m 30.95313,0 a 5.1589715,5.1589715 0 0 0 -2.45703,0.68945 5.1589715,5.1589715 0 0 0 -1.88867,7.04688 5.1589715,5.1589715 0 0 0 7.04882,1.88867 5.1589715,5.1589715 0 0 0 1.88672,-7.04687 5.1589715,5.1589715 0 0 0 -4.58984,-2.57813 z m 30.95312,0 a 5.1589715,5.1589715 0 0 0 -2.45703,0.68945 5.1589715,5.1589715 0 0 0 -1.88672,7.04688 5.1589715,5.1589715 0 0 0 7.04688,1.88867 5.1589715,5.1589715 0 0 0 1.88672,-7.04687 5.1589715,5.1589715 0 0 0 -4.58985,-2.57813 z m 30.95313,0 a 5.1589715,5.1589715 0 0 0 -2.45703,0.68945 5.1589715,5.1589715 0 0 0 -1.88672,7.04688 5.1589715,5.1589715 0 0 0 7.04687,1.88867 5.1589715,5.1589715 0 0 0 1.88672,-7.04687 5.1589715,5.1589715 0 0 0 -4.58984,-2.57813 z m 30.95508,0 a 5.1589715,5.1589715 0 0 0 -2.45899,0.68945 5.1589715,5.1589715 0 0 0 -1.88672,7.04688 5.1589715,5.1589715 0 0 0 7.04688,1.88867 5.1589715,5.1589715 0 0 0 1.88867,-7.04687 5.1589715,5.1589715 0 0 0 -4.58984,-2.57813 z m 30.95312,0 a 5.1589715,5.1589715 0 0 0 -2.45703,0.68945 5.1589715,5.1589715 0 0 0 -1.88867,7.04688 5.1589715,5.1589715 0 0 0 7.04883,1.88867 5.1589715,5.1589715 0 0 0 1.88672,-7.04687 5.1589715,5.1589715 0 0 0 -4.58985,-2.57813 z m 30.95313,0 a 5.1589715,5.1589715 0 0 0 -2.45704,0.68945 5.1589715,5.1589715 0 0 0 -1.88671,7.04688 5.1589715,5.1589715 0 0 0 7.04687,1.88867 5.1589715,5.1589715 0 0 0 1.88672,-7.04687 5.1589715,5.1589715 0 0 0 -4.58984,-2.57813 z m 30.95507,0 a 5.1589715,5.1589715 0 0 0 -2.45898,0.68945 5.1589715,5.1589715 0 0 0 -1.88672,7.04688 5.1589715,5.1589715 0 0 0 7.04688,1.88867 5.1589715,5.1589715 0 0 0 1.88867,-7.04687 5.1589715,5.1589715 0 0 0 -4.58985,-2.57813 z m 30.95313,0 a 5.1589715,5.1589715 0 0 0 -2.45703,0.68945 5.1589715,5.1589715 0 0 0 -1.88867,7.04688 5.1589715,5.1589715 0 0 0 7.04882,1.88867 5.1589715,5.1589715 0 0 0 1.88672,-7.04687 5.1589715,5.1589715 0 0 0 -4.58984,-2.57813 z m 30.95312,0 a 5.1589715,5.1589715 0 0 0 -2.45703,0.68945 5.1589715,5.1589715 0 0 0 -1.88672,7.04688 5.1589715,5.1589715 0 0 0 7.04688,1.88867 5.1589715,5.1589715 0 0 0 1.88672,-7.04687 5.1589715,5.1589715 0 0 0 -4.58985,-2.57813 z m 30.95508,0 a 5.1589715,5.1589715 0 0 0 -2.45898,0.68945 5.1589715,5.1589715 0 0 0 -1.88672,7.04688 5.1589715,5.1589715 0 0 0 7.04687,1.88867 5.1589715,5.1589715 0 0 0 1.88868,-7.04687 5.1589715,5.1589715 0 0 0 -4.58985,-2.57813 z m 30.95313,0 a 5.1589715,5.1589715 0 0 0 -2.45703,0.68945 5.1589715,5.1589715 0 0 0 -1.88868,7.04688 5.1589715,5.1589715 0 0 0 7.04883,1.88867 5.1589715,5.1589715 0 0 0 1.88672,-7.04687 5.1589715,5.1589715 0 0 0 -4.58984,-2.57813 z m 30.95312,0 a 5.1589715,5.1589715 0 0 0 -2.45703,0.68945 5.1589715,5.1589715 0 0 0 -1.88672,7.04688 5.1589715,5.1589715 0 0 0 7.04688,1.88867 5.1589715,5.1589715 0 0 0 1.88672,-7.04687 5.1589715,5.1589715 0 0 0 -4.58985,-2.57813 z M 40.759766,323.94922 a 5.1589715,5.1589715 0 0 0 -2.457032,0.6875 5.1589715,5.1589715 0 0 0 -1.886718,7.04883 5.1589715,5.1589715 0 0 0 7.046875,1.88867 5.1589715,5.1589715 0 0 0 1.886718,-7.04883 5.1589715,5.1589715 0 0 0 -4.589843,-2.57617 z m 30.955078,0 a 5.1589715,5.1589715 0 0 0 -2.458985,0.6875 5.1589715,5.1589715 0 0 0 -1.886718,7.04883 5.1589715,5.1589715 0 0 0 7.046875,1.88867 5.1589715,5.1589715 0 0 0 1.888672,-7.04883 5.1589715,5.1589715 0 0 0 -4.589844,-2.57617 z m 30.953126,0 a 5.1589715,5.1589715 0 0 0 -2.45703,0.6875 5.1589715,5.1589715 0 0 0 -1.888674,7.04883 5.1589715,5.1589715 0 0 0 7.046874,1.88867 5.1589715,5.1589715 0 0 0 1.88867,-7.04883 5.1589715,5.1589715 0 0 0 -4.58984,-2.57617 z m 30.95312,0 a 5.1589715,5.1589715 0 0 0 -2.45703,0.6875 5.1589715,5.1589715 0 0 0 -1.88867,7.04883 5.1589715,5.1589715 0 0 0 7.04883,1.88867 5.1589715,5.1589715 0 0 0 1.88672,-7.04883 5.1589715,5.1589715 0 0 0 -4.58985,-2.57617 z m 30.95313,0 a 5.1589715,5.1589715 0 0 0 -2.45703,0.6875 5.1589715,5.1589715 0 0 0 -1.88672,7.04883 5.1589715,5.1589715 0 0 0 7.04687,1.88867 5.1589715,5.1589715 0 0 0 1.88672,-7.04883 5.1589715,5.1589715 0 0 0 -4.58984,-2.57617 z m 30.95508,0 a 5.1589715,5.1589715 0 0 0 -2.45899,0.6875 5.1589715,5.1589715 0 0 0 -1.88672,7.04883 5.1589715,5.1589715 0 0 0 7.04688,1.88867 5.1589715,5.1589715 0 0 0 1.88867,-7.04883 5.1589715,5.1589715 0 0 0 -4.58984,-2.57617 z m 30.95312,0 a 5.1589715,5.1589715 0 0 0 -2.45703,0.6875 5.1589715,5.1589715 0 0 0 -1.88867,7.04883 5.1589715,5.1589715 0 0 0 7.04883,1.88867 5.1589715,5.1589715 0 0 0 1.88672,-7.04883 5.1589715,5.1589715 0 0 0 -4.58985,-2.57617 z m 30.95313,0 a 5.1589715,5.1589715 0 0 0 -2.45703,0.6875 5.1589715,5.1589715 0 0 0 -1.88672,7.04883 5.1589715,5.1589715 0 0 0 7.04687,1.88867 5.1589715,5.1589715 0 0 0 1.88672,-7.04883 5.1589715,5.1589715 0 0 0 -4.58984,-2.57617 z m 30.95507,0 a 5.1589715,5.1589715 0 0 0 -2.45898,0.6875 5.1589715,5.1589715 0 0 0 -1.88672,7.04883 5.1589715,5.1589715 0 0 0 7.04688,1.88867 5.1589715,5.1589715 0 0 0 1.88867,-7.04883 5.1589715,5.1589715 0 0 0 -4.58985,-2.57617 z m 30.95313,0 a 5.1589715,5.1589715 0 0 0 -2.45703,0.6875 5.1589715,5.1589715 0 0 0 -1.88867,7.04883 5.1589715,5.1589715 0 0 0 7.04883,1.88867 5.1589715,5.1589715 0 0 0 1.88671,-7.04883 5.1589715,5.1589715 0 0 0 -4.58984,-2.57617 z m 30.95313,0 a 5.1589715,5.1589715 0 0 0 -2.45704,0.6875 5.1589715,5.1589715 0 0 0 -1.88672,7.04883 5.1589715,5.1589715 0 0 0 7.04688,1.88867 5.1589715,5.1589715 0 0 0 1.88672,-7.04883 5.1589715,5.1589715 0 0 0 -4.58984,-2.57617 z m 30.95507,0 a 5.1589715,5.1589715 0 0 0 -2.45898,0.6875 5.1589715,5.1589715 0 0 0 -1.88672,7.04883 5.1589715,5.1589715 0 0 0 7.04687,1.88867 5.1589715,5.1589715 0 0 0 1.88868,-7.04883 5.1589715,5.1589715 0 0 0 -4.58985,-2.57617 z m 30.95313,0 a 5.1589715,5.1589715 0 0 0 -2.45703,0.6875 5.1589715,5.1589715 0 0 0 -1.88867,7.04883 5.1589715,5.1589715 0 0 0 7.04882,1.88867 5.1589715,5.1589715 0 0 0 1.88672,-7.04883 5.1589715,5.1589715 0 0 0 -4.58984,-2.57617 z m 30.95312,0 a 5.1589715,5.1589715 0 0 0 -2.45703,0.6875 5.1589715,5.1589715 0 0 0 -1.88672,7.04883 5.1589715,5.1589715 0 0 0 7.04688,1.88867 5.1589715,5.1589715 0 0 0 1.88672,-7.04883 5.1589715,5.1589715 0 0 0 -4.58985,-2.57617 z m 30.95313,0 a 5.1589715,5.1589715 0 0 0 -2.45703,0.6875 5.1589715,5.1589715 0 0 0 -1.88672,7.04883 5.1589715,5.1589715 0 0 0 7.04687,1.88867 5.1589715,5.1589715 0 0 0 1.88672,-7.04883 5.1589715,5.1589715 0 0 0 -4.58984,-2.57617 z m 30.95508,0 a 5.1589715,5.1589715 0 0 0 -2.45899,0.6875 5.1589715,5.1589715 0 0 0 -1.88672,7.04883 5.1589715,5.1589715 0 0 0 7.04688,1.88867 5.1589715,5.1589715 0 0 0 1.88867,-7.04883 5.1589715,5.1589715 0 0 0 -4.58984,-2.57617 z m 30.95312,0 a 5.1589715,5.1589715 0 0 0 -2.45703,0.6875 5.1589715,5.1589715 0 0 0 -1.88867,7.04883 5.1589715,5.1589715 0 0 0 7.04883,1.88867 5.1589715,5.1589715 0 0 0 1.88672,-7.04883 5.1589715,5.1589715 0 0 0 -4.58985,-2.57617 z m 30.95313,0 a 5.1589715,5.1589715 0 0 0 -2.45704,0.6875 5.1589715,5.1589715 0 0 0 -1.88671,7.04883 5.1589715,5.1589715 0 0 0 7.04687,1.88867 5.1589715,5.1589715 0 0 0 1.88672,-7.04883 5.1589715,5.1589715 0 0 0 -4.58984,-2.57617 z m 30.95507,0 a 5.1589715,5.1589715 0 0 0 -2.45898,0.6875 5.1589715,5.1589715 0 0 0 -1.88672,7.04883 5.1589715,5.1589715 0 0 0 7.04688,1.88867 5.1589715,5.1589715 0 0 0 1.88867,-7.04883 5.1589715,5.1589715 0 0 0 -4.58985,-2.57617 z m 30.95313,0 a 5.1589715,5.1589715 0 0 0 -2.45703,0.6875 5.1589715,5.1589715 0 0 0 -1.88867,7.04883 5.1589715,5.1589715 0 0 0 7.04882,1.88867 5.1589715,5.1589715 0 0 0 1.88672,-7.04883 5.1589715,5.1589715 0 0 0 -4.58984,-2.57617 z m 30.95312,0 a 5.1589715,5.1589715 0 0 0 -2.45703,0.6875 5.1589715,5.1589715 0 0 0 -1.88672,7.04883 5.1589715,5.1589715 0 0 0 7.04688,1.88867 5.1589715,5.1589715 0 0 0 1.88672,-7.04883 5.1589715,5.1589715 0 0 0 -4.58985,-2.57617 z m 30.95508,0 a 5.1589715,5.1589715 0 0 0 -2.45898,0.6875 5.1589715,5.1589715 0 0 0 -1.88672,7.04883 5.1589715,5.1589715 0 0 0 7.04687,1.88867 5.1589715,5.1589715 0 0 0 1.88868,-7.04883 5.1589715,5.1589715 0 0 0 -4.58985,-2.57617 z m 30.95313,0 a 5.1589715,5.1589715 0 0 0 -2.45703,0.6875 5.1589715,5.1589715 0 0 0 -1.88868,7.04883 5.1589715,5.1589715 0 0 0 7.04883,1.88867 5.1589715,5.1589715 0 0 0 1.88672,-7.04883 5.1589715,5.1589715 0 0 0 -4.58984,-2.57617 z m 30.95312,0 a 5.1589715,5.1589715 0 0 0 -2.45703,0.6875 5.1589715,5.1589715 0 0 0 -1.88672,7.04883 5.1589715,5.1589715 0 0 0 7.04688,1.88867 5.1589715,5.1589715 0 0 0 1.88672,-7.04883 5.1589715,5.1589715 0 0 0 -4.58985,-2.57617 z M 40.759766,354.90234 a 5.1589715,5.1589715 0 0 0 -2.457032,0.68946 5.1589715,5.1589715 0 0 0 -1.886718,7.04687 5.1589715,5.1589715 0 0 0 7.046875,1.88867 5.1589715,5.1589715 0 0 0 1.886718,-7.04687 5.1589715,5.1589715 0 0 0 -4.589843,-2.57813 z m 30.955078,0 a 5.1589715,5.1589715 0 0 0 -2.458985,0.68946 5.1589715,5.1589715 0 0 0 -1.886718,7.04687 5.1589715,5.1589715 0 0 0 7.046875,1.88867 5.1589715,5.1589715 0 0 0 1.888672,-7.04687 5.1589715,5.1589715 0 0 0 -4.589844,-2.57813 z m 30.953126,0 a 5.1589715,5.1589715 0 0 0 -2.45703,0.68946 5.1589715,5.1589715 0 0 0 -1.888674,7.04687 5.1589715,5.1589715 0 0 0 7.046874,1.88867 5.1589715,5.1589715 0 0 0 1.88867,-7.04687 5.1589715,5.1589715 0 0 0 -4.58984,-2.57813 z m 30.95312,0 a 5.1589715,5.1589715 0 0 0 -2.45703,0.68946 5.1589715,5.1589715 0 0 0 -1.88867,7.04687 5.1589715,5.1589715 0 0 0 7.04883,1.88867 5.1589715,5.1589715 0 0 0 1.88672,-7.04687 5.1589715,5.1589715 0 0 0 -4.58985,-2.57813 z m 30.95313,0 a 5.1589715,5.1589715 0 0 0 -2.45703,0.68946 5.1589715,5.1589715 0 0 0 -1.88672,7.04687 5.1589715,5.1589715 0 0 0 7.04687,1.88867 5.1589715,5.1589715 0 0 0 1.88672,-7.04687 5.1589715,5.1589715 0 0 0 -4.58984,-2.57813 z m 30.95508,0 a 5.1589715,5.1589715 0 0 0 -2.45899,0.68946 5.1589715,5.1589715 0 0 0 -1.88672,7.04687 5.1589715,5.1589715 0 0 0 7.04688,1.88867 5.1589715,5.1589715 0 0 0 1.88867,-7.04687 5.1589715,5.1589715 0 0 0 -4.58984,-2.57813 z m 30.95312,0 a 5.1589715,5.1589715 0 0 0 -2.45703,0.68946 5.1589715,5.1589715 0 0 0 -1.88867,7.04687 5.1589715,5.1589715 0 0 0 7.04883,1.88867 5.1589715,5.1589715 0 0 0 1.88672,-7.04687 5.1589715,5.1589715 0 0 0 -4.58985,-2.57813 z m 30.95313,0 a 5.1589715,5.1589715 0 0 0 -2.45703,0.68946 5.1589715,5.1589715 0 0 0 -1.88672,7.04687 5.1589715,5.1589715 0 0 0 7.04687,1.88867 5.1589715,5.1589715 0 0 0 1.88672,-7.04687 5.1589715,5.1589715 0 0 0 -4.58984,-2.57813 z m 30.95507,0 a 5.1589715,5.1589715 0 0 0 -2.45898,0.68946 5.1589715,5.1589715 0 0 0 -1.88672,7.04687 5.1589715,5.1589715 0 0 0 7.04688,1.88867 5.1589715,5.1589715 0 0 0 1.88867,-7.04687 5.1589715,5.1589715 0 0 0 -4.58985,-2.57813 z m 30.95313,0 a 5.1589715,5.1589715 0 0 0 -2.45703,0.68946 5.1589715,5.1589715 0 0 0 -1.88867,7.04687 5.1589715,5.1589715 0 0 0 7.04883,1.88867 5.1589715,5.1589715 0 0 0 1.88671,-7.04687 5.1589715,5.1589715 0 0 0 -4.58984,-2.57813 z m 30.95313,0 a 5.1589715,5.1589715 0 0 0 -2.45704,0.68946 5.1589715,5.1589715 0 0 0 -1.88672,7.04687 5.1589715,5.1589715 0 0 0 7.04688,1.88867 5.1589715,5.1589715 0 0 0 1.88672,-7.04687 5.1589715,5.1589715 0 0 0 -4.58984,-2.57813 z m 30.95507,0 a 5.1589715,5.1589715 0 0 0 -2.45898,0.68946 5.1589715,5.1589715 0 0 0 -1.88672,7.04687 5.1589715,5.1589715 0 0 0 7.04687,1.88867 5.1589715,5.1589715 0 0 0 1.88868,-7.04687 5.1589715,5.1589715 0 0 0 -4.58985,-2.57813 z m 30.95313,0 a 5.1589715,5.1589715 0 0 0 -2.45703,0.68946 5.1589715,5.1589715 0 0 0 -1.88867,7.04687 5.1589715,5.1589715 0 0 0 7.04882,1.88867 5.1589715,5.1589715 0 0 0 1.88672,-7.04687 5.1589715,5.1589715 0 0 0 -4.58984,-2.57813 z m 30.95312,0 a 5.1589715,5.1589715 0 0 0 -2.45703,0.68946 5.1589715,5.1589715 0 0 0 -1.88672,7.04687 5.1589715,5.1589715 0 0 0 7.04688,1.88867 5.1589715,5.1589715 0 0 0 1.88672,-7.04687 5.1589715,5.1589715 0 0 0 -4.58985,-2.57813 z m 30.95313,0 a 5.1589715,5.1589715 0 0 0 -2.45703,0.68946 5.1589715,5.1589715 0 0 0 -1.88672,7.04687 5.1589715,5.1589715 0 0 0 7.04687,1.88867 5.1589715,5.1589715 0 0 0 1.88672,-7.04687 5.1589715,5.1589715 0 0 0 -4.58984,-2.57813 z m 30.95508,0 a 5.1589715,5.1589715 0 0 0 -2.45899,0.68946 5.1589715,5.1589715 0 0 0 -1.88672,7.04687 5.1589715,5.1589715 0 0 0 7.04688,1.88867 5.1589715,5.1589715 0 0 0 1.88867,-7.04687 5.1589715,5.1589715 0 0 0 -4.58984,-2.57813 z m 30.95312,0 a 5.1589715,5.1589715 0 0 0 -2.45703,0.68946 5.1589715,5.1589715 0 0 0 -1.88867,7.04687 5.1589715,5.1589715 0 0 0 7.04883,1.88867 5.1589715,5.1589715 0 0 0 1.88672,-7.04687 5.1589715,5.1589715 0 0 0 -4.58985,-2.57813 z m 30.95313,0 a 5.1589715,5.1589715 0 0 0 -2.45704,0.68946 5.1589715,5.1589715 0 0 0 -1.88671,7.04687 5.1589715,5.1589715 0 0 0 7.04687,1.88867 5.1589715,5.1589715 0 0 0 1.88672,-7.04687 5.1589715,5.1589715 0 0 0 -4.58984,-2.57813 z m 30.95507,0 a 5.1589715,5.1589715 0 0 0 -2.45898,0.68946 5.1589715,5.1589715 0 0 0 -1.88672,7.04687 5.1589715,5.1589715 0 0 0 7.04688,1.88867 5.1589715,5.1589715 0 0 0 1.88867,-7.04687 5.1589715,5.1589715 0 0 0 -4.58985,-2.57813 z m 30.95313,0 a 5.1589715,5.1589715 0 0 0 -2.45703,0.68946 5.1589715,5.1589715 0 0 0 -1.88867,7.04687 5.1589715,5.1589715 0 0 0 7.04882,1.88867 5.1589715,5.1589715 0 0 0 1.88672,-7.04687 5.1589715,5.1589715 0 0 0 -4.58984,-2.57813 z m 30.95312,0 a 5.1589715,5.1589715 0 0 0 -2.45703,0.68946 5.1589715,5.1589715 0 0 0 -1.88672,7.04687 5.1589715,5.1589715 0 0 0 7.04688,1.88867 5.1589715,5.1589715 0 0 0 1.88672,-7.04687 5.1589715,5.1589715 0 0 0 -4.58985,-2.57813 z m 30.95508,0 a 5.1589715,5.1589715 0 0 0 -2.45898,0.68946 5.1589715,5.1589715 0 0 0 -1.88672,7.04687 5.1589715,5.1589715 0 0 0 7.04687,1.88867 5.1589715,5.1589715 0 0 0 1.88868,-7.04687 5.1589715,5.1589715 0 0 0 -4.58985,-2.57813 z m 30.95313,0 a 5.1589715,5.1589715 0 0 0 -2.45703,0.68946 5.1589715,5.1589715 0 0 0 -1.88868,7.04687 5.1589715,5.1589715 0 0 0 7.04883,1.88867 5.1589715,5.1589715 0 0 0 1.88672,-7.04687 5.1589715,5.1589715 0 0 0 -4.58984,-2.57813 z m 30.95312,0 a 5.1589715,5.1589715 0 0 0 -2.45703,0.68946 5.1589715,5.1589715 0 0 0 -1.88672,7.04687 5.1589715,5.1589715 0 0 0 7.04688,1.88867 5.1589715,5.1589715 0 0 0 1.88672,-7.04687 5.1589715,5.1589715 0 0 0 -4.58985,-2.57813 z M 40.759766,385.85547 a 5.1589715,5.1589715 0 0 0 -2.457032,0.68945 5.1589715,5.1589715 0 0 0 -1.886718,7.04688 5.1589715,5.1589715 0 0 0 7.046875,1.88867 5.1589715,5.1589715 0 0 0 1.886718,-7.04688 5.1589715,5.1589715 0 0 0 -4.589843,-2.57812 z m 30.955078,0 a 5.1589715,5.1589715 0 0 0 -2.458985,0.68945 5.1589715,5.1589715 0 0 0 -1.886718,7.04688 5.1589715,5.1589715 0 0 0 7.046875,1.88867 5.1589715,5.1589715 0 0 0 1.888672,-7.04688 5.1589715,5.1589715 0 0 0 -4.589844,-2.57812 z m 30.953126,0 a 5.1589715,5.1589715 0 0 0 -2.45703,0.68945 5.1589715,5.1589715 0 0 0 -1.888674,7.04688 5.1589715,5.1589715 0 0 0 7.046874,1.88867 5.1589715,5.1589715 0 0 0 1.88867,-7.04688 5.1589715,5.1589715 0 0 0 -4.58984,-2.57812 z m 30.95312,0 a 5.1589715,5.1589715 0 0 0 -2.45703,0.68945 5.1589715,5.1589715 0 0 0 -1.88867,7.04688 5.1589715,5.1589715 0 0 0 7.04883,1.88867 5.1589715,5.1589715 0 0 0 1.88672,-7.04688 5.1589715,5.1589715 0 0 0 -4.58985,-2.57812 z m 30.95313,0 a 5.1589715,5.1589715 0 0 0 -2.45703,0.68945 5.1589715,5.1589715 0 0 0 -1.88672,7.04688 5.1589715,5.1589715 0 0 0 7.04687,1.88867 5.1589715,5.1589715 0 0 0 1.88672,-7.04688 5.1589715,5.1589715 0 0 0 -4.58984,-2.57812 z m 30.95508,0 a 5.1589715,5.1589715 0 0 0 -2.45899,0.68945 5.1589715,5.1589715 0 0 0 -1.88672,7.04688 5.1589715,5.1589715 0 0 0 7.04688,1.88867 5.1589715,5.1589715 0 0 0 1.88867,-7.04688 5.1589715,5.1589715 0 0 0 -4.58984,-2.57812 z m 30.95312,0 a 5.1589715,5.1589715 0 0 0 -2.45703,0.68945 5.1589715,5.1589715 0 0 0 -1.88867,7.04688 5.1589715,5.1589715 0 0 0 7.04883,1.88867 5.1589715,5.1589715 0 0 0 1.88672,-7.04688 5.1589715,5.1589715 0 0 0 -4.58985,-2.57812 z m 30.95313,0 a 5.1589715,5.1589715 0 0 0 -2.45703,0.68945 5.1589715,5.1589715 0 0 0 -1.88672,7.04688 5.1589715,5.1589715 0 0 0 7.04687,1.88867 5.1589715,5.1589715 0 0 0 1.88672,-7.04688 5.1589715,5.1589715 0 0 0 -4.58984,-2.57812 z m 30.95507,0 a 5.1589715,5.1589715 0 0 0 -2.45898,0.68945 5.1589715,5.1589715 0 0 0 -1.88672,7.04688 5.1589715,5.1589715 0 0 0 7.04688,1.88867 5.1589715,5.1589715 0 0 0 1.88867,-7.04688 5.1589715,5.1589715 0 0 0 -4.58985,-2.57812 z m 30.95313,0 a 5.1589715,5.1589715 0 0 0 -2.45703,0.68945 5.1589715,5.1589715 0 0 0 -1.88867,7.04688 5.1589715,5.1589715 0 0 0 7.04883,1.88867 5.1589715,5.1589715 0 0 0 1.88671,-7.04688 5.1589715,5.1589715 0 0 0 -4.58984,-2.57812 z m 30.95313,0 a 5.1589715,5.1589715 0 0 0 -2.45704,0.68945 5.1589715,5.1589715 0 0 0 -1.88672,7.04688 5.1589715,5.1589715 0 0 0 7.04688,1.88867 5.1589715,5.1589715 0 0 0 1.88672,-7.04688 5.1589715,5.1589715 0 0 0 -4.58984,-2.57812 z m 30.95507,0 a 5.1589715,5.1589715 0 0 0 -2.45898,0.68945 5.1589715,5.1589715 0 0 0 -1.88672,7.04688 5.1589715,5.1589715 0 0 0 7.04687,1.88867 5.1589715,5.1589715 0 0 0 1.88868,-7.04688 5.1589715,5.1589715 0 0 0 -4.58985,-2.57812 z m 30.95313,0 a 5.1589715,5.1589715 0 0 0 -2.45703,0.68945 5.1589715,5.1589715 0 0 0 -1.88867,7.04688 5.1589715,5.1589715 0 0 0 7.04882,1.88867 5.1589715,5.1589715 0 0 0 1.88672,-7.04688 5.1589715,5.1589715 0 0 0 -4.58984,-2.57812 z m 30.95312,0 a 5.1589715,5.1589715 0 0 0 -2.45703,0.68945 5.1589715,5.1589715 0 0 0 -1.88672,7.04688 5.1589715,5.1589715 0 0 0 7.04688,1.88867 5.1589715,5.1589715 0 0 0 1.88672,-7.04688 5.1589715,5.1589715 0 0 0 -4.58985,-2.57812 z m 30.95313,0 a 5.1589715,5.1589715 0 0 0 -2.45703,0.68945 5.1589715,5.1589715 0 0 0 -1.88672,7.04688 5.1589715,5.1589715 0 0 0 7.04687,1.88867 5.1589715,5.1589715 0 0 0 1.88672,-7.04688 5.1589715,5.1589715 0 0 0 -4.58984,-2.57812 z m 30.95508,0 a 5.1589715,5.1589715 0 0 0 -2.45899,0.68945 5.1589715,5.1589715 0 0 0 -1.88672,7.04688 5.1589715,5.1589715 0 0 0 7.04688,1.88867 5.1589715,5.1589715 0 0 0 1.88867,-7.04688 5.1589715,5.1589715 0 0 0 -4.58984,-2.57812 z m 30.95312,0 a 5.1589715,5.1589715 0 0 0 -2.45703,0.68945 5.1589715,5.1589715 0 0 0 -1.88867,7.04688 5.1589715,5.1589715 0 0 0 7.04883,1.88867 5.1589715,5.1589715 0 0 0 1.88672,-7.04688 5.1589715,5.1589715 0 0 0 -4.58985,-2.57812 z m 30.95313,0 a 5.1589715,5.1589715 0 0 0 -2.45704,0.68945 5.1589715,5.1589715 0 0 0 -1.88671,7.04688 5.1589715,5.1589715 0 0 0 7.04687,1.88867 5.1589715,5.1589715 0 0 0 1.88672,-7.04688 5.1589715,5.1589715 0 0 0 -4.58984,-2.57812 z m 30.95507,0 a 5.1589715,5.1589715 0 0 0 -2.45898,0.68945 5.1589715,5.1589715 0 0 0 -1.88672,7.04688 5.1589715,5.1589715 0 0 0 7.04688,1.88867 5.1589715,5.1589715 0 0 0 1.88867,-7.04688 5.1589715,5.1589715 0 0 0 -4.58985,-2.57812 z m 30.95313,0 a 5.1589715,5.1589715 0 0 0 -2.45703,0.68945 5.1589715,5.1589715 0 0 0 -1.88867,7.04688 5.1589715,5.1589715 0 0 0 7.04882,1.88867 5.1589715,5.1589715 0 0 0 1.88672,-7.04688 5.1589715,5.1589715 0 0 0 -4.58984,-2.57812 z m 30.95312,0 a 5.1589715,5.1589715 0 0 0 -2.45703,0.68945 5.1589715,5.1589715 0 0 0 -1.88672,7.04688 5.1589715,5.1589715 0 0 0 7.04688,1.88867 5.1589715,5.1589715 0 0 0 1.88672,-7.04688 5.1589715,5.1589715 0 0 0 -4.58985,-2.57812 z m 30.95508,0 a 5.1589715,5.1589715 0 0 0 -2.45898,0.68945 5.1589715,5.1589715 0 0 0 -1.88672,7.04688 5.1589715,5.1589715 0 0 0 7.04687,1.88867 5.1589715,5.1589715 0 0 0 1.88868,-7.04688 5.1589715,5.1589715 0 0 0 -4.58985,-2.57812 z m 30.95313,0 a 5.1589715,5.1589715 0 0 0 -2.45703,0.68945 5.1589715,5.1589715 0 0 0 -1.88868,7.04688 5.1589715,5.1589715 0 0 0 7.04883,1.88867 5.1589715,5.1589715 0 0 0 1.88672,-7.04688 5.1589715,5.1589715 0 0 0 -4.58984,-2.57812 z m 30.95312,0 a 5.1589715,5.1589715 0 0 0 -2.45703,0.68945 5.1589715,5.1589715 0 0 0 -1.88672,7.04688 5.1589715,5.1589715 0 0 0 7.04688,1.88867 5.1589715,5.1589715 0 0 0 1.88672,-7.04688 5.1589715,5.1589715 0 0 0 -4.58985,-2.57812 z M 40.759766,416.81055 a 5.1589715,5.1589715 0 0 0 -2.457032,0.6875 5.1589715,5.1589715 0 0 0 -1.886718,7.04883 5.1589715,5.1589715 0 0 0 7.046875,1.88867 5.1589715,5.1589715 0 0 0 1.886718,-7.04688 5.1589715,5.1589715 0 0 0 -4.589843,-2.57812 z m 30.955078,0 a 5.1589715,5.1589715 0 0 0 -2.458985,0.6875 5.1589715,5.1589715 0 0 0 -1.886718,7.04883 5.1589715,5.1589715 0 0 0 7.046875,1.88867 5.1589715,5.1589715 0 0 0 1.888672,-7.04688 5.1589715,5.1589715 0 0 0 -4.589844,-2.57812 z m 30.953126,0 a 5.1589715,5.1589715 0 0 0 -2.45703,0.6875 5.1589715,5.1589715 0 0 0 -1.888674,7.04883 5.1589715,5.1589715 0 0 0 7.046874,1.88867 5.1589715,5.1589715 0 0 0 1.88867,-7.04688 5.1589715,5.1589715 0 0 0 -4.58984,-2.57812 z m 30.95312,0 a 5.1589715,5.1589715 0 0 0 -2.45703,0.6875 5.1589715,5.1589715 0 0 0 -1.88867,7.04883 5.1589715,5.1589715 0 0 0 7.04883,1.88867 5.1589715,5.1589715 0 0 0 1.88672,-7.04688 5.1589715,5.1589715 0 0 0 -4.58985,-2.57812 z m 30.95313,0 a 5.1589715,5.1589715 0 0 0 -2.45703,0.6875 5.1589715,5.1589715 0 0 0 -1.88672,7.04883 5.1589715,5.1589715 0 0 0 7.04687,1.88867 5.1589715,5.1589715 0 0 0 1.88672,-7.04688 5.1589715,5.1589715 0 0 0 -4.58984,-2.57812 z m 30.95508,0 a 5.1589715,5.1589715 0 0 0 -2.45899,0.6875 5.1589715,5.1589715 0 0 0 -1.88672,7.04883 5.1589715,5.1589715 0 0 0 7.04688,1.88867 5.1589715,5.1589715 0 0 0 1.88867,-7.04688 5.1589715,5.1589715 0 0 0 -4.58984,-2.57812 z m 30.95312,0 a 5.1589715,5.1589715 0 0 0 -2.45703,0.6875 5.1589715,5.1589715 0 0 0 -1.88867,7.04883 5.1589715,5.1589715 0 0 0 7.04883,1.88867 5.1589715,5.1589715 0 0 0 1.88672,-7.04688 5.1589715,5.1589715 0 0 0 -4.58985,-2.57812 z m 30.95313,0 a 5.1589715,5.1589715 0 0 0 -2.45703,0.6875 5.1589715,5.1589715 0 0 0 -1.88672,7.04883 5.1589715,5.1589715 0 0 0 7.04687,1.88867 5.1589715,5.1589715 0 0 0 1.88672,-7.04688 5.1589715,5.1589715 0 0 0 -4.58984,-2.57812 z m 30.95507,0 a 5.1589715,5.1589715 0 0 0 -2.45898,0.6875 5.1589715,5.1589715 0 0 0 -1.88672,7.04883 5.1589715,5.1589715 0 0 0 7.04688,1.88867 5.1589715,5.1589715 0 0 0 1.88867,-7.04688 5.1589715,5.1589715 0 0 0 -4.58985,-2.57812 z m 30.95313,0 a 5.1589715,5.1589715 0 0 0 -2.45703,0.6875 5.1589715,5.1589715 0 0 0 -1.88867,7.04883 5.1589715,5.1589715 0 0 0 7.04883,1.88867 5.1589715,5.1589715 0 0 0 1.88671,-7.04688 5.1589715,5.1589715 0 0 0 -4.58984,-2.57812 z m 30.95313,0 a 5.1589715,5.1589715 0 0 0 -2.45704,0.6875 5.1589715,5.1589715 0 0 0 -1.88672,7.04883 5.1589715,5.1589715 0 0 0 7.04688,1.88867 5.1589715,5.1589715 0 0 0 1.88672,-7.04688 5.1589715,5.1589715 0 0 0 -4.58984,-2.57812 z m 30.95507,0 a 5.1589715,5.1589715 0 0 0 -2.45898,0.6875 5.1589715,5.1589715 0 0 0 -1.88672,7.04883 5.1589715,5.1589715 0 0 0 7.04687,1.88867 5.1589715,5.1589715 0 0 0 1.88868,-7.04688 5.1589715,5.1589715 0 0 0 -4.58985,-2.57812 z m 30.95313,0 a 5.1589715,5.1589715 0 0 0 -2.45703,0.6875 5.1589715,5.1589715 0 0 0 -1.88867,7.04883 5.1589715,5.1589715 0 0 0 7.04882,1.88867 5.1589715,5.1589715 0 0 0 1.88672,-7.04688 5.1589715,5.1589715 0 0 0 -4.58984,-2.57812 z m 30.95312,0 a 5.1589715,5.1589715 0 0 0 -2.45703,0.6875 5.1589715,5.1589715 0 0 0 -1.88672,7.04883 5.1589715,5.1589715 0 0 0 7.04688,1.88867 5.1589715,5.1589715 0 0 0 1.88672,-7.04688 5.1589715,5.1589715 0 0 0 -4.58985,-2.57812 z m 30.95313,0 a 5.1589715,5.1589715 0 0 0 -2.45703,0.6875 5.1589715,5.1589715 0 0 0 -1.88672,7.04883 5.1589715,5.1589715 0 0 0 7.04687,1.88867 5.1589715,5.1589715 0 0 0 1.88672,-7.04688 5.1589715,5.1589715 0 0 0 -4.58984,-2.57812 z m 30.95508,0 a 5.1589715,5.1589715 0 0 0 -2.45899,0.6875 5.1589715,5.1589715 0 0 0 -1.88672,7.04883 5.1589715,5.1589715 0 0 0 7.04688,1.88867 5.1589715,5.1589715 0 0 0 1.88867,-7.04688 5.1589715,5.1589715 0 0 0 -4.58984,-2.57812 z m 30.95312,0 a 5.1589715,5.1589715 0 0 0 -2.45703,0.6875 5.1589715,5.1589715 0 0 0 -1.88867,7.04883 5.1589715,5.1589715 0 0 0 7.04883,1.88867 5.1589715,5.1589715 0 0 0 1.88672,-7.04688 5.1589715,5.1589715 0 0 0 -4.58985,-2.57812 z m 30.95313,0 a 5.1589715,5.1589715 0 0 0 -2.45704,0.6875 5.1589715,5.1589715 0 0 0 -1.88671,7.04883 5.1589715,5.1589715 0 0 0 7.04687,1.88867 5.1589715,5.1589715 0 0 0 1.88672,-7.04688 5.1589715,5.1589715 0 0 0 -4.58984,-2.57812 z m 30.95507,0 a 5.1589715,5.1589715 0 0 0 -2.45898,0.6875 5.1589715,5.1589715 0 0 0 -1.88672,7.04883 5.1589715,5.1589715 0 0 0 7.04688,1.88867 5.1589715,5.1589715 0 0 0 1.88867,-7.04688 5.1589715,5.1589715 0 0 0 -4.58985,-2.57812 z m 30.95313,0 a 5.1589715,5.1589715 0 0 0 -2.45703,0.6875 5.1589715,5.1589715 0 0 0 -1.88867,7.04883 5.1589715,5.1589715 0 0 0 7.04882,1.88867 5.1589715,5.1589715 0 0 0 1.88672,-7.04688 5.1589715,5.1589715 0 0 0 -4.58984,-2.57812 z m 30.95312,0 a 5.1589715,5.1589715 0 0 0 -2.45703,0.6875 5.1589715,5.1589715 0 0 0 -1.88672,7.04883 5.1589715,5.1589715 0 0 0 7.04688,1.88867 5.1589715,5.1589715 0 0 0 1.88672,-7.04688 5.1589715,5.1589715 0 0 0 -4.58985,-2.57812 z m 30.95508,0 a 5.1589715,5.1589715 0 0 0 -2.45898,0.6875 5.1589715,5.1589715 0 0 0 -1.88672,7.04883 5.1589715,5.1589715 0 0 0 7.04687,1.88867 5.1589715,5.1589715 0 0 0 1.88868,-7.04688 5.1589715,5.1589715 0 0 0 -4.58985,-2.57812 z m 30.95313,0 a 5.1589715,5.1589715 0 0 0 -2.45703,0.6875 5.1589715,5.1589715 0 0 0 -1.88868,7.04883 5.1589715,5.1589715 0 0 0 7.04883,1.88867 5.1589715,5.1589715 0 0 0 1.88672,-7.04688 5.1589715,5.1589715 0 0 0 -4.58984,-2.57812 z m 30.95312,0 a 5.1589715,5.1589715 0 0 0 -2.45703,0.6875 5.1589715,5.1589715 0 0 0 -1.88672,7.04883 5.1589715,5.1589715 0 0 0 7.04688,1.88867 5.1589715,5.1589715 0 0 0 1.88672,-7.04688 5.1589715,5.1589715 0 0 0 -4.58985,-2.57812 z M 40.759766,447.76367 a 5.1589715,5.1589715 0 0 0 -2.457032,0.68945 5.1589715,5.1589715 0 0 0 -1.886718,7.04688 5.1589715,5.1589715 0 0 0 7.046875,1.88867 5.1589715,5.1589715 0 0 0 1.886718,-7.04687 5.1589715,5.1589715 0 0 0 -4.589843,-2.57813 z m 30.955078,0 a 5.1589715,5.1589715 0 0 0 -2.458985,0.68945 5.1589715,5.1589715 0 0 0 -1.886718,7.04688 5.1589715,5.1589715 0 0 0 7.046875,1.88867 5.1589715,5.1589715 0 0 0 1.888672,-7.04687 5.1589715,5.1589715 0 0 0 -4.589844,-2.57813 z m 30.953126,0 a 5.1589715,5.1589715 0 0 0 -2.45703,0.68945 5.1589715,5.1589715 0 0 0 -1.888674,7.04688 5.1589715,5.1589715 0 0 0 7.046874,1.88867 5.1589715,5.1589715 0 0 0 1.88867,-7.04687 5.1589715,5.1589715 0 0 0 -4.58984,-2.57813 z m 30.95312,0 a 5.1589715,5.1589715 0 0 0 -2.45703,0.68945 5.1589715,5.1589715 0 0 0 -1.88867,7.04688 5.1589715,5.1589715 0 0 0 7.04883,1.88867 5.1589715,5.1589715 0 0 0 1.88672,-7.04687 5.1589715,5.1589715 0 0 0 -4.58985,-2.57813 z m 30.95313,0 a 5.1589715,5.1589715 0 0 0 -2.45703,0.68945 5.1589715,5.1589715 0 0 0 -1.88672,7.04688 5.1589715,5.1589715 0 0 0 7.04687,1.88867 5.1589715,5.1589715 0 0 0 1.88672,-7.04687 5.1589715,5.1589715 0 0 0 -4.58984,-2.57813 z m 30.95508,0 a 5.1589715,5.1589715 0 0 0 -2.45899,0.68945 5.1589715,5.1589715 0 0 0 -1.88672,7.04688 5.1589715,5.1589715 0 0 0 7.04688,1.88867 5.1589715,5.1589715 0 0 0 1.88867,-7.04687 5.1589715,5.1589715 0 0 0 -4.58984,-2.57813 z m 30.95312,0 a 5.1589715,5.1589715 0 0 0 -2.45703,0.68945 5.1589715,5.1589715 0 0 0 -1.88867,7.04688 5.1589715,5.1589715 0 0 0 7.04883,1.88867 5.1589715,5.1589715 0 0 0 1.88672,-7.04687 5.1589715,5.1589715 0 0 0 -4.58985,-2.57813 z m 30.95313,0 a 5.1589715,5.1589715 0 0 0 -2.45703,0.68945 5.1589715,5.1589715 0 0 0 -1.88672,7.04688 5.1589715,5.1589715 0 0 0 7.04687,1.88867 5.1589715,5.1589715 0 0 0 1.88672,-7.04687 5.1589715,5.1589715 0 0 0 -4.58984,-2.57813 z m 30.95507,0 a 5.1589715,5.1589715 0 0 0 -2.45898,0.68945 5.1589715,5.1589715 0 0 0 -1.88672,7.04688 5.1589715,5.1589715 0 0 0 7.04688,1.88867 5.1589715,5.1589715 0 0 0 1.88867,-7.04687 5.1589715,5.1589715 0 0 0 -4.58985,-2.57813 z m 30.95313,0 a 5.1589715,5.1589715 0 0 0 -2.45703,0.68945 5.1589715,5.1589715 0 0 0 -1.88867,7.04688 5.1589715,5.1589715 0 0 0 7.04883,1.88867 5.1589715,5.1589715 0 0 0 1.88671,-7.04687 5.1589715,5.1589715 0 0 0 -4.58984,-2.57813 z m 30.95313,0 a 5.1589715,5.1589715 0 0 0 -2.45704,0.68945 5.1589715,5.1589715 0 0 0 -1.88672,7.04688 5.1589715,5.1589715 0 0 0 7.04688,1.88867 5.1589715,5.1589715 0 0 0 1.88672,-7.04687 5.1589715,5.1589715 0 0 0 -4.58984,-2.57813 z m 30.95507,0 a 5.1589715,5.1589715 0 0 0 -2.45898,0.68945 5.1589715,5.1589715 0 0 0 -1.88672,7.04688 5.1589715,5.1589715 0 0 0 7.04687,1.88867 5.1589715,5.1589715 0 0 0 1.88868,-7.04687 5.1589715,5.1589715 0 0 0 -4.58985,-2.57813 z m 30.95313,0 a 5.1589715,5.1589715 0 0 0 -2.45703,0.68945 5.1589715,5.1589715 0 0 0 -1.88867,7.04688 5.1589715,5.1589715 0 0 0 7.04882,1.88867 5.1589715,5.1589715 0 0 0 1.88672,-7.04687 5.1589715,5.1589715 0 0 0 -4.58984,-2.57813 z m 30.95312,0 a 5.1589715,5.1589715 0 0 0 -2.45703,0.68945 5.1589715,5.1589715 0 0 0 -1.88672,7.04688 5.1589715,5.1589715 0 0 0 7.04688,1.88867 5.1589715,5.1589715 0 0 0 1.88672,-7.04687 5.1589715,5.1589715 0 0 0 -4.58985,-2.57813 z m 30.95313,0 a 5.1589715,5.1589715 0 0 0 -2.45703,0.68945 5.1589715,5.1589715 0 0 0 -1.88672,7.04688 5.1589715,5.1589715 0 0 0 7.04687,1.88867 5.1589715,5.1589715 0 0 0 1.88672,-7.04687 5.1589715,5.1589715 0 0 0 -4.58984,-2.57813 z m 30.95508,0 a 5.1589715,5.1589715 0 0 0 -2.45899,0.68945 5.1589715,5.1589715 0 0 0 -1.88672,7.04688 5.1589715,5.1589715 0 0 0 7.04688,1.88867 5.1589715,5.1589715 0 0 0 1.88867,-7.04687 5.1589715,5.1589715 0 0 0 -4.58984,-2.57813 z m 30.95312,0 a 5.1589715,5.1589715 0 0 0 -2.45703,0.68945 5.1589715,5.1589715 0 0 0 -1.88867,7.04688 5.1589715,5.1589715 0 0 0 7.04883,1.88867 5.1589715,5.1589715 0 0 0 1.88672,-7.04687 5.1589715,5.1589715 0 0 0 -4.58985,-2.57813 z m 30.95313,0 a 5.1589715,5.1589715 0 0 0 -2.45704,0.68945 5.1589715,5.1589715 0 0 0 -1.88671,7.04688 5.1589715,5.1589715 0 0 0 7.04687,1.88867 5.1589715,5.1589715 0 0 0 1.88672,-7.04687 5.1589715,5.1589715 0 0 0 -4.58984,-2.57813 z m 30.95507,0 a 5.1589715,5.1589715 0 0 0 -2.45898,0.68945 5.1589715,5.1589715 0 0 0 -1.88672,7.04688 5.1589715,5.1589715 0 0 0 7.04688,1.88867 5.1589715,5.1589715 0 0 0 1.88867,-7.04687 5.1589715,5.1589715 0 0 0 -4.58985,-2.57813 z m 30.95313,0 a 5.1589715,5.1589715 0 0 0 -2.45703,0.68945 5.1589715,5.1589715 0 0 0 -1.88867,7.04688 5.1589715,5.1589715 0 0 0 7.04882,1.88867 5.1589715,5.1589715 0 0 0 1.88672,-7.04687 5.1589715,5.1589715 0 0 0 -4.58984,-2.57813 z m 30.95312,0 a 5.1589715,5.1589715 0 0 0 -2.45703,0.68945 5.1589715,5.1589715 0 0 0 -1.88672,7.04688 5.1589715,5.1589715 0 0 0 7.04688,1.88867 5.1589715,5.1589715 0 0 0 1.88672,-7.04687 5.1589715,5.1589715 0 0 0 -4.58985,-2.57813 z m 30.95508,0 a 5.1589715,5.1589715 0 0 0 -2.45898,0.68945 5.1589715,5.1589715 0 0 0 -1.88672,7.04688 5.1589715,5.1589715 0 0 0 7.04687,1.88867 5.1589715,5.1589715 0 0 0 1.88868,-7.04687 5.1589715,5.1589715 0 0 0 -4.58985,-2.57813 z m 30.95313,0 a 5.1589715,5.1589715 0 0 0 -2.45703,0.68945 5.1589715,5.1589715 0 0 0 -1.88868,7.04688 5.1589715,5.1589715 0 0 0 7.04883,1.88867 5.1589715,5.1589715 0 0 0 1.88672,-7.04687 5.1589715,5.1589715 0 0 0 -4.58984,-2.57813 z m 30.95312,0 a 5.1589715,5.1589715 0 0 0 -2.45703,0.68945 5.1589715,5.1589715 0 0 0 -1.88672,7.04688 5.1589715,5.1589715 0 0 0 7.04688,1.88867 5.1589715,5.1589715 0 0 0 1.88672,-7.04687 5.1589715,5.1589715 0 0 0 -4.58985,-2.57813 z M 40.759766,478.7168 a 5.1589715,5.1589715 0 0 0 -2.457032,0.68945 5.1589715,5.1589715 0 0 0 -1.886718,7.04883 5.1589715,5.1589715 0 0 0 7.046875,1.88867 5.1589715,5.1589715 0 0 0 1.886718,-7.04883 5.1589715,5.1589715 0 0 0 -4.589843,-2.57812 z m 30.955078,0 a 5.1589715,5.1589715 0 0 0 -2.458985,0.68945 5.1589715,5.1589715 0 0 0 -1.886718,7.04883 5.1589715,5.1589715 0 0 0 7.046875,1.88867 5.1589715,5.1589715 0 0 0 1.888672,-7.04883 5.1589715,5.1589715 0 0 0 -4.589844,-2.57812 z m 30.953126,0 a 5.1589715,5.1589715 0 0 0 -2.45703,0.68945 5.1589715,5.1589715 0 0 0 -1.888674,7.04883 5.1589715,5.1589715 0 0 0 7.046874,1.88867 5.1589715,5.1589715 0 0 0 1.88867,-7.04883 5.1589715,5.1589715 0 0 0 -4.58984,-2.57812 z m 30.95312,0 a 5.1589715,5.1589715 0 0 0 -2.45703,0.68945 5.1589715,5.1589715 0 0 0 -1.88867,7.04883 5.1589715,5.1589715 0 0 0 7.04883,1.88867 5.1589715,5.1589715 0 0 0 1.88672,-7.04883 5.1589715,5.1589715 0 0 0 -4.58985,-2.57812 z m 30.95313,0 a 5.1589715,5.1589715 0 0 0 -2.45703,0.68945 5.1589715,5.1589715 0 0 0 -1.88672,7.04883 5.1589715,5.1589715 0 0 0 7.04687,1.88867 5.1589715,5.1589715 0 0 0 1.88672,-7.04883 5.1589715,5.1589715 0 0 0 -4.58984,-2.57812 z m 30.95508,0 a 5.1589715,5.1589715 0 0 0 -2.45899,0.68945 5.1589715,5.1589715 0 0 0 -1.88672,7.04883 5.1589715,5.1589715 0 0 0 7.04688,1.88867 5.1589715,5.1589715 0 0 0 1.88867,-7.04883 5.1589715,5.1589715 0 0 0 -4.58984,-2.57812 z m 30.95312,0 a 5.1589715,5.1589715 0 0 0 -2.45703,0.68945 5.1589715,5.1589715 0 0 0 -1.88867,7.04883 5.1589715,5.1589715 0 0 0 7.04883,1.88867 5.1589715,5.1589715 0 0 0 1.88672,-7.04883 5.1589715,5.1589715 0 0 0 -4.58985,-2.57812 z m 30.95313,0 a 5.1589715,5.1589715 0 0 0 -2.45703,0.68945 5.1589715,5.1589715 0 0 0 -1.88672,7.04883 5.1589715,5.1589715 0 0 0 7.04687,1.88867 5.1589715,5.1589715 0 0 0 1.88672,-7.04883 5.1589715,5.1589715 0 0 0 -4.58984,-2.57812 z m 30.95507,0 a 5.1589715,5.1589715 0 0 0 -2.45898,0.68945 5.1589715,5.1589715 0 0 0 -1.88672,7.04883 5.1589715,5.1589715 0 0 0 7.04688,1.88867 5.1589715,5.1589715 0 0 0 1.88867,-7.04883 5.1589715,5.1589715 0 0 0 -4.58985,-2.57812 z m 30.95313,0 a 5.1589715,5.1589715 0 0 0 -2.45703,0.68945 5.1589715,5.1589715 0 0 0 -1.88867,7.04883 5.1589715,5.1589715 0 0 0 7.04883,1.88867 5.1589715,5.1589715 0 0 0 1.88671,-7.04883 5.1589715,5.1589715 0 0 0 -4.58984,-2.57812 z m 30.95313,0 a 5.1589715,5.1589715 0 0 0 -2.45704,0.68945 5.1589715,5.1589715 0 0 0 -1.88672,7.04883 5.1589715,5.1589715 0 0 0 7.04688,1.88867 5.1589715,5.1589715 0 0 0 1.88672,-7.04883 5.1589715,5.1589715 0 0 0 -4.58984,-2.57812 z m 30.95507,0 a 5.1589715,5.1589715 0 0 0 -2.45898,0.68945 5.1589715,5.1589715 0 0 0 -1.88672,7.04883 5.1589715,5.1589715 0 0 0 7.04687,1.88867 5.1589715,5.1589715 0 0 0 1.88868,-7.04883 5.1589715,5.1589715 0 0 0 -4.58985,-2.57812 z m 30.95313,0 a 5.1589715,5.1589715 0 0 0 -2.45703,0.68945 5.1589715,5.1589715 0 0 0 -1.88867,7.04883 5.1589715,5.1589715 0 0 0 7.04882,1.88867 5.1589715,5.1589715 0 0 0 1.88672,-7.04883 5.1589715,5.1589715 0 0 0 -4.58984,-2.57812 z m 30.95312,0 a 5.1589715,5.1589715 0 0 0 -2.45703,0.68945 5.1589715,5.1589715 0 0 0 -1.88672,7.04883 5.1589715,5.1589715 0 0 0 7.04688,1.88867 5.1589715,5.1589715 0 0 0 1.88672,-7.04883 5.1589715,5.1589715 0 0 0 -4.58985,-2.57812 z m 30.95313,0 a 5.1589715,5.1589715 0 0 0 -2.45703,0.68945 5.1589715,5.1589715 0 0 0 -1.88672,7.04883 5.1589715,5.1589715 0 0 0 7.04687,1.88867 5.1589715,5.1589715 0 0 0 1.88672,-7.04883 5.1589715,5.1589715 0 0 0 -4.58984,-2.57812 z m 30.95508,0 a 5.1589715,5.1589715 0 0 0 -2.45899,0.68945 5.1589715,5.1589715 0 0 0 -1.88672,7.04883 5.1589715,5.1589715 0 0 0 7.04688,1.88867 5.1589715,5.1589715 0 0 0 1.88867,-7.04883 5.1589715,5.1589715 0 0 0 -4.58984,-2.57812 z m 30.95312,0 a 5.1589715,5.1589715 0 0 0 -2.45703,0.68945 5.1589715,5.1589715 0 0 0 -1.88867,7.04883 5.1589715,5.1589715 0 0 0 7.04883,1.88867 5.1589715,5.1589715 0 0 0 1.88672,-7.04883 5.1589715,5.1589715 0 0 0 -4.58985,-2.57812 z m 30.95313,0 a 5.1589715,5.1589715 0 0 0 -2.45704,0.68945 5.1589715,5.1589715 0 0 0 -1.88671,7.04883 5.1589715,5.1589715 0 0 0 7.04687,1.88867 5.1589715,5.1589715 0 0 0 1.88672,-7.04883 5.1589715,5.1589715 0 0 0 -4.58984,-2.57812 z m 30.95507,0 a 5.1589715,5.1589715 0 0 0 -2.45898,0.68945 5.1589715,5.1589715 0 0 0 -1.88672,7.04883 5.1589715,5.1589715 0 0 0 7.04688,1.88867 5.1589715,5.1589715 0 0 0 1.88867,-7.04883 5.1589715,5.1589715 0 0 0 -4.58985,-2.57812 z m 30.95313,0 a 5.1589715,5.1589715 0 0 0 -2.45703,0.68945 5.1589715,5.1589715 0 0 0 -1.88867,7.04883 5.1589715,5.1589715 0 0 0 7.04882,1.88867 5.1589715,5.1589715 0 0 0 1.88672,-7.04883 5.1589715,5.1589715 0 0 0 -4.58984,-2.57812 z m 30.95312,0 a 5.1589715,5.1589715 0 0 0 -2.45703,0.68945 5.1589715,5.1589715 0 0 0 -1.88672,7.04883 5.1589715,5.1589715 0 0 0 7.04688,1.88867 5.1589715,5.1589715 0 0 0 1.88672,-7.04883 5.1589715,5.1589715 0 0 0 -4.58985,-2.57812 z m 30.95508,0 a 5.1589715,5.1589715 0 0 0 -2.45898,0.68945 5.1589715,5.1589715 0 0 0 -1.88672,7.04883 5.1589715,5.1589715 0 0 0 7.04687,1.88867 5.1589715,5.1589715 0 0 0 1.88868,-7.04883 5.1589715,5.1589715 0 0 0 -4.58985,-2.57812 z m 30.95313,0 a 5.1589715,5.1589715 0 0 0 -2.45703,0.68945 5.1589715,5.1589715 0 0 0 -1.88868,7.04883 5.1589715,5.1589715 0 0 0 7.04883,1.88867 5.1589715,5.1589715 0 0 0 1.88672,-7.04883 5.1589715,5.1589715 0 0 0 -4.58984,-2.57812 z m 30.95312,0 a 5.1589715,5.1589715 0 0 0 -2.45703,0.68945 5.1589715,5.1589715 0 0 0 -1.88672,7.04883 5.1589715,5.1589715 0 0 0 7.04688,1.88867 5.1589715,5.1589715 0 0 0 1.88672,-7.04883 5.1589715,5.1589715 0 0 0 -4.58985,-2.57812 z M 40.759766,509.67188 a 5.1589715,5.1589715 0 0 0 -2.457032,0.68945 5.1589715,5.1589715 0 0 0 -1.886718,7.04687 5.1589715,5.1589715 0 0 0 7.046875,1.88868 5.1589715,5.1589715 0 0 0 1.886718,-7.04688 5.1589715,5.1589715 0 0 0 -4.589843,-2.57812 z m 30.955078,0 a 5.1589715,5.1589715 0 0 0 -2.458985,0.68945 5.1589715,5.1589715 0 0 0 -1.886718,7.04687 5.1589715,5.1589715 0 0 0 7.046875,1.88868 5.1589715,5.1589715 0 0 0 1.888672,-7.04688 5.1589715,5.1589715 0 0 0 -4.589844,-2.57812 z m 30.953126,0 a 5.1589715,5.1589715 0 0 0 -2.45703,0.68945 5.1589715,5.1589715 0 0 0 -1.888674,7.04687 5.1589715,5.1589715 0 0 0 7.046874,1.88868 5.1589715,5.1589715 0 0 0 1.88867,-7.04688 5.1589715,5.1589715 0 0 0 -4.58984,-2.57812 z m 30.95312,0 a 5.1589715,5.1589715 0 0 0 -2.45703,0.68945 5.1589715,5.1589715 0 0 0 -1.88867,7.04687 5.1589715,5.1589715 0 0 0 7.04883,1.88868 5.1589715,5.1589715 0 0 0 1.88672,-7.04688 5.1589715,5.1589715 0 0 0 -4.58985,-2.57812 z m 30.95313,0 a 5.1589715,5.1589715 0 0 0 -2.45703,0.68945 5.1589715,5.1589715 0 0 0 -1.88672,7.04687 5.1589715,5.1589715 0 0 0 7.04687,1.88868 5.1589715,5.1589715 0 0 0 1.88672,-7.04688 5.1589715,5.1589715 0 0 0 -4.58984,-2.57812 z m 30.95508,0 a 5.1589715,5.1589715 0 0 0 -2.45899,0.68945 5.1589715,5.1589715 0 0 0 -1.88672,7.04687 5.1589715,5.1589715 0 0 0 7.04688,1.88868 5.1589715,5.1589715 0 0 0 1.88867,-7.04688 5.1589715,5.1589715 0 0 0 -4.58984,-2.57812 z m 30.95312,0 a 5.1589715,5.1589715 0 0 0 -2.45703,0.68945 5.1589715,5.1589715 0 0 0 -1.88867,7.04687 5.1589715,5.1589715 0 0 0 7.04883,1.88868 5.1589715,5.1589715 0 0 0 1.88672,-7.04688 5.1589715,5.1589715 0 0 0 -4.58985,-2.57812 z m 30.95313,0 a 5.1589715,5.1589715 0 0 0 -2.45703,0.68945 5.1589715,5.1589715 0 0 0 -1.88672,7.04687 5.1589715,5.1589715 0 0 0 7.04687,1.88868 5.1589715,5.1589715 0 0 0 1.88672,-7.04688 5.1589715,5.1589715 0 0 0 -4.58984,-2.57812 z m 30.95507,0 a 5.1589715,5.1589715 0 0 0 -2.45898,0.68945 5.1589715,5.1589715 0 0 0 -1.88672,7.04687 5.1589715,5.1589715 0 0 0 7.04688,1.88868 5.1589715,5.1589715 0 0 0 1.88867,-7.04688 5.1589715,5.1589715 0 0 0 -4.58985,-2.57812 z m 30.95313,0 a 5.1589715,5.1589715 0 0 0 -2.45703,0.68945 5.1589715,5.1589715 0 0 0 -1.88867,7.04687 5.1589715,5.1589715 0 0 0 7.04883,1.88868 5.1589715,5.1589715 0 0 0 1.88671,-7.04688 5.1589715,5.1589715 0 0 0 -4.58984,-2.57812 z m 30.95313,0 a 5.1589715,5.1589715 0 0 0 -2.45704,0.68945 5.1589715,5.1589715 0 0 0 -1.88672,7.04687 5.1589715,5.1589715 0 0 0 7.04688,1.88868 5.1589715,5.1589715 0 0 0 1.88672,-7.04688 5.1589715,5.1589715 0 0 0 -4.58984,-2.57812 z m 30.95507,0 a 5.1589715,5.1589715 0 0 0 -2.45898,0.68945 5.1589715,5.1589715 0 0 0 -1.88672,7.04687 5.1589715,5.1589715 0 0 0 7.04687,1.88868 5.1589715,5.1589715 0 0 0 1.88868,-7.04688 5.1589715,5.1589715 0 0 0 -4.58985,-2.57812 z m 30.95313,0 a 5.1589715,5.1589715 0 0 0 -2.45703,0.68945 5.1589715,5.1589715 0 0 0 -1.88867,7.04687 5.1589715,5.1589715 0 0 0 7.04882,1.88868 5.1589715,5.1589715 0 0 0 1.88672,-7.04688 5.1589715,5.1589715 0 0 0 -4.58984,-2.57812 z m 30.95312,0 a 5.1589715,5.1589715 0 0 0 -2.45703,0.68945 5.1589715,5.1589715 0 0 0 -1.88672,7.04687 5.1589715,5.1589715 0 0 0 7.04688,1.88868 5.1589715,5.1589715 0 0 0 1.88672,-7.04688 5.1589715,5.1589715 0 0 0 -4.58985,-2.57812 z m 30.95313,0 a 5.1589715,5.1589715 0 0 0 -2.45703,0.68945 5.1589715,5.1589715 0 0 0 -1.88672,7.04687 5.1589715,5.1589715 0 0 0 7.04687,1.88868 5.1589715,5.1589715 0 0 0 1.88672,-7.04688 5.1589715,5.1589715 0 0 0 -4.58984,-2.57812 z m 30.95508,0 a 5.1589715,5.1589715 0 0 0 -2.45899,0.68945 5.1589715,5.1589715 0 0 0 -1.88672,7.04687 5.1589715,5.1589715 0 0 0 7.04688,1.88868 5.1589715,5.1589715 0 0 0 1.88867,-7.04688 5.1589715,5.1589715 0 0 0 -4.58984,-2.57812 z m 30.95312,0 a 5.1589715,5.1589715 0 0 0 -2.45703,0.68945 5.1589715,5.1589715 0 0 0 -1.88867,7.04687 5.1589715,5.1589715 0 0 0 7.04883,1.88868 5.1589715,5.1589715 0 0 0 1.88672,-7.04688 5.1589715,5.1589715 0 0 0 -4.58985,-2.57812 z m 30.95313,0 a 5.1589715,5.1589715 0 0 0 -2.45704,0.68945 5.1589715,5.1589715 0 0 0 -1.88671,7.04687 5.1589715,5.1589715 0 0 0 7.04687,1.88868 5.1589715,5.1589715 0 0 0 1.88672,-7.04688 5.1589715,5.1589715 0 0 0 -4.58984,-2.57812 z m 30.95507,0 a 5.1589715,5.1589715 0 0 0 -2.45898,0.68945 5.1589715,5.1589715 0 0 0 -1.88672,7.04687 5.1589715,5.1589715 0 0 0 7.04688,1.88868 5.1589715,5.1589715 0 0 0 1.88867,-7.04688 5.1589715,5.1589715 0 0 0 -4.58985,-2.57812 z m 30.95313,0 a 5.1589715,5.1589715 0 0 0 -2.45703,0.68945 5.1589715,5.1589715 0 0 0 -1.88867,7.04687 5.1589715,5.1589715 0 0 0 7.04882,1.88868 5.1589715,5.1589715 0 0 0 1.88672,-7.04688 5.1589715,5.1589715 0 0 0 -4.58984,-2.57812 z m 30.95312,0 a 5.1589715,5.1589715 0 0 0 -2.45703,0.68945 5.1589715,5.1589715 0 0 0 -1.88672,7.04687 5.1589715,5.1589715 0 0 0 7.04688,1.88868 5.1589715,5.1589715 0 0 0 1.88672,-7.04688 5.1589715,5.1589715 0 0 0 -4.58985,-2.57812 z m 30.95508,0 a 5.1589715,5.1589715 0 0 0 -2.45898,0.68945 5.1589715,5.1589715 0 0 0 -1.88672,7.04687 5.1589715,5.1589715 0 0 0 7.04687,1.88868 5.1589715,5.1589715 0 0 0 1.88868,-7.04688 5.1589715,5.1589715 0 0 0 -4.58985,-2.57812 z m 30.95313,0 a 5.1589715,5.1589715 0 0 0 -2.45703,0.68945 5.1589715,5.1589715 0 0 0 -1.88868,7.04687 5.1589715,5.1589715 0 0 0 7.04883,1.88868 5.1589715,5.1589715 0 0 0 1.88672,-7.04688 5.1589715,5.1589715 0 0 0 -4.58984,-2.57812 z m 30.95312,0 a 5.1589715,5.1589715 0 0 0 -2.45703,0.68945 5.1589715,5.1589715 0 0 0 -1.88672,7.04687 5.1589715,5.1589715 0 0 0 7.04688,1.88868 5.1589715,5.1589715 0 0 0 1.88672,-7.04688 5.1589715,5.1589715 0 0 0 -4.58985,-2.57812 z M 40.759766,540.625 a 5.1589715,5.1589715 0 0 0 -2.457032,0.68945 5.1589715,5.1589715 0 0 0 -1.886718,7.04688 5.1589715,5.1589715 0 0 0 7.046875,1.88867 5.1589715,5.1589715 0 0 0 1.886718,-7.04688 5.1589715,5.1589715 0 0 0 -4.589843,-2.57812 z m 30.955078,0 a 5.1589715,5.1589715 0 0 0 -2.458985,0.68945 5.1589715,5.1589715 0 0 0 -1.886718,7.04688 5.1589715,5.1589715 0 0 0 7.046875,1.88867 5.1589715,5.1589715 0 0 0 1.888672,-7.04688 5.1589715,5.1589715 0 0 0 -4.589844,-2.57812 z m 30.953126,0 a 5.1589715,5.1589715 0 0 0 -2.45703,0.68945 5.1589715,5.1589715 0 0 0 -1.888674,7.04688 5.1589715,5.1589715 0 0 0 7.046874,1.88867 5.1589715,5.1589715 0 0 0 1.88867,-7.04688 5.1589715,5.1589715 0 0 0 -4.58984,-2.57812 z m 30.95312,0 a 5.1589715,5.1589715 0 0 0 -2.45703,0.68945 5.1589715,5.1589715 0 0 0 -1.88867,7.04688 5.1589715,5.1589715 0 0 0 7.04883,1.88867 5.1589715,5.1589715 0 0 0 1.88672,-7.04688 5.1589715,5.1589715 0 0 0 -4.58985,-2.57812 z m 30.95313,0 a 5.1589715,5.1589715 0 0 0 -2.45703,0.68945 5.1589715,5.1589715 0 0 0 -1.88672,7.04688 5.1589715,5.1589715 0 0 0 7.04687,1.88867 5.1589715,5.1589715 0 0 0 1.88672,-7.04688 5.1589715,5.1589715 0 0 0 -4.58984,-2.57812 z m 30.95508,0 a 5.1589715,5.1589715 0 0 0 -2.45899,0.68945 5.1589715,5.1589715 0 0 0 -1.88672,7.04688 5.1589715,5.1589715 0 0 0 7.04688,1.88867 5.1589715,5.1589715 0 0 0 1.88867,-7.04688 5.1589715,5.1589715 0 0 0 -4.58984,-2.57812 z m 30.95312,0 a 5.1589715,5.1589715 0 0 0 -2.45703,0.68945 5.1589715,5.1589715 0 0 0 -1.88867,7.04688 5.1589715,5.1589715 0 0 0 7.04883,1.88867 5.1589715,5.1589715 0 0 0 1.88672,-7.04688 5.1589715,5.1589715 0 0 0 -4.58985,-2.57812 z m 30.95313,0 a 5.1589715,5.1589715 0 0 0 -2.45703,0.68945 5.1589715,5.1589715 0 0 0 -1.88672,7.04688 5.1589715,5.1589715 0 0 0 7.04687,1.88867 5.1589715,5.1589715 0 0 0 1.88672,-7.04688 5.1589715,5.1589715 0 0 0 -4.58984,-2.57812 z m 30.95507,0 a 5.1589715,5.1589715 0 0 0 -2.45898,0.68945 5.1589715,5.1589715 0 0 0 -1.88672,7.04688 5.1589715,5.1589715 0 0 0 7.04688,1.88867 5.1589715,5.1589715 0 0 0 1.88867,-7.04688 5.1589715,5.1589715 0 0 0 -4.58985,-2.57812 z m 30.95313,0 a 5.1589715,5.1589715 0 0 0 -2.45703,0.68945 5.1589715,5.1589715 0 0 0 -1.88867,7.04688 5.1589715,5.1589715 0 0 0 7.04883,1.88867 5.1589715,5.1589715 0 0 0 1.88671,-7.04688 5.1589715,5.1589715 0 0 0 -4.58984,-2.57812 z m 30.95313,0 a 5.1589715,5.1589715 0 0 0 -2.45704,0.68945 5.1589715,5.1589715 0 0 0 -1.88672,7.04688 A 5.1589715,5.1589715 0 0 0 353,550.25 a 5.1589715,5.1589715 0 0 0 1.88672,-7.04688 5.1589715,5.1589715 0 0 0 -4.58984,-2.57812 z m 30.95507,0 a 5.1589715,5.1589715 0 0 0 -2.45898,0.68945 5.1589715,5.1589715 0 0 0 -1.88672,7.04688 5.1589715,5.1589715 0 0 0 7.04687,1.88867 5.1589715,5.1589715 0 0 0 1.88868,-7.04688 5.1589715,5.1589715 0 0 0 -4.58985,-2.57812 z m 30.95313,0 a 5.1589715,5.1589715 0 0 0 -2.45703,0.68945 5.1589715,5.1589715 0 0 0 -1.88867,7.04688 5.1589715,5.1589715 0 0 0 7.04882,1.88867 5.1589715,5.1589715 0 0 0 1.88672,-7.04688 5.1589715,5.1589715 0 0 0 -4.58984,-2.57812 z m 30.95312,0 a 5.1589715,5.1589715 0 0 0 -2.45703,0.68945 5.1589715,5.1589715 0 0 0 -1.88672,7.04688 5.1589715,5.1589715 0 0 0 7.04688,1.88867 5.1589715,5.1589715 0 0 0 1.88672,-7.04688 5.1589715,5.1589715 0 0 0 -4.58985,-2.57812 z m 30.95313,0 a 5.1589715,5.1589715 0 0 0 -2.45703,0.68945 5.1589715,5.1589715 0 0 0 -1.88672,7.04688 5.1589715,5.1589715 0 0 0 7.04687,1.88867 5.1589715,5.1589715 0 0 0 1.88672,-7.04688 5.1589715,5.1589715 0 0 0 -4.58984,-2.57812 z m 30.95508,0 a 5.1589715,5.1589715 0 0 0 -2.45899,0.68945 5.1589715,5.1589715 0 0 0 -1.88672,7.04688 5.1589715,5.1589715 0 0 0 7.04688,1.88867 5.1589715,5.1589715 0 0 0 1.88867,-7.04688 5.1589715,5.1589715 0 0 0 -4.58984,-2.57812 z m 30.95312,0 a 5.1589715,5.1589715 0 0 0 -2.45703,0.68945 5.1589715,5.1589715 0 0 0 -1.88867,7.04688 5.1589715,5.1589715 0 0 0 7.04883,1.88867 5.1589715,5.1589715 0 0 0 1.88672,-7.04688 5.1589715,5.1589715 0 0 0 -4.58985,-2.57812 z m 30.95313,0 a 5.1589715,5.1589715 0 0 0 -2.45704,0.68945 5.1589715,5.1589715 0 0 0 -1.88671,7.04688 5.1589715,5.1589715 0 0 0 7.04687,1.88867 5.1589715,5.1589715 0 0 0 1.88672,-7.04688 5.1589715,5.1589715 0 0 0 -4.58984,-2.57812 z m 30.95507,0 a 5.1589715,5.1589715 0 0 0 -2.45898,0.68945 5.1589715,5.1589715 0 0 0 -1.88672,7.04688 5.1589715,5.1589715 0 0 0 7.04688,1.88867 5.1589715,5.1589715 0 0 0 1.88867,-7.04688 5.1589715,5.1589715 0 0 0 -4.58985,-2.57812 z m 30.95313,0 a 5.1589715,5.1589715 0 0 0 -2.45703,0.68945 5.1589715,5.1589715 0 0 0 -1.88867,7.04688 5.1589715,5.1589715 0 0 0 7.04882,1.88867 5.1589715,5.1589715 0 0 0 1.88672,-7.04688 5.1589715,5.1589715 0 0 0 -4.58984,-2.57812 z m 30.95312,0 a 5.1589715,5.1589715 0 0 0 -2.45703,0.68945 5.1589715,5.1589715 0 0 0 -1.88672,7.04688 5.1589715,5.1589715 0 0 0 7.04688,1.88867 5.1589715,5.1589715 0 0 0 1.88672,-7.04688 5.1589715,5.1589715 0 0 0 -4.58985,-2.57812 z m 30.95508,0 a 5.1589715,5.1589715 0 0 0 -2.45898,0.68945 5.1589715,5.1589715 0 0 0 -1.88672,7.04688 5.1589715,5.1589715 0 0 0 7.04687,1.88867 5.1589715,5.1589715 0 0 0 1.88868,-7.04688 5.1589715,5.1589715 0 0 0 -4.58985,-2.57812 z m 30.95313,0 a 5.1589715,5.1589715 0 0 0 -2.45703,0.68945 5.1589715,5.1589715 0 0 0 -1.88868,7.04688 5.1589715,5.1589715 0 0 0 7.04883,1.88867 5.1589715,5.1589715 0 0 0 1.88672,-7.04688 5.1589715,5.1589715 0 0 0 -4.58984,-2.57812 z m 30.95312,0 a 5.1589715,5.1589715 0 0 0 -2.45703,0.68945 5.1589715,5.1589715 0 0 0 -1.88672,7.04688 5.1589715,5.1589715 0 0 0 7.04688,1.88867 5.1589715,5.1589715 0 0 0 1.88672,-7.04688 5.1589715,5.1589715 0 0 0 -4.58985,-2.57812 z M 40.759766,571.58008 a 5.1589715,5.1589715 0 0 0 -2.457032,0.6875 5.1589715,5.1589715 0 0 0 -1.886718,7.04883 5.1589715,5.1589715 0 0 0 7.046875,1.88867 5.1589715,5.1589715 0 0 0 1.886718,-7.04883 5.1589715,5.1589715 0 0 0 -4.589843,-2.57617 z m 30.955078,0 a 5.1589715,5.1589715 0 0 0 -2.458985,0.6875 5.1589715,5.1589715 0 0 0 -1.886718,7.04883 5.1589715,5.1589715 0 0 0 7.046875,1.88867 5.1589715,5.1589715 0 0 0 1.888672,-7.04883 5.1589715,5.1589715 0 0 0 -4.589844,-2.57617 z m 30.953126,0 a 5.1589715,5.1589715 0 0 0 -2.45703,0.6875 5.1589715,5.1589715 0 0 0 -1.888674,7.04883 5.1589715,5.1589715 0 0 0 7.046874,1.88867 5.1589715,5.1589715 0 0 0 1.88867,-7.04883 5.1589715,5.1589715 0 0 0 -4.58984,-2.57617 z m 30.95312,0 a 5.1589715,5.1589715 0 0 0 -2.45703,0.6875 5.1589715,5.1589715 0 0 0 -1.88867,7.04883 5.1589715,5.1589715 0 0 0 7.04883,1.88867 5.1589715,5.1589715 0 0 0 1.88672,-7.04883 5.1589715,5.1589715 0 0 0 -4.58985,-2.57617 z m 30.95313,0 a 5.1589715,5.1589715 0 0 0 -2.45703,0.6875 5.1589715,5.1589715 0 0 0 -1.88672,7.04883 5.1589715,5.1589715 0 0 0 7.04687,1.88867 5.1589715,5.1589715 0 0 0 1.88672,-7.04883 5.1589715,5.1589715 0 0 0 -4.58984,-2.57617 z m 30.95508,0 a 5.1589715,5.1589715 0 0 0 -2.45899,0.6875 5.1589715,5.1589715 0 0 0 -1.88672,7.04883 5.1589715,5.1589715 0 0 0 7.04688,1.88867 5.1589715,5.1589715 0 0 0 1.88867,-7.04883 5.1589715,5.1589715 0 0 0 -4.58984,-2.57617 z m 30.95312,0 a 5.1589715,5.1589715 0 0 0 -2.45703,0.6875 5.1589715,5.1589715 0 0 0 -1.88867,7.04883 5.1589715,5.1589715 0 0 0 7.04883,1.88867 5.1589715,5.1589715 0 0 0 1.88672,-7.04883 5.1589715,5.1589715 0 0 0 -4.58985,-2.57617 z m 30.95313,0 a 5.1589715,5.1589715 0 0 0 -2.45703,0.6875 5.1589715,5.1589715 0 0 0 -1.88672,7.04883 5.1589715,5.1589715 0 0 0 7.04687,1.88867 5.1589715,5.1589715 0 0 0 1.88672,-7.04883 5.1589715,5.1589715 0 0 0 -4.58984,-2.57617 z m 30.95507,0 a 5.1589715,5.1589715 0 0 0 -2.45898,0.6875 5.1589715,5.1589715 0 0 0 -1.88672,7.04883 5.1589715,5.1589715 0 0 0 7.04688,1.88867 5.1589715,5.1589715 0 0 0 1.88867,-7.04883 5.1589715,5.1589715 0 0 0 -4.58985,-2.57617 z m 30.95313,0 a 5.1589715,5.1589715 0 0 0 -2.45703,0.6875 5.1589715,5.1589715 0 0 0 -1.88867,7.04883 5.1589715,5.1589715 0 0 0 7.04883,1.88867 5.1589715,5.1589715 0 0 0 1.88671,-7.04883 5.1589715,5.1589715 0 0 0 -4.58984,-2.57617 z m 30.95313,0 a 5.1589715,5.1589715 0 0 0 -2.45704,0.6875 5.1589715,5.1589715 0 0 0 -1.88672,7.04883 5.1589715,5.1589715 0 0 0 7.04688,1.88867 5.1589715,5.1589715 0 0 0 1.88672,-7.04883 5.1589715,5.1589715 0 0 0 -4.58984,-2.57617 z m 30.95507,0 a 5.1589715,5.1589715 0 0 0 -2.45898,0.6875 5.1589715,5.1589715 0 0 0 -1.88672,7.04883 5.1589715,5.1589715 0 0 0 7.04687,1.88867 5.1589715,5.1589715 0 0 0 1.88868,-7.04883 5.1589715,5.1589715 0 0 0 -4.58985,-2.57617 z m 30.95313,0 a 5.1589715,5.1589715 0 0 0 -2.45703,0.6875 5.1589715,5.1589715 0 0 0 -1.88867,7.04883 5.1589715,5.1589715 0 0 0 7.04882,1.88867 5.1589715,5.1589715 0 0 0 1.88672,-7.04883 5.1589715,5.1589715 0 0 0 -4.58984,-2.57617 z m 30.95312,0 a 5.1589715,5.1589715 0 0 0 -2.45703,0.6875 5.1589715,5.1589715 0 0 0 -1.88672,7.04883 5.1589715,5.1589715 0 0 0 7.04688,1.88867 5.1589715,5.1589715 0 0 0 1.88672,-7.04883 5.1589715,5.1589715 0 0 0 -4.58985,-2.57617 z m 30.95313,0 a 5.1589715,5.1589715 0 0 0 -2.45703,0.6875 5.1589715,5.1589715 0 0 0 -1.88672,7.04883 5.1589715,5.1589715 0 0 0 7.04687,1.88867 5.1589715,5.1589715 0 0 0 1.88672,-7.04883 5.1589715,5.1589715 0 0 0 -4.58984,-2.57617 z m 30.95508,0 a 5.1589715,5.1589715 0 0 0 -2.45899,0.6875 5.1589715,5.1589715 0 0 0 -1.88672,7.04883 5.1589715,5.1589715 0 0 0 7.04688,1.88867 5.1589715,5.1589715 0 0 0 1.88867,-7.04883 5.1589715,5.1589715 0 0 0 -4.58984,-2.57617 z m 30.95312,0 a 5.1589715,5.1589715 0 0 0 -2.45703,0.6875 5.1589715,5.1589715 0 0 0 -1.88867,7.04883 5.1589715,5.1589715 0 0 0 7.04883,1.88867 5.1589715,5.1589715 0 0 0 1.88672,-7.04883 5.1589715,5.1589715 0 0 0 -4.58985,-2.57617 z m 30.95313,0 a 5.1589715,5.1589715 0 0 0 -2.45704,0.6875 5.1589715,5.1589715 0 0 0 -1.88671,7.04883 5.1589715,5.1589715 0 0 0 7.04687,1.88867 5.1589715,5.1589715 0 0 0 1.88672,-7.04883 5.1589715,5.1589715 0 0 0 -4.58984,-2.57617 z m 30.95507,0 a 5.1589715,5.1589715 0 0 0 -2.45898,0.6875 5.1589715,5.1589715 0 0 0 -1.88672,7.04883 5.1589715,5.1589715 0 0 0 7.04688,1.88867 5.1589715,5.1589715 0 0 0 1.88867,-7.04883 5.1589715,5.1589715 0 0 0 -4.58985,-2.57617 z m 30.95313,0 a 5.1589715,5.1589715 0 0 0 -2.45703,0.6875 5.1589715,5.1589715 0 0 0 -1.88867,7.04883 5.1589715,5.1589715 0 0 0 7.04882,1.88867 5.1589715,5.1589715 0 0 0 1.88672,-7.04883 5.1589715,5.1589715 0 0 0 -4.58984,-2.57617 z m 30.95312,0 a 5.1589715,5.1589715 0 0 0 -2.45703,0.6875 5.1589715,5.1589715 0 0 0 -1.88672,7.04883 5.1589715,5.1589715 0 0 0 7.04688,1.88867 5.1589715,5.1589715 0 0 0 1.88672,-7.04883 5.1589715,5.1589715 0 0 0 -4.58985,-2.57617 z m 30.95508,0 a 5.1589715,5.1589715 0 0 0 -2.45898,0.6875 5.1589715,5.1589715 0 0 0 -1.88672,7.04883 5.1589715,5.1589715 0 0 0 7.04687,1.88867 5.1589715,5.1589715 0 0 0 1.88868,-7.04883 5.1589715,5.1589715 0 0 0 -4.58985,-2.57617 z m 30.95313,0 a 5.1589715,5.1589715 0 0 0 -2.45703,0.6875 5.1589715,5.1589715 0 0 0 -1.88868,7.04883 5.1589715,5.1589715 0 0 0 7.04883,1.88867 5.1589715,5.1589715 0 0 0 1.88672,-7.04883 5.1589715,5.1589715 0 0 0 -4.58984,-2.57617 z m 30.95312,0 a 5.1589715,5.1589715 0 0 0 -2.45703,0.6875 5.1589715,5.1589715 0 0 0 -1.88672,7.04883 5.1589715,5.1589715 0 0 0 7.04688,1.88867 5.1589715,5.1589715 0 0 0 1.88672,-7.04883 5.1589715,5.1589715 0 0 0 -4.58985,-2.57617 z"
       transform="scale(0.26458333)"
       id="path1185"
       inkscape:connector-curvature="0" />
  </g>
</svg>
