<?xml version="1.0" encoding="UTF-8" standalone="no"?>
<svg
   xmlns:dc="http://purl.org/dc/elements/1.1/"
   xmlns:cc="http://creativecommons.org/ns#"
   xmlns:rdf="http://www.w3.org/1999/02/22-rdf-syntax-ns#"
   xmlns:svg="http://www.w3.org/2000/svg"
   xmlns="http://www.w3.org/2000/svg"
   xmlns:xlink="http://www.w3.org/1999/xlink"
   xmlns:sodipodi="http://sodipodi.sourceforge.net/DTD/sodipodi-0.dtd"
   xmlns:inkscape="http://www.inkscape.org/namespaces/inkscape"
   sodipodi:docname="dotSquare.svg"
   inkscape:version="1.0 (6e3e5246a0, 2020-05-07)"
   id="svg8"
   version="1.1"
   viewBox="0 0 212.98277 212.98277"
   height="804.97424"
   width="804.97424">
  <defs
     id="defs2">
    <linearGradient
       id="linearGradient2314"
       inkscape:collect="always">
      <stop
         id="stop2310"
         offset="0"
         style="stop-color:#ffffff;stop-opacity:1" />
      <stop
         id="stop2312"
         offset="1"
         style="stop-color:#ffffff;stop-opacity:0" />
    </linearGradient>
    <linearGradient
       gradientUnits="userSpaceOnUse"
       y2="804.97424"
       x2="804.97424"
       y1="0"
       x1="0"
       id="linearGradient2316"
       xlink:href="#linearGradient2314"
       inkscape:collect="always" />
  </defs>
  <sodipodi:namedview
     inkscape:snap-global="true"
     inkscape:window-maximized="1"
     inkscape:window-y="27"
     inkscape:window-x="0"
     inkscape:window-height="1016"
     inkscape:window-width="1920"
     inkscape:snap-smooth-nodes="true"
     inkscape:snap-intersection-paths="true"
     inkscape:object-paths="true"
     inkscape:snap-text-baseline="false"
     inkscape:snap-center="false"
     inkscape:snap-object-midpoints="false"
     inkscape:snap-page="true"
     units="px"
     showgrid="false"
     inkscape:document-rotation="0"
     inkscape:current-layer="layer1"
     inkscape:document-units="mm"
     inkscape:cy="509.2725"
     inkscape:cx="392.52345"
     inkscape:zoom="0.7"
     inkscape:pageshadow="2"
     inkscape:pageopacity="0.0"
     borderopacity="1.0"
     bordercolor="#666666"
     pagecolor="#ffffff"
     id="base" />
  <metadata
     id="metadata5">
    <rdf:RDF>
      <cc:Work
         rdf:about="">
        <dc:format>image/svg+xml</dc:format>
        <dc:type
           rdf:resource="http://purl.org/dc/dcmitype/StillImage" />
        <dc:title></dc:title>
      </cc:Work>
    </rdf:RDF>
  </metadata>
  <g
     transform="translate(27.116387,27.116389)"
     id="layer1"
     inkscape:groupmode="layer"
     inkscape:label="Layer 1">
    <path
       transform="matrix(0.26458333,0,0,0.26458333,-27.116387,-27.116389)"
       d="M 505.07422 5.9746094 A 14.025217 14.025217 0 0 0 492.82812 12.988281 A 14.025217 14.025217 0 0 0 497.96094 32.146484 A 14.025217 14.025217 0 0 0 517.12109 27.011719 A 14.025217 14.025217 0 0 0 511.98633 7.8535156 A 14.025217 14.025217 0 0 0 505.07422 5.9746094 z M 435.79297 45.974609 A 14.025217 14.025217 0 0 0 423.54688 52.988281 A 14.025217 14.025217 0 0 0 428.67969 72.146484 A 14.025217 14.025217 0 0 0 447.83789 67.011719 A 14.025217 14.025217 0 0 0 442.70508 47.853516 A 14.025217 14.025217 0 0 0 435.79297 45.974609 z M 544.75977 75.257812 A 14.025217 14.025217 0 0 0 532.82812 82.269531 A 14.025217 14.025217 0 0 0 537.96094 101.42773 A 14.025217 14.025217 0 0 0 557.12109 96.294922 A 14.025217 14.025217 0 0 0 551.98633 77.136719 A 14.025217 14.025217 0 0 0 544.75977 75.257812 z M 366.50977 85.974609 A 14.025217 14.025217 0 0 0 354.26367 92.988281 A 14.025217 14.025217 0 0 0 359.39844 112.14648 A 14.025217 14.025217 0 0 0 378.55664 107.01172 A 14.025217 14.025217 0 0 0 373.42188 87.853516 A 14.025217 14.025217 0 0 0 366.50977 85.974609 z M 475.47852 115.25781 A 14.025217 14.025217 0 0 0 463.54688 122.26953 A 14.025217 14.025217 0 0 0 468.67969 141.42773 A 14.025217 14.025217 0 0 0 487.83789 136.29492 A 14.025217 14.025217 0 0 0 482.70508 117.13672 A 14.025217 14.025217 0 0 0 475.47852 115.25781 z M 297.22852 125.97461 A 14.025217 14.025217 0 0 0 284.98242 132.98828 A 14.025217 14.025217 0 0 0 290.11523 152.14648 A 14.025217 14.025217 0 0 0 309.27344 147.01172 A 14.025217 14.025217 0 0 0 304.14062 127.85352 A 14.025217 14.025217 0 0 0 297.22852 125.97461 z M 585.07422 144.53906 A 14.025217 14.025217 0 0 0 572.82812 151.55078 A 14.025217 14.025217 0 0 0 577.96094 170.71094 A 14.025217 14.025217 0 0 0 597.12109 165.57617 A 14.025217 14.025217 0 0 0 591.98633 146.41797 A 14.025217 14.025217 0 0 0 585.07422 144.53906 z M 406.19531 155.25781 A 14.025217 14.025217 0 0 0 394.26367 162.26953 A 14.025217 14.025217 0 0 0 399.39844 181.42773 A 14.025217 14.025217 0 0 0 418.55664 176.29492 A 14.025217 14.025217 0 0 0 413.42188 157.13672 A 14.025217 14.025217 0 0 0 406.19531 155.25781 z M 227.94727 165.97461 A 14.025217 14.025217 0 0 0 215.69922 172.98828 A 14.025217 14.025217 0 0 0 220.83398 192.14648 A 14.025217 14.025217 0 0 0 239.99219 187.01172 A 14.025217 14.025217 0 0 0 234.85938 167.85352 A 14.025217 14.025217 0 0 0 227.94727 165.97461 z M 515.79297 184.53906 A 14.025217 14.025217 0 0 0 503.54688 191.55078 A 14.025217 14.025217 0 0 0 508.67969 210.71094 A 14.025217 14.025217 0 0 0 527.83789 205.57617 A 14.025217 14.025217 0 0 0 522.70508 186.41797 A 14.025217 14.025217 0 0 0 515.79297 184.53906 z M 336.91406 195.25781 A 14.025217 14.025217 0 0 0 324.98242 202.26953 A 14.025217 14.025217 0 0 0 330.11523 221.42773 A 14.025217 14.025217 0 0 0 349.27344 216.29492 A 14.025217 14.025217 0 0 0 344.14062 197.13672 A 14.025217 14.025217 0 0 0 336.91406 195.25781 z M 158.66406 205.97461 A 14.025217 14.025217 0 0 0 146.41797 212.98828 A 14.025217 14.025217 0 0 0 151.55078 232.14648 A 14.025217 14.025217 0 0 0 170.71094 227.01172 A 14.025217 14.025217 0 0 0 165.57617 207.85352 A 14.025217 14.025217 0 0 0 158.66406 205.97461 z M 625.07422 213.82031 A 14.025217 14.025217 0 0 0 612.82812 220.83398 A 14.025217 14.025217 0 0 0 617.96094 239.99219 A 14.025217 14.025217 0 0 0 637.12109 234.85938 A 14.025217 14.025217 0 0 0 631.98633 215.69922 A 14.025217 14.025217 0 0 0 625.07422 213.82031 z M 446.50977 224.53906 A 14.025217 14.025217 0 0 0 434.26367 231.55078 A 14.025217 14.025217 0 0 0 439.39844 250.71094 A 14.025217 14.025217 0 0 0 458.55664 245.57617 A 14.025217 14.025217 0 0 0 453.42188 226.41797 A 14.025217 14.025217 0 0 0 446.50977 224.53906 z M 267.63086 235.25781 A 14.025217 14.025217 0 0 0 255.69922 242.26953 A 14.025217 14.025217 0 0 0 260.83398 261.42773 A 14.025217 14.025217 0 0 0 279.99219 256.29492 A 14.025217 14.025217 0 0 0 274.85938 237.13672 A 14.025217 14.025217 0 0 0 267.63086 235.25781 z M 89.382812 245.97461 A 14.025217 14.025217 0 0 0 77.136719 252.98828 A 14.025217 14.025217 0 0 0 82.269531 272.14648 A 14.025217 14.025217 0 0 0 101.42773 267.01172 A 14.025217 14.025217 0 0 0 96.294922 247.85352 A 14.025217 14.025217 0 0 0 89.382812 245.97461 z M 555.79297 253.82031 A 14.025217 14.025217 0 0 0 543.54688 260.83398 A 14.025217 14.025217 0 0 0 548.67969 279.99219 A 14.025217 14.025217 0 0 0 567.83789 274.85938 A 14.025217 14.025217 0 0 0 562.70508 255.69922 A 14.025217 14.025217 0 0 0 555.79297 253.82031 z M 377.22852 264.53906 A 14.025217 14.025217 0 0 0 364.98242 271.55078 A 14.025217 14.025217 0 0 0 370.11523 290.71094 A 14.025217 14.025217 0 0 0 389.27344 285.57617 A 14.025217 14.025217 0 0 0 384.14062 266.41797 A 14.025217 14.025217 0 0 0 377.22852 264.53906 z M 198.34961 275.25781 A 14.025217 14.025217 0 0 0 186.41797 282.26953 A 14.025217 14.025217 0 0 0 191.55078 301.42773 A 14.025217 14.025217 0 0 0 210.71094 296.29492 A 14.025217 14.025217 0 0 0 205.57617 277.13672 A 14.025217 14.025217 0 0 0 198.34961 275.25781 z M 665.07422 283.10352 A 14.025217 14.025217 0 0 0 652.82812 290.11523 A 14.025217 14.025217 0 0 0 657.96094 309.27344 A 14.025217 14.025217 0 0 0 677.12109 304.14062 A 14.025217 14.025217 0 0 0 671.98633 284.98242 A 14.025217 14.025217 0 0 0 665.07422 283.10352 z M 20.099609 285.97461 A 14.025217 14.025217 0 0 0 7.8535156 292.98828 A 14.025217 14.025217 0 0 0 12.988281 312.14648 A 14.025217 14.025217 0 0 0 32.146484 307.01172 A 14.025217 14.025217 0 0 0 27.011719 287.85352 A 14.025217 14.025217 0 0 0 20.099609 285.97461 z M 486.50977 293.82031 A 14.025217 14.025217 0 0 0 474.26367 300.83398 A 14.025217 14.025217 0 0 0 479.39844 319.99219 A 14.025217 14.025217 0 0 0 498.55664 314.85938 A 14.025217 14.025217 0 0 0 493.42188 295.69922 A 14.025217 14.025217 0 0 0 486.50977 293.82031 z M 307.94727 304.53906 A 14.025217 14.025217 0 0 0 295.69922 311.55078 A 14.025217 14.025217 0 0 0 300.83398 330.71094 A 14.025217 14.025217 0 0 0 319.99219 325.57617 A 14.025217 14.025217 0 0 0 314.85938 306.41797 A 14.025217 14.025217 0 0 0 307.94727 304.53906 z M 129.06836 315.25781 A 14.025217 14.025217 0 0 0 117.13672 322.26953 A 14.025217 14.025217 0 0 0 122.26953 341.42773 A 14.025217 14.025217 0 0 0 141.42773 336.29492 A 14.025217 14.025217 0 0 0 136.29492 317.13672 A 14.025217 14.025217 0 0 0 129.06836 315.25781 z M 595.79297 323.10352 A 14.025217 14.025217 0 0 0 583.54688 330.11523 A 14.025217 14.025217 0 0 0 588.67969 349.27344 A 14.025217 14.025217 0 0 0 607.83789 344.14062 A 14.025217 14.025217 0 0 0 602.70508 324.98242 A 14.025217 14.025217 0 0 0 595.79297 323.10352 z M 417.22852 333.82031 A 14.025217 14.025217 0 0 0 404.98242 340.83398 A 14.025217 14.025217 0 0 0 410.11523 359.99219 A 14.025217 14.025217 0 0 0 429.27344 354.85938 A 14.025217 14.025217 0 0 0 424.14062 335.69922 A 14.025217 14.025217 0 0 0 417.22852 333.82031 z M 238.66406 344.53906 A 14.025217 14.025217 0 0 0 226.41797 351.55078 A 14.025217 14.025217 0 0 0 231.55078 370.71094 A 14.025217 14.025217 0 0 0 250.71094 365.57617 A 14.025217 14.025217 0 0 0 245.57617 346.41797 A 14.025217 14.025217 0 0 0 238.66406 344.53906 z M 705.07422 352.38477 A 14.025217 14.025217 0 0 0 692.82812 359.39844 A 14.025217 14.025217 0 0 0 697.96094 378.55664 A 14.025217 14.025217 0 0 0 717.12109 373.42188 A 14.025217 14.025217 0 0 0 711.98633 354.26367 A 14.025217 14.025217 0 0 0 705.07422 352.38477 z M 59.785156 355.25781 A 14.025217 14.025217 0 0 0 47.853516 362.26953 A 14.025217 14.025217 0 0 0 52.988281 381.42773 A 14.025217 14.025217 0 0 0 72.146484 376.29492 A 14.025217 14.025217 0 0 0 67.011719 357.13672 A 14.025217 14.025217 0 0 0 59.785156 355.25781 z M 526.50977 363.10352 A 14.025217 14.025217 0 0 0 514.26367 370.11523 A 14.025217 14.025217 0 0 0 519.39844 389.27344 A 14.025217 14.025217 0 0 0 538.55664 384.14062 A 14.025217 14.025217 0 0 0 533.42188 364.98242 A 14.025217 14.025217 0 0 0 526.50977 363.10352 z M 347.94727 373.82031 A 14.025217 14.025217 0 0 0 335.69922 380.83398 A 14.025217 14.025217 0 0 0 340.83398 399.99219 A 14.025217 14.025217 0 0 0 359.99219 394.85938 A 14.025217 14.025217 0 0 0 354.85938 375.69922 A 14.025217 14.025217 0 0 0 347.94727 373.82031 z M 169.38281 384.53906 A 14.025217 14.025217 0 0 0 157.13672 391.55078 A 14.025217 14.025217 0 0 0 162.26953 410.71094 A 14.025217 14.025217 0 0 0 181.42773 405.57617 A 14.025217 14.025217 0 0 0 176.29492 386.41797 A 14.025217 14.025217 0 0 0 169.38281 384.53906 z M 635.79297 392.38477 A 14.025217 14.025217 0 0 0 623.54688 399.39844 A 14.025217 14.025217 0 0 0 628.67969 418.55664 A 14.025217 14.025217 0 0 0 647.83789 413.42188 A 14.025217 14.025217 0 0 0 642.70508 394.26367 A 14.025217 14.025217 0 0 0 635.79297 392.38477 z M 457.22852 403.10352 A 14.025217 14.025217 0 0 0 444.98242 410.11523 A 14.025217 14.025217 0 0 0 450.11523 429.27344 A 14.025217 14.025217 0 0 0 469.27344 424.14062 A 14.025217 14.025217 0 0 0 464.14062 404.98242 A 14.025217 14.025217 0 0 0 457.22852 403.10352 z M 278.66406 413.82031 A 14.025217 14.025217 0 0 0 266.41797 420.83398 A 14.025217 14.025217 0 0 0 271.55078 439.99219 A 14.025217 14.025217 0 0 0 290.71094 434.85938 A 14.025217 14.025217 0 0 0 285.57617 415.69922 A 14.025217 14.025217 0 0 0 278.66406 413.82031 z M 744.75977 421.66797 A 14.025217 14.025217 0 0 0 732.82812 428.67969 A 14.025217 14.025217 0 0 0 737.96094 447.83789 A 14.025217 14.025217 0 0 0 757.12109 442.70508 A 14.025217 14.025217 0 0 0 751.98633 423.54688 A 14.025217 14.025217 0 0 0 744.75977 421.66797 z M 100.09961 424.53906 A 14.025217 14.025217 0 0 0 87.853516 431.55078 A 14.025217 14.025217 0 0 0 92.988281 450.71094 A 14.025217 14.025217 0 0 0 112.14648 445.57617 A 14.025217 14.025217 0 0 0 107.01172 426.41797 A 14.025217 14.025217 0 0 0 100.09961 424.53906 z M 566.50977 432.38477 A 14.025217 14.025217 0 0 0 554.26367 439.39844 A 14.025217 14.025217 0 0 0 559.39844 458.55664 A 14.025217 14.025217 0 0 0 578.55664 453.42188 A 14.025217 14.025217 0 0 0 573.42188 434.26367 A 14.025217 14.025217 0 0 0 566.50977 432.38477 z M 387.94727 443.10352 A 14.025217 14.025217 0 0 0 375.69922 450.11523 A 14.025217 14.025217 0 0 0 380.83398 469.27344 A 14.025217 14.025217 0 0 0 399.99219 464.14062 A 14.025217 14.025217 0 0 0 394.85938 444.98242 A 14.025217 14.025217 0 0 0 387.94727 443.10352 z M 209.38281 453.82031 A 14.025217 14.025217 0 0 0 197.13672 460.83398 A 14.025217 14.025217 0 0 0 202.26953 479.99219 A 14.025217 14.025217 0 0 0 221.42773 474.85938 A 14.025217 14.025217 0 0 0 216.29492 455.69922 A 14.025217 14.025217 0 0 0 209.38281 453.82031 z M 675.47852 461.66797 A 14.025217 14.025217 0 0 0 663.54688 468.67969 A 14.025217 14.025217 0 0 0 668.67969 487.83789 A 14.025217 14.025217 0 0 0 687.83789 482.70508 A 14.025217 14.025217 0 0 0 682.70508 463.54688 A 14.025217 14.025217 0 0 0 675.47852 461.66797 z M 497.22852 472.38477 A 14.025217 14.025217 0 0 0 484.98242 479.39844 A 14.025217 14.025217 0 0 0 490.11523 498.55664 A 14.025217 14.025217 0 0 0 509.27344 493.42188 A 14.025217 14.025217 0 0 0 504.14062 474.26367 A 14.025217 14.025217 0 0 0 497.22852 472.38477 z M 318.66406 483.10352 A 14.025217 14.025217 0 0 0 306.41797 490.11523 A 14.025217 14.025217 0 0 0 311.55078 509.27344 A 14.025217 14.025217 0 0 0 330.71094 504.14062 A 14.025217 14.025217 0 0 0 325.57617 484.98242 A 14.025217 14.025217 0 0 0 318.66406 483.10352 z M 785.07422 490.94922 A 14.025217 14.025217 0 0 0 772.82812 497.96094 A 14.025217 14.025217 0 0 0 777.96094 517.12109 A 14.025217 14.025217 0 0 0 797.12109 511.98633 A 14.025217 14.025217 0 0 0 791.98633 492.82812 A 14.025217 14.025217 0 0 0 785.07422 490.94922 z M 140.09961 493.82031 A 14.025217 14.025217 0 0 0 127.85352 500.83398 A 14.025217 14.025217 0 0 0 132.98828 519.99219 A 14.025217 14.025217 0 0 0 152.14648 514.85938 A 14.025217 14.025217 0 0 0 147.01172 495.69922 A 14.025217 14.025217 0 0 0 140.09961 493.82031 z M 606.19531 501.66797 A 14.025217 14.025217 0 0 0 594.26367 508.67969 A 14.025217 14.025217 0 0 0 599.39844 527.83789 A 14.025217 14.025217 0 0 0 618.55664 522.70508 A 14.025217 14.025217 0 0 0 613.42188 503.54688 A 14.025217 14.025217 0 0 0 606.19531 501.66797 z M 427.94727 512.38477 A 14.025217 14.025217 0 0 0 415.69922 519.39844 A 14.025217 14.025217 0 0 0 420.83398 538.55664 A 14.025217 14.025217 0 0 0 439.99219 533.42188 A 14.025217 14.025217 0 0 0 434.85938 514.26367 A 14.025217 14.025217 0 0 0 427.94727 512.38477 z M 249.38281 523.10352 A 14.025217 14.025217 0 0 0 237.13672 530.11523 A 14.025217 14.025217 0 0 0 242.26953 549.27344 A 14.025217 14.025217 0 0 0 261.42773 544.14062 A 14.025217 14.025217 0 0 0 256.29492 524.98242 A 14.025217 14.025217 0 0 0 249.38281 523.10352 z M 715.79297 530.94922 A 14.025217 14.025217 0 0 0 703.54688 537.96094 A 14.025217 14.025217 0 0 0 708.67969 557.12109 A 14.025217 14.025217 0 0 0 727.83789 551.98633 A 14.025217 14.025217 0 0 0 722.70508 532.82812 A 14.025217 14.025217 0 0 0 715.79297 530.94922 z M 536.91406 541.66797 A 14.025217 14.025217 0 0 0 524.98242 548.67969 A 14.025217 14.025217 0 0 0 530.11523 567.83789 A 14.025217 14.025217 0 0 0 549.27344 562.70508 A 14.025217 14.025217 0 0 0 544.14062 543.54688 A 14.025217 14.025217 0 0 0 536.91406 541.66797 z M 358.66406 552.38477 A 14.025217 14.025217 0 0 0 346.41797 559.39844 A 14.025217 14.025217 0 0 0 351.55078 578.55664 A 14.025217 14.025217 0 0 0 370.71094 573.42188 A 14.025217 14.025217 0 0 0 365.57617 554.26367 A 14.025217 14.025217 0 0 0 358.66406 552.38477 z M 180.09961 563.10352 A 14.025217 14.025217 0 0 0 167.85352 570.11523 A 14.025217 14.025217 0 0 0 172.98828 589.27344 A 14.025217 14.025217 0 0 0 192.14648 584.14062 A 14.025217 14.025217 0 0 0 187.01172 564.98242 A 14.025217 14.025217 0 0 0 180.09961 563.10352 z M 646.50977 570.94922 A 14.025217 14.025217 0 0 0 634.26367 577.96094 A 14.025217 14.025217 0 0 0 639.39844 597.12109 A 14.025217 14.025217 0 0 0 658.55664 591.98633 A 14.025217 14.025217 0 0 0 653.42188 572.82812 A 14.025217 14.025217 0 0 0 646.50977 570.94922 z M 467.63086 581.66797 A 14.025217 14.025217 0 0 0 455.69922 588.67969 A 14.025217 14.025217 0 0 0 460.83398 607.83789 A 14.025217 14.025217 0 0 0 479.99219 602.70508 A 14.025217 14.025217 0 0 0 474.85938 583.54688 A 14.025217 14.025217 0 0 0 467.63086 581.66797 z M 289.38281 592.38477 A 14.025217 14.025217 0 0 0 277.13672 599.39844 A 14.025217 14.025217 0 0 0 282.26953 618.55664 A 14.025217 14.025217 0 0 0 301.42773 613.42188 A 14.025217 14.025217 0 0 0 296.29492 594.26367 A 14.025217 14.025217 0 0 0 289.38281 592.38477 z M 577.22852 610.94922 A 14.025217 14.025217 0 0 0 564.98242 617.96094 A 14.025217 14.025217 0 0 0 570.11523 637.12109 A 14.025217 14.025217 0 0 0 589.27344 631.98633 A 14.025217 14.025217 0 0 0 584.14062 612.82812 A 14.025217 14.025217 0 0 0 577.22852 610.94922 z M 398.34961 621.66797 A 14.025217 14.025217 0 0 0 386.41797 628.67969 A 14.025217 14.025217 0 0 0 391.55078 647.83789 A 14.025217 14.025217 0 0 0 410.71094 642.70508 A 14.025217 14.025217 0 0 0 405.57617 623.54688 A 14.025217 14.025217 0 0 0 398.34961 621.66797 z M 220.09961 632.38477 A 14.025217 14.025217 0 0 0 207.85352 639.39844 A 14.025217 14.025217 0 0 0 212.98828 658.55664 A 14.025217 14.025217 0 0 0 232.14648 653.42188 A 14.025217 14.025217 0 0 0 227.01172 634.26367 A 14.025217 14.025217 0 0 0 220.09961 632.38477 z M 507.94727 650.94922 A 14.025217 14.025217 0 0 0 495.69922 657.96094 A 14.025217 14.025217 0 0 0 500.83398 677.12109 A 14.025217 14.025217 0 0 0 519.99219 671.98633 A 14.025217 14.025217 0 0 0 514.85938 652.82812 A 14.025217 14.025217 0 0 0 507.94727 650.94922 z M 329.06836 661.66797 A 14.025217 14.025217 0 0 0 317.13672 668.67969 A 14.025217 14.025217 0 0 0 322.26953 687.83789 A 14.025217 14.025217 0 0 0 341.42773 682.70508 A 14.025217 14.025217 0 0 0 336.29492 663.54688 A 14.025217 14.025217 0 0 0 329.06836 661.66797 z M 438.66406 690.94922 A 14.025217 14.025217 0 0 0 426.41797 697.96094 A 14.025217 14.025217 0 0 0 431.55078 717.12109 A 14.025217 14.025217 0 0 0 450.71094 711.98633 A 14.025217 14.025217 0 0 0 445.57617 692.82812 A 14.025217 14.025217 0 0 0 438.66406 690.94922 z M 259.78516 701.66797 A 14.025217 14.025217 0 0 0 247.85352 708.67969 A 14.025217 14.025217 0 0 0 252.98828 727.83789 A 14.025217 14.025217 0 0 0 272.14648 722.70508 A 14.025217 14.025217 0 0 0 267.01172 703.54688 A 14.025217 14.025217 0 0 0 259.78516 701.66797 z M 369.38281 730.94922 A 14.025217 14.025217 0 0 0 357.13672 737.96094 A 14.025217 14.025217 0 0 0 362.26953 757.12109 A 14.025217 14.025217 0 0 0 381.42773 751.98633 A 14.025217 14.025217 0 0 0 376.29492 732.82812 A 14.025217 14.025217 0 0 0 369.38281 730.94922 z M 300.09961 770.94922 A 14.025217 14.025217 0 0 0 287.85352 777.96094 A 14.025217 14.025217 0 0 0 292.98828 797.12109 A 14.025217 14.025217 0 0 0 312.14648 791.98633 A 14.025217 14.025217 0 0 0 307.01172 772.82812 A 14.025217 14.025217 0 0 0 300.09961 770.94922 z "
       style="fill:url(#linearGradient2316);fill-opacity:1;stroke-width:5.26624;stroke-linecap:round;stroke-linejoin:round"
       id="path833" />
  </g>
</svg>
