<?xml version="1.0" encoding="UTF-8" standalone="no"?>
<svg
   xmlns:dc="http://purl.org/dc/elements/1.1/"
   xmlns:cc="http://creativecommons.org/ns#"
   xmlns:rdf="http://www.w3.org/1999/02/22-rdf-syntax-ns#"
   xmlns:svg="http://www.w3.org/2000/svg"
   xmlns="http://www.w3.org/2000/svg"
   xmlns:sodipodi="http://sodipodi.sourceforge.net/DTD/sodipodi-0.dtd"
   xmlns:inkscape="http://www.inkscape.org/namespaces/inkscape"
   sodipodi:docname="waveSmall.svg"
   inkscape:version="1.0 (6e3e5246a0, 2020-05-07)"
   id="svg1237"
   version="1.1"
   viewBox="0 0 175.3461 290.92941"
   height="290.92941mm"
   width="175.3461mm">
  <defs
     id="defs1231" />
  <sodipodi:namedview
     inkscape:window-maximized="0"
     inkscape:window-y="27"
     inkscape:window-x="568"
     inkscape:window-height="1016"
     inkscape:window-width="1992"
     inkscape:snap-page="true"
     inkscape:object-paths="true"
     inkscape:snap-smooth-nodes="true"
     showgrid="false"
     inkscape:document-rotation="0"
     inkscape:current-layer="layer1"
     inkscape:document-units="mm"
     inkscape:cy="716.84409"
     inkscape:cx="292.38059"
     inkscape:zoom="0.49497475"
     inkscape:pageshadow="2"
     inkscape:pageopacity="0.0"
     borderopacity="1.0"
     bordercolor="#666666"
     pagecolor="#ffffff"
     id="base" />
  <metadata
     id="metadata1234">
    <rdf:RDF>
      <cc:Work
         rdf:about="">
        <dc:format>image/svg+xml</dc:format>
        <dc:type
           rdf:resource="http://purl.org/dc/dcmitype/StillImage" />
        <dc:title></dc:title>
      </cc:Work>
    </rdf:RDF>
  </metadata>
  <g
     transform="translate(-34.653997,-6.0705223)"
     id="layer1"
     inkscape:groupmode="layer"
     inkscape:label="Layer 1">
    <path
       transform="scale(0.26458333)"
       d="m 717.17969,22.953125 c -7.23982,-0.15559 -14.62218,1.613799 -21.37696,5.513672 -19.65026,11.345083 -26.33531,36.297008 -14.99023,55.947265 l 89.5957,155.185548 c 11.34509,19.65026 4.65808,44.60218 -14.99218,55.94727 -19.65027,11.34504 -44.60219,4.66002 -55.94727,-14.99024 L 608.27344,122.60352 c -11.34509,-19.65027 -35.4605,-26.820549 -54.07032,-16.07618 l -3.75585,2.16797 c -18.60982,10.74439 -24.45837,35.21498 -13.11329,54.86524 l 229.7793,397.99023 c 11.34508,19.65026 4.66003,44.60218 -14.99023,55.94727 -19.64822,11.3439 -44.59858,4.66114 -55.94532,-14.98438 l -28.91796,-50.08594 c -11.34509,-19.65026 -36.29701,-26.33727 -55.94727,-14.99218 -19.65026,11.34508 -26.33727,36.29895 -14.99219,55.94922 l 69.50196,120.38085 c 11.33897,19.6491 4.65359,44.59779 -14.99415,55.94141 -19.65022,11.34509 -44.60413,4.65807 -55.94921,-14.99219 L 533.87109,649.04492 c -11.34508,-19.65026 -36.29898,-26.33532 -55.94921,-14.99023 -19.65027,11.34508 -26.33532,36.297 -14.99024,55.94726 l 116.88867,202.45899 c 11.32489,19.6464 4.63604,44.58357 -15.00586,55.92383 -19.65026,11.34508 -44.60218,4.65807 -55.94726,-14.99219 L 479.15234,881.92773 C 467.80726,862.27747 444.28016,854.76891 426.40039,865.0918 l -6.39062,3.68945 C 402.13,879.10414 396.86781,903.2345 408.21289,922.88477 l 49.94922,86.51563 c -0.83754,-1.4503 -1.75616,-2.8218 -2.73438,-4.1289 8.06668,18.829 1.00005,41.0063 -17.19921,51.5137 -18.19899,10.5071 -40.93771,5.5385 -53.21094,-10.8614 0.64314,1.5012 1.3693,2.9846 2.20703,4.4356 L 302.22852,903.14258 C 290.88343,883.49232 265.9315,876.80531 246.28125,888.15039 226.631,899.49547 219.94398,924.44935 231.28906,944.09961 L 334.30078,1122.5195 H 793.70117 V 116.11523 L 751.75195,43.457031 C 744.30674,30.561547 731.00116,23.250161 717.17969,22.953125 Z M 173.14844,1045.9414 c -6.11903,-0.099 -12.22528,1.3676 -17.7793,4.5742 l -6.77734,3.9121 c -17.77287,10.2612 -22.9486,34.342 -11.60352,53.9922 l 8.14063,14.0996 h 94.58593 l -31.78711,-55.0566 c -7.79974,-13.5096 -21.31743,-21.3037 -34.77929,-21.5215 z"
       style="fill:#475057;stroke-width:37.7953;stroke-linecap:round;stroke-linejoin:round"
       id="rect1800" />
    <g
       transform="translate(-374.83546,31.94351)"
       id="g1892">
      <rect
         transform="rotate(-30)"
         ry="10.836536"
         rx="10.836536"
         y="258.23514"
         x="-71.899681"
         height="122.87233"
         width="21.673073"
         id="rect1860"
         style="fill:#475057;stroke-width:10;stroke-linecap:round;stroke-linejoin:round" />
      <rect
         style="fill:#475057;stroke-width:10;stroke-linecap:round;stroke-linejoin:round"
         id="rect1862"
         width="21.673073"
         height="100.04253"
         x="-50.226608"
         y="281.06494"
         rx="10.836536"
         ry="10.836536"
         transform="rotate(-30)" />
      <rect
         style="fill:#475057;stroke-width:10;stroke-linecap:round;stroke-linejoin:round"
         id="rect1864"
         width="21.673073"
         height="134.91318"
         x="-28.553535"
         y="246.19431"
         rx="10.836536"
         ry="10.836536"
         transform="rotate(-30)" />
      <rect
         transform="rotate(-30)"
         ry="10.836536"
         rx="10.836536"
         y="269.43332"
         x="-6.8804626"
         height="111.67416"
         width="21.673073"
         id="rect1866"
         style="fill:#475057;stroke-width:10;stroke-linecap:round;stroke-linejoin:round" />
      <rect
         style="fill:#475057;stroke-width:10;stroke-linecap:round;stroke-linejoin:round"
         id="rect1868"
         width="21.673073"
         height="172.59775"
         x="14.79261"
         y="208.50974"
         rx="10.836536"
         ry="10.836536"
         transform="rotate(-30)" />
      <rect
         transform="rotate(-30)"
         ry="10.836536"
         rx="10.836536"
         y="237.85936"
         x="36.465683"
         height="143.24812"
         width="21.673073"
         id="rect1870"
         style="fill:#475057;stroke-width:10;stroke-linecap:round;stroke-linejoin:round" />
      <rect
         transform="rotate(-30)"
         ry="10.836536"
         rx="10.836536"
         y="204.01744"
         x="58.138756"
         height="177.09004"
         width="21.673073"
         id="rect1872"
         style="fill:#475057;stroke-width:10;stroke-linecap:round;stroke-linejoin:round" />
      <rect
         style="fill:#475057;stroke-width:10;stroke-linecap:round;stroke-linejoin:round"
         id="rect1874"
         width="21.673065"
         height="166.99391"
         x="79.811829"
         y="214.11357"
         rx="10.125162"
         ry="10.836536"
         transform="rotate(-30)" />
      <rect
         style="fill:#475057;stroke-width:10;stroke-linecap:round;stroke-linejoin:round"
         id="rect1876"
         width="21.673073"
         height="283.38181"
         x="101.4849"
         y="97.725685"
         rx="10.262768"
         ry="10.836536"
         transform="rotate(-30)" />
      <rect
         transform="rotate(-30)"
         ry="10.836536"
         rx="10.836536"
         y="144.4633"
         x="123.15797"
         height="236.64418"
         width="21.673073"
         id="rect1878"
         style="fill:#475057;stroke-width:10;stroke-linecap:round;stroke-linejoin:round" />
      <rect
         transform="rotate(-30)"
         ry="10.836536"
         rx="10.836533"
         y="98.571686"
         x="144.83105"
         height="282.5358"
         width="21.673065"
         id="rect1880"
         style="fill:#475057;stroke-width:10;stroke-linecap:round;stroke-linejoin:round" />
      <rect
         transform="rotate(-30)"
         ry="10.836536"
         rx="10.836536"
         y="200.07877"
         x="-50.226608"
         height="100.04253"
         width="21.673073"
         id="rect1882"
         style="fill:#ffffff;stroke-width:10;stroke-linecap:round;stroke-linejoin:round" />
      <rect
         style="fill:#ffffff;stroke-width:10;stroke-linecap:round;stroke-linejoin:round"
         id="rect1884"
         width="21.673073"
         height="100.04253"
         x="-6.8804626"
         y="191.98682"
         rx="10.836536"
         ry="10.836536"
         transform="rotate(-30)" />
      <rect
         transform="rotate(-30)"
         ry="10.836536"
         rx="10.836536"
         y="162.42387"
         x="36.465683"
         height="100.04253"
         width="21.673073"
         id="rect1886"
         style="fill:#ffffff;stroke-width:10;stroke-linecap:round;stroke-linejoin:round" />
      <rect
         style="fill:#ffffff;stroke-width:10;stroke-linecap:round;stroke-linejoin:round"
         id="rect1888"
         width="21.673073"
         height="100.04253"
         x="79.811821"
         y="140.94801"
         rx="10.836536"
         ry="10.836536"
         transform="rotate(-30)" />
      <rect
         transform="rotate(-30)"
         ry="10.836536"
         rx="10.836536"
         y="67.613358"
         x="123.15797"
         height="100.04253"
         width="21.673073"
         id="rect1890"
         style="fill:#ffffff;stroke-width:10;stroke-linecap:round;stroke-linejoin:round" />
    </g>
  </g>
</svg>
