<?xml version="1.0" encoding="UTF-8" standalone="no"?>
<svg
   xmlns:dc="http://purl.org/dc/elements/1.1/"
   xmlns:cc="http://creativecommons.org/ns#"
   xmlns:rdf="http://www.w3.org/1999/02/22-rdf-syntax-ns#"
   xmlns:svg="http://www.w3.org/2000/svg"
   xmlns="http://www.w3.org/2000/svg"
   xmlns:sodipodi="http://sodipodi.sourceforge.net/DTD/sodipodi-0.dtd"
   xmlns:inkscape="http://www.inkscape.org/namespaces/inkscape"
   inkscape:version="1.0 (6e3e5246a0, 2020-05-07)"
   sodipodi:docname="wave.svg"
   id="svg8"
   version="1.1"
   viewBox="0 0 214.99083 141.98498"
   height="141.98499mm"
   width="214.99083mm">
  <defs
     id="defs2" />
  <sodipodi:namedview
     inkscape:bbox-nodes="true"
     inkscape:snap-bbox="true"
     inkscape:snap-object-midpoints="false"
     inkscape:snap-global="true"
     inkscape:snap-smooth-nodes="true"
     inkscape:window-maximized="0"
     inkscape:window-y="27"
     inkscape:window-x="568"
     inkscape:window-height="1016"
     inkscape:window-width="1992"
     inkscape:snap-intersection-paths="true"
     inkscape:object-paths="true"
     showgrid="false"
     inkscape:document-rotation="0"
     inkscape:current-layer="layer1"
     inkscape:document-units="mm"
     inkscape:cy="136.61604"
     inkscape:cx="308.5144"
     inkscape:zoom="0.7"
     inkscape:pageshadow="2"
     inkscape:pageopacity="0.0"
     borderopacity="1.0"
     bordercolor="#666666"
     pagecolor="#ffffff"
     id="base" />
  <metadata
     id="metadata5">
    <rdf:RDF>
      <cc:Work
         rdf:about="">
        <dc:format>image/svg+xml</dc:format>
        <dc:type
           rdf:resource="http://purl.org/dc/dcmitype/StillImage" />
      </cc:Work>
    </rdf:RDF>
  </metadata>
  <g
     transform="translate(53.218089,12.682658)"
     id="layer1"
     inkscape:groupmode="layer"
     inkscape:label="Layer 1">
    <path
       transform="matrix(0.26458333,0,0,0.26458333,-53.218273,-12.682802)"
       d="m 493.84766,0.00585938 c -2.37455,0.06389999 -4.76902,0.70480876 -6.97852,1.98046872 -7.07039,4.08209 -9.47662,13.0624239 -5.39453,20.1328129 l 50.10547,86.785159 c 4.08209,7.07038 1.67781,16.05072 -5.39258,20.13281 -7.07041,4.0821 -16.04877,1.6739 -20.13086,-5.39649 L 485.79883,88.550781 c -4.0821,-7.070394 -13.06246,-9.474653 -20.13281,-5.392578 -7.07041,4.082101 -9.47664,13.060464 -5.39454,20.130857 l 28.84961,49.9668 c 4.08209,7.07039 1.67588,16.04876 -5.39453,20.13086 -7.0704,4.08209 -16.04681,1.67586 -20.1289,-5.39453 l -1.20704,-2.08789 c -4.08208,-7.07039 -13.0624,-9.47663 -20.13281,-5.39453 -7.07038,4.08208 -9.47466,13.06047 -5.39258,20.13085 l 8.06836,13.97657 c -0.12113,-0.2098 -0.25913,-0.40197 -0.38867,-0.60352 3.59025,6.96497 1.14047,15.53284 -5.7207,19.49414 -6.86115,3.96129 -15.50546,1.79873 -19.74219,-4.79297 0.1098,0.21298 0.20699,0.42888 0.32813,0.63868 l -31.23828,-54.10743 c -4.08209,-7.07038 -13.06244,-9.47466 -20.13282,-5.39257 -7.07039,4.08209 -9.47662,13.05852 -5.39453,20.1289 l 14.6875,25.43946 c 4.08209,7.07038 1.67781,16.04876 -5.39258,20.13085 -7.07039,4.08209 -16.04877,1.67586 -20.13086,-5.39453 l -21.23047,-36.77343 c -4.08208,-7.07039 -13.06242,-9.47663 -20.13281,-5.39454 -7.07037,4.08209 -9.47662,13.06048 -5.39453,20.13086 l 47.72266,82.65821 c 4.08209,7.07038 1.67585,16.04681 -5.39453,20.1289 -7.07039,4.08209 -16.04682,1.67781 -20.12891,-5.39258 l -24.79883,-42.95117 c -4.08208,-7.07039 -13.06047,-9.47662 -20.13086,-5.39453 -7.07038,4.0821 -9.47662,13.06048 -5.39453,20.13086 l 14.1582,24.52344 c -0.29869,-0.51736 -0.62999,-1.00208 -0.97851,-1.46875 2.91144,6.77773 0.3748,14.76181 -6.17774,18.54492 -6.55254,3.78311 -14.73446,1.98642 -19.14843,-3.92383 0.22998,0.53512 0.48255,1.06663 0.78125,1.58399 l -21.26367,-36.83008 c -4.08209,-7.07039 -13.06048,-9.47662 -20.13086,-5.39453 -7.07039,4.08208 -9.47858,13.06047 -5.39649,20.13086 l 30.44336,52.72851 c 4.08209,7.07039 1.67781,16.04877 -5.39258,20.13086 -7.07039,4.08209 -16.04877,1.67586 -20.13086,-5.39453 l -1.81054,-3.13672 c -4.08209,-7.07038 -13.06048,-9.47467 -20.13086,-5.39258 -7.07039,4.08209 -9.47858,13.06048 -5.39649,20.13086 l 12.25782,21.22852 c 4.08209,7.07039 1.67781,16.05072 -5.39258,20.13281 -7.07041,4.0821 -16.05072,1.67391 -20.13282,-5.39648 l -20.25781,-35.08789 c -4.0821,-7.0704 -13.06245,-9.4766 -20.13281,-5.39454 -7.0704,4.0821 -9.47468,13.06047 -5.39258,20.13086 l 28.84766,49.9668 c 4.08209,7.07038 1.67783,16.04874 -5.39258,20.13086 -7.0704,4.08212 -16.04877,1.67587 -20.13086,-5.39453 l -1.20703,-2.08789 c -4.08209,-7.07039 -13.06241,-9.47662 -20.13281,-5.39453 -7.07038,4.08207 -9.47467,13.06049 -5.39258,20.13086 l 8.07031,13.97656 c -0.12113,-0.20977 -0.25913,-0.40196 -0.38867,-0.60352 3.59026,6.96499 1.14047,15.53282 -5.7207,19.49414 -6.86116,3.96129 -15.50547,1.79873 -19.742192,-4.79296 0.10987,0.21279 0.205042,0.42886 0.326172,0.63867 L 65.199219,421.10352 c -4.08209,-7.07038 -13.062443,-9.47467 -20.132813,-5.39258 -7.0704,4.08209 -9.474668,13.06046 -5.392578,20.13086 l 21.492188,37.22656 c 4.08209,7.07036 1.677801,16.04878 -5.392578,20.13086 -7.0704,4.08211 -16.04877,1.67587 -20.13086,-5.39453 l -8.128906,-14.07813 c -4.08209,-7.07036 -13.062423,-9.47665 -20.1328126,-5.39453 -7.07037994,4.08208 -9.4746681,13.06046 -5.3925782,20.13086 L 29.800781,536.63672 H 812.56445 L 765.35742,454.87109 641.69336,240.67969 620.35938,203.72852 507,7.3828125 c -2.80644,-4.8608899 -7.92835,-7.51761312 -13.15234,-7.37695312 z"
       style="fill:#475057;fill-opacity:1;stroke:none;stroke-width:37.7953;stroke-linecap:round;stroke-linejoin:round"
       id="rect833" />
    <g
       transform="translate(-163.12239,240.24232)"
       id="g960">
      <rect
         ry="3.8991084"
         y="56.853836"
         x="19.171667"
         height="69.495499"
         width="7.7982159"
         id="rect916"
         style="fill:#4d4d4d;fill-opacity:1;stroke:none;stroke-width:10;stroke-linecap:round;stroke-linejoin:round" />
      <rect
         style="fill:#4d4d4d;fill-opacity:1;stroke:none;stroke-width:10;stroke-linecap:round;stroke-linejoin:round"
         id="rect918"
         width="7.7982178"
         height="62.170345"
         x="26.969883"
         y="52.954731"
         ry="3.8991084" />
      <rect
         style="fill:#4d4d4d;fill-opacity:1;stroke:none;stroke-width:10;stroke-linecap:round;stroke-linejoin:round"
         id="rect920"
         width="7.7982178"
         height="78.303436"
         x="34.768101"
         y="41.702648"
         ry="3.8991084" />
      <rect
         ry="3.8991084"
         y="52.954731"
         x="42.566315"
         height="62.48777"
         width="7.7982178"
         id="rect922"
         style="fill:#4d4d4d;fill-opacity:1;stroke:none;stroke-width:10;stroke-linecap:round;stroke-linejoin:round" />
      <rect
         style="fill:#4d4d4d;fill-opacity:1;stroke:none;stroke-width:10;stroke-linecap:round;stroke-linejoin:round"
         id="rect924"
         width="7.7982178"
         height="69.656837"
         x="50.364532"
         y="45.4627"
         ry="3.8991084" />
      <rect
         ry="3.8991084"
         y="52.954731"
         x="58.16275"
         height="66.056076"
         width="7.7982178"
         id="rect926"
         style="fill:#4d4d4d;fill-opacity:1;stroke:none;stroke-width:10;stroke-linecap:round;stroke-linejoin:round" />
      <rect
         ry="3.8991084"
         y="33.332062"
         x="65.960968"
         height="61.80682"
         width="7.7982178"
         id="rect928"
         style="fill:#4d4d4d;fill-opacity:1;stroke:none;stroke-width:10;stroke-linecap:round;stroke-linejoin:round" />
      <rect
         style="fill:#4d4d4d;fill-opacity:1;stroke:none;stroke-width:10;stroke-linecap:round;stroke-linejoin:round"
         id="rect930"
         width="7.7982178"
         height="69.74617"
         x="73.759178"
         y="43.953831"
         ry="3.8991084" />
      <rect
         style="fill:#4d4d4d;fill-opacity:1;stroke:none;stroke-width:10;stroke-linecap:round;stroke-linejoin:round"
         id="rect932"
         width="7.7982168"
         height="66.063911"
         x="81.557396"
         y="36.794971"
         ry="3.8991084" />
      <rect
         style="fill:#4d4d4d;fill-opacity:1;stroke:none;stroke-width:10;stroke-linecap:round;stroke-linejoin:round"
         id="rect934"
         width="7.7982178"
         height="60.374077"
         x="89.355614"
         y="53.325932"
         ry="3.8991084" />
      <rect
         ry="3.8991084"
         y="49.055622"
         x="97.153824"
         height="75.715836"
         width="7.7982178"
         id="rect936"
         style="fill:#4d4d4d;fill-opacity:1;stroke:none;stroke-width:10;stroke-linecap:round;stroke-linejoin:round" />
      <rect
         ry="3.8991084"
         y="49.055622"
         x="104.95204"
         height="66.063911"
         width="7.7982168"
         id="rect938"
         style="fill:#4d4d4d;fill-opacity:1;stroke:none;stroke-width:10;stroke-linecap:round;stroke-linejoin:round" />
      <rect
         ry="3.8991084"
         y="34.428436"
         x="112.75026"
         height="66.063911"
         width="7.7982168"
         id="rect940"
         style="fill:#4d4d4d;fill-opacity:1;stroke:none;stroke-width:10;stroke-linecap:round;stroke-linejoin:round" />
      <rect
         style="fill:#4d4d4d;fill-opacity:1;stroke:none;stroke-width:10;stroke-linecap:round;stroke-linejoin:round"
         id="rect942"
         width="7.7982101"
         height="79.248779"
         x="120.54847"
         y="34.876217"
         ry="3.8991084" />
      <rect
         ry="3.8991084"
         y="-0.45362914"
         x="26.969883"
         height="66.063911"
         width="7.7982168"
         id="rect944"
         style="fill:#ffffff;fill-opacity:1;stroke:none;stroke-width:10;stroke-linecap:round;stroke-linejoin:round" />
      <rect
         style="fill:#ffffff;fill-opacity:1;stroke:none;stroke-width:10;stroke-linecap:round;stroke-linejoin:round"
         id="rect946"
         width="7.7982168"
         height="66.063911"
         x="42.566319"
         y="-6.2435513"
         ry="3.8991084" />
      <rect
         ry="3.8991084"
         y="0.31931528"
         x="58.272175"
         height="66.063911"
         width="7.7982168"
         id="rect948"
         style="fill:#ffffff;fill-opacity:1;stroke:none;stroke-width:10;stroke-linecap:round;stroke-linejoin:round" />
      <rect
         style="fill:#ffffff;fill-opacity:1;stroke:none;stroke-width:10;stroke-linecap:round;stroke-linejoin:round"
         id="rect950"
         width="7.7982168"
         height="66.063911"
         x="73.759178"
         y="-13.698635"
         ry="3.8991084" />
      <rect
         ry="3.8991084"
         y="-5.3188038"
         x="89.355614"
         height="66.063911"
         width="7.7982168"
         id="rect952"
         style="fill:#ffffff;fill-opacity:1;stroke:none;stroke-width:10;stroke-linecap:round;stroke-linejoin:round" />
      <rect
         style="fill:#ffffff;fill-opacity:1;stroke:none;stroke-width:10;stroke-linecap:round;stroke-linejoin:round"
         id="rect954"
         width="7.7982168"
         height="66.063911"
         x="104.95204"
         y="-8.5718985"
         ry="3.8991084" />
      <rect
         ry="3.8991084"
         y="18.634222"
         x="128.34668"
         height="79.074165"
         width="7.7982178"
         id="rect956"
         style="fill:#4d4d4d;fill-opacity:1;stroke:none;stroke-width:10;stroke-linecap:round;stroke-linejoin:round" />
      <rect
         ry="3.8991084"
         y="-13.116906"
         x="120.54846"
         height="66.063911"
         width="7.7982168"
         id="rect958"
         style="fill:#ffffff;fill-opacity:1;stroke:none;stroke-width:10;stroke-linecap:round;stroke-linejoin:round" />
    </g>
  </g>
</svg>
