<?xml version="1.0" standalone="no"?>
<!DOCTYPE svg PUBLIC "-//W3C//DTD SVG 20010904//EN"
 "http://www.w3.org/TR/2001/REC-SVG-20010904/DTD/svg10.dtd">
<svg version="1.0" xmlns="http://www.w3.org/2000/svg"
 width="1404.000000pt" height="1404.000000pt" viewBox="0 0 1404.000000 1404.000000"
 preserveAspectRatio="xMidYMid meet">
<metadata>
Created by potrace 1.14, written by Peter Selinger 2001-2017
</metadata>
<g transform="translate(0.000000,1404.000000) scale(0.100000,-0.100000)"
fill="#000000" stroke="none">
<path d="M4118 10865 c-2 -1 -23 -5 -48 -9 -74 -9 -101 -15 -202 -47 -138 -42
-334 -144 -396 -206 -7 -7 -16 -13 -20 -13 -24 0 -262 -259 -262 -286 0 -6 -7
-14 -15 -18 -8 -3 -15 -10 -15 -16 0 -8 -55 -106 -90 -160 -6 -8 -13 -22 -17
-30 -4 -8 -20 -37 -36 -65 -17 -27 -38 -65 -48 -82 -11 -18 -27 -48 -38 -65
-57 -101 -82 -145 -91 -158 -5 -8 -28 -49 -51 -90 -23 -41 -51 -87 -61 -102
-11 -16 -16 -28 -11 -28 4 0 3 -4 -3 -8 -6 -4 -26 -34 -45 -67 -19 -33 -39
-69 -46 -80 -6 -11 -19 -33 -27 -50 -9 -16 -25 -43 -36 -60 -11 -16 -24 -40
-29 -52 -6 -12 -21 -39 -34 -60 -13 -21 -35 -58 -49 -83 -40 -70 -237 -413
-248 -430 -12 -19 -61 -105 -86 -150 -10 -19 -21 -37 -24 -40 -3 -3 -10 -14
-16 -25 -36 -66 -65 -118 -86 -152 -14 -21 -28 -45 -32 -53 -4 -8 -12 -24 -19
-35 -7 -11 -23 -38 -35 -60 -12 -22 -33 -58 -46 -80 -14 -22 -36 -62 -51 -88
-14 -26 -52 -91 -83 -145 -32 -53 -61 -104 -65 -112 -4 -8 -13 -24 -20 -35 -7
-11 -32 -54 -55 -95 -24 -41 -47 -82 -52 -90 -29 -44 -290 -504 -290 -510 0
-3 -9 -16 -21 -29 -12 -12 -22 -28 -23 -35 -1 -7 -9 -25 -19 -39 -9 -15 -17
-31 -17 -37 0 -5 -4 -10 -10 -10 -5 0 -10 -4 -10 -9 0 -5 -21 -45 -47 -88 -25
-43 -60 -103 -76 -133 -17 -30 -33 -57 -36 -60 -3 -3 -15 -23 -27 -45 -11 -22
-53 -96 -92 -163 -40 -68 -72 -128 -72 -133 0 -5 -4 -9 -10 -9 -5 0 -10 -4
-10 -9 0 -10 -223 -399 -239 -418 -6 -7 -11 -19 -11 -27 0 -8 -4 -16 -8 -18
-8 -3 -33 -44 -95 -158 -17 -30 -33 -57 -36 -60 -3 -3 -15 -23 -26 -45 -11
-22 -22 -42 -25 -45 -11 -10 -198 -346 -222 -400 -21 -46 -37 -88 -43 -110 -1
-3 -5 -17 -9 -31 -4 -14 -8 -32 -10 -40 -5 -26 -18 -74 -23 -89 -10 -28 -13
-65 -17 -221 -3 -154 -2 -169 39 -364 4 -16 10 -39 15 -50 5 -11 17 -45 28
-75 31 -87 125 -255 179 -320 53 -65 125 -139 184 -189 89 -75 108 -91 114
-91 2 0 21 -12 42 -26 112 -76 316 -152 483 -180 52 -9 329 -10 375 -1 22 4
56 9 75 12 19 3 67 16 105 28 39 11 72 22 75 22 33 9 215 97 218 106 2 5 8 9
14 9 9 0 93 55 114 75 6 5 26 21 44 35 38 29 145 138 168 172 9 13 22 27 29
31 7 4 13 14 13 22 0 7 3 15 8 17 11 5 52 66 52 78 0 5 4 10 9 10 5 0 14 12
20 28 6 15 21 43 32 62 12 19 33 55 47 80 14 25 30 48 36 52 6 4 7 8 2 8 -5 0
-3 7 4 15 16 20 58 92 73 127 6 16 14 28 18 28 4 0 10 11 13 25 4 14 11 25 16
25 6 0 10 6 10 14 0 8 6 21 12 28 7 8 18 23 24 33 38 68 64 114 82 145 12 19
27 46 35 60 37 68 191 336 196 340 3 3 16 25 29 50 13 25 35 65 50 90 15 25
56 96 92 158 36 62 70 120 75 130 17 29 106 185 133 232 14 25 33 57 43 72 11
14 19 29 19 32 0 3 25 46 55 97 30 50 55 93 55 95 0 1 29 53 65 114 36 61 65
115 65 121 0 5 4 9 9 9 5 0 11 8 15 18 3 9 14 31 23 47 10 17 34 57 52 90 19
33 39 63 45 67 6 4 7 8 3 8 -4 0 4 17 18 37 14 21 25 43 25 50 0 7 5 13 10 13
6 0 10 7 10 15 0 8 5 15 12 15 6 0 9 3 5 6 -3 4 7 26 23 50 17 23 30 45 30 48
0 3 17 33 37 68 21 35 44 75 53 89 8 14 37 63 63 110 26 46 52 91 57 99 62
104 84 146 82 153 -1 4 3 7 8 7 6 0 10 7 10 15 0 8 3 15 8 15 4 0 16 20 27 45
11 25 22 45 25 45 3 0 16 21 30 48 13 26 39 70 57 99 18 29 33 54 33 57 0 5
43 79 79 136 8 14 16 28 16 32 0 4 6 13 13 19 6 7 12 19 12 26 0 7 5 13 10 13
6 0 10 4 10 9 0 5 32 64 72 132 39 68 76 134 82 146 6 13 14 23 19 23 4 0 7 5
7 11 0 12 117 217 138 242 8 9 12 17 9 17 -6 0 21 47 71 125 6 11 15 26 19 34
3 8 36 64 71 125 304 521 352 613 396 761 25 88 30 111 45 240 10 86 3 282
-13 354 -35 156 -90 304 -152 406 -19 32 -34 61 -34 65 0 5 -3 10 -7 12 -5 2
-24 26 -43 53 -51 74 -204 222 -292 282 -60 42 -225 134 -248 139 -3 0 -14 4
-25 8 -64 24 -167 55 -210 62 -16 2 -55 8 -85 13 -49 8 -294 13 -302 6z"/>
<path d="M9927 10863 c-3 -2 -36 -6 -73 -8 -38 -2 -78 -6 -89 -9 -11 -2 -51
-7 -88 -11 -37 -3 -78 -9 -90 -11 -26 -6 -71 -14 -112 -19 -16 -3 -50 -9 -75
-16 -61 -15 -93 -21 -107 -22 -7 0 -13 -3 -13 -7 0 -3 -8 -6 -17 -6 -29 -2
-104 -21 -208 -54 -38 -12 -74 -23 -80 -25 -5 -1 -23 -7 -38 -13 -16 -7 -31
-12 -34 -12 -33 0 -493 -204 -501 -222 -2 -5 -12 -8 -23 -8 -10 0 -19 -4 -19
-8 0 -4 -12 -13 -27 -19 -49 -21 -152 -84 -293 -178 -151 -102 -200 -138 -200
-147 0 -4 -6 -8 -12 -8 -7 0 -27 -12 -43 -28 -17 -15 -48 -42 -70 -60 -142
-120 -302 -274 -405 -392 -30 -35 -65 -75 -78 -89 -47 -52 -221 -288 -274
-371 -49 -76 -194 -319 -245 -410 -11 -19 -63 -109 -115 -200 -53 -91 -105
-181 -115 -200 -58 -101 -219 -380 -240 -412 -12 -21 -23 -40 -23 -43 0 -3
-12 -24 -27 -48 -14 -23 -40 -67 -56 -97 -16 -30 -37 -63 -46 -74 -9 -10 -16
-21 -15 -25 1 -5 -13 -31 -53 -96 -7 -11 -24 -42 -39 -70 -14 -27 -32 -57 -40
-66 -8 -8 -14 -18 -14 -22 0 -5 -50 -95 -110 -197 -118 -201 -283 -487 -308
-534 -19 -33 -39 -64 -45 -68 -7 -4 -9 -8 -5 -8 4 0 -6 -21 -22 -47 -17 -26
-30 -53 -30 -60 0 -7 -4 -13 -8 -13 -5 0 -18 -19 -31 -42 -12 -24 -26 -50 -31
-58 -40 -64 -110 -191 -110 -199 0 -6 -4 -11 -9 -11 -5 0 -11 -8 -15 -17 -3
-10 -19 -40 -36 -68 -16 -27 -38 -66 -47 -85 -9 -19 -20 -37 -23 -40 -10 -9
-36 -53 -81 -135 -23 -44 -45 -82 -49 -85 -4 -3 -13 -20 -21 -37 -8 -18 -17
-33 -21 -33 -5 0 -8 -4 -8 -10 0 -5 -18 -39 -40 -75 -22 -36 -40 -67 -40 -70
0 -3 -17 -33 -38 -67 -21 -35 -42 -70 -46 -78 -4 -8 -12 -24 -19 -35 -47 -78
-148 -260 -169 -305 -24 -51 -64 -161 -74 -202 -2 -10 -6 -27 -9 -38 -24 -95
-29 -148 -29 -285 -1 -191 14 -282 72 -445 45 -128 145 -303 222 -390 57 -64
121 -129 151 -152 17 -13 45 -35 62 -50 18 -15 38 -28 45 -28 6 0 12 -4 12 -9
0 -17 205 -119 305 -151 39 -13 77 -25 85 -28 24 -8 43 -12 76 -16 17 -1 35
-5 40 -8 15 -8 82 -12 209 -12 134 -1 200 6 295 29 36 9 70 17 75 18 9 2 21 7
90 33 11 4 22 8 25 8 17 4 166 81 168 88 2 4 10 8 18 8 8 0 14 4 14 9 0 5 8
11 18 15 19 6 47 24 73 46 9 8 30 26 45 39 31 24 142 132 160 153 15 19 107
149 121 173 16 26 71 121 95 163 37 66 56 98 85 147 16 28 32 57 36 65 4 8 16
29 26 45 11 17 28 46 39 65 26 47 43 76 164 285 57 99 107 187 111 195 4 8 26
44 48 80 22 36 45 77 52 93 6 15 15 27 19 27 4 0 8 4 8 9 0 7 40 79 196 346
13 22 29 51 36 65 7 14 18 31 25 38 7 8 11 17 8 22 -3 5 -2 10 3 12 7 3 110
176 239 403 19 33 38 67 43 75 42 67 110 191 110 199 0 6 3 11 8 11 4 0 12 10
18 23 6 12 42 76 80 142 38 67 75 133 83 148 8 15 18 27 23 27 4 0 8 9 8 20 0
11 4 20 9 20 5 0 11 8 14 18 4 9 18 37 33 62 79 134 100 170 127 220 17 30 33
57 36 60 3 3 14 21 23 40 25 50 52 94 61 98 4 2 7 8 7 13 0 13 122 222 135
231 5 4 7 8 3 8 -4 0 8 25 27 55 19 30 35 58 35 64 0 5 6 16 14 23 8 8 26 37
40 64 14 27 32 58 38 69 56 90 73 120 73 125 1 7 77 121 97 145 154 179 290
287 463 370 33 16 65 30 70 31 6 1 26 9 45 17 42 18 174 52 245 63 28 5 120 8
205 8 211 -1 359 -34 534 -119 40 -19 77 -35 83 -35 6 0 13 -4 15 -8 2 -4 35
-29 73 -54 108 -73 215 -171 288 -268 23 -30 44 -57 47 -60 30 -30 137 -240
159 -315 7 -22 14 -46 16 -53 3 -7 5 -14 5 -17 1 -3 6 -19 11 -37 5 -18 12
-44 14 -58 2 -14 7 -45 12 -70 15 -89 8 -375 -11 -432 -3 -7 -7 -26 -10 -43
-9 -64 -92 -286 -108 -293 -5 -2 -8 -8 -8 -14 0 -14 -80 -142 -92 -146 -4 -2
-8 -9 -8 -15 0 -13 -42 -62 -128 -150 -48 -49 -91 -85 -227 -185 -15 -11 -179
-95 -185 -95 -5 1 -41 -12 -70 -24 -19 -8 -21 -8 -110 -33 -41 -12 -95 -23
-120 -25 -25 -2 -45 -4 -45 -5 0 -2 -36 -4 -225 -14 -52 -3 -106 -7 -120 -11
-14 -3 -38 -8 -55 -10 -53 -10 -179 -47 -207 -61 -16 -8 -28 -12 -28 -9 0 2
-20 -6 -44 -20 -24 -13 -46 -21 -50 -18 -3 4 -6 1 -6 -5 0 -7 -4 -12 -10 -12
-14 0 -105 -56 -175 -108 -68 -51 -196 -177 -240 -237 -17 -22 -32 -42 -35
-45 -15 -15 -60 -88 -60 -97 0 -6 -4 -13 -8 -15 -8 -3 -71 -131 -90 -183 -54
-147 -79 -302 -76 -470 2 -127 4 -148 17 -210 4 -16 9 -45 12 -64 3 -19 11
-43 17 -55 6 -11 11 -23 10 -26 -10 -29 131 -326 160 -338 4 -2 8 -8 8 -13 0
-5 8 -18 18 -30 161 -199 279 -299 464 -392 46 -23 86 -42 91 -43 4 -1 10 -3
15 -4 4 -1 10 -2 15 -1 4 0 7 -3 7 -9 0 -5 8 -10 17 -10 9 0 33 -5 52 -11 20
-7 41 -13 46 -14 15 -4 21 -5 57 -16 62 -17 154 -24 333 -23 161 0 320 8 374
19 11 2 51 7 88 10 37 4 70 9 73 10 3 2 24 6 46 9 22 4 51 9 64 12 14 3 34 7
45 8 11 2 36 7 55 11 19 4 42 8 50 9 9 1 20 5 25 8 6 3 30 9 55 13 25 4 50 10
55 13 10 7 12 7 55 16 14 3 63 18 110 34 47 16 87 29 90 30 7 1 36 11 122 44
43 16 79 28 80 27 2 -2 17 4 33 14 17 9 53 26 80 37 148 63 469 238 561 307
17 13 36 23 42 23 6 0 12 4 14 8 2 5 32 28 67 53 36 24 72 51 82 59 10 8 24
20 31 25 178 141 222 180 377 336 125 125 197 205 271 299 14 18 31 38 38 45
6 8 12 16 12 20 0 3 9 16 21 28 11 12 48 63 82 112 33 50 65 92 69 93 4 2 8 8
8 13 0 5 20 40 45 79 25 39 45 72 45 75 0 3 12 24 27 48 15 23 28 44 28 47 0
3 4 11 9 18 43 68 198 406 211 462 1 3 7 19 14 35 7 17 26 73 43 125 16 52 32
102 35 110 3 8 7 20 9 25 1 6 10 37 19 70 21 75 55 222 60 255 2 14 8 50 14
80 5 30 12 71 15 90 3 19 8 46 10 60 5 26 11 79 23 210 4 41 7 181 7 310 0
245 -6 351 -29 515 -4 28 -8 64 -10 80 -2 17 -9 55 -15 85 -6 30 -13 67 -15
82 -3 22 -15 73 -51 223 -6 24 -7 29 -22 80 -6 22 -12 45 -13 50 -1 6 -9 31
-20 56 -10 26 -15 50 -12 53 4 3 2 6 -4 6 -5 0 -10 6 -10 13 0 15 -68 198 -88
237 -8 15 -11 30 -8 34 4 3 1 6 -5 6 -7 0 -11 3 -10 8 6 19 -141 310 -234 463
-24 39 -52 86 -63 104 -11 19 -28 44 -37 55 -10 11 -18 22 -18 25 0 7 -104
150 -112 153 -5 2 -8 10 -8 18 0 8 -4 14 -8 14 -5 0 -23 19 -40 43 -31 43 -40
53 -140 167 -75 85 -228 238 -321 320 -41 36 -79 70 -85 75 -75 71 -363 272
-526 367 -85 50 -307 168 -313 167 -1 0 -33 13 -70 30 -38 17 -71 31 -73 31
-2 0 -23 9 -47 19 -83 37 -311 116 -366 127 -13 3 -31 9 -40 13 -9 5 -19 9
-24 10 -24 1 -84 15 -97 21 -8 4 -34 10 -58 14 -24 3 -46 7 -50 10 -4 2 -25 7
-47 11 -22 4 -49 9 -60 10 -106 19 -213 35 -275 41 -25 2 -63 7 -85 10 -48 7
-592 14 -598 7z"/>
</g>
</svg>
