<?xml version="1.0" encoding="UTF-8" standalone="no"?>
<svg
   xmlns:dc="http://purl.org/dc/elements/1.1/"
   xmlns:cc="http://creativecommons.org/ns#"
   xmlns:rdf="http://www.w3.org/1999/02/22-rdf-syntax-ns#"
   xmlns:svg="http://www.w3.org/2000/svg"
   xmlns="http://www.w3.org/2000/svg"
   xmlns:xlink="http://www.w3.org/1999/xlink"
   xmlns:sodipodi="http://sodipodi.sourceforge.net/DTD/sodipodi-0.dtd"
   xmlns:inkscape="http://www.inkscape.org/namespaces/inkscape"
   width="793.02448"
   height="793.02527"
   viewBox="0 0 209.82106 209.82127"
   version="1.1"
   id="svg8"
   inkscape:version="1.0 (6e3e5246a0, 2020-05-07)"
   sodipodi:docname="dotSquare.svg">
  <defs
     id="defs2">
    <linearGradient
       id="linearGradient1212"
       inkscape:collect="always">
      <stop
         id="stop1208"
         offset="0"
         style="stop-color:#ffffff;stop-opacity:1" />
      <stop
         id="stop1210"
         offset="1"
         style="stop-color:#ffffff;stop-opacity:0" />
    </linearGradient>
    <linearGradient
       gradientUnits="userSpaceOnUse"
       y2="898.53503"
       x2="898.586"
       y1="105.50974"
       x1="105.56166"
       id="linearGradient1214"
       xlink:href="#linearGradient1212"
       inkscape:collect="always" />
  </defs>
  <sodipodi:namedview
     inkscape:snap-midpoints="true"
     id="base"
     pagecolor="#ffffff"
     bordercolor="#666666"
     borderopacity="1.0"
     inkscape:pageopacity="0.0"
     inkscape:pageshadow="2"
     inkscape:zoom="0.49497475"
     inkscape:cx="468.95997"
     inkscape:cy="89.248582"
     inkscape:document-units="mm"
     inkscape:current-layer="layer1"
     inkscape:document-rotation="0"
     showgrid="false"
     units="px"
     inkscape:snap-page="true"
     inkscape:snap-object-midpoints="false"
     inkscape:snap-center="false"
     inkscape:snap-text-baseline="false"
     inkscape:object-paths="true"
     inkscape:snap-intersection-paths="true"
     inkscape:snap-smooth-nodes="true"
     inkscape:window-width="1920"
     inkscape:window-height="1016"
     inkscape:window-x="0"
     inkscape:window-y="27"
     inkscape:window-maximized="1"
     inkscape:snap-global="true" />
  <metadata
     id="metadata5">
    <rdf:RDF>
      <cc:Work
         rdf:about="">
        <dc:format>image/svg+xml</dc:format>
        <dc:type
           rdf:resource="http://purl.org/dc/dcmitype/StillImage" />
        <dc:title />
      </cc:Work>
    </rdf:RDF>
  </metadata>
  <g
     inkscape:label="Layer 1"
     inkscape:groupmode="layer"
     id="layer1"
     transform="translate(25.535489,25.5357)">
    <path
       id="path833"
       style="fill:url(#linearGradient1214);fill-opacity:1;stroke-width:5.26624;stroke-linecap:round;stroke-linejoin:round"
       d="m 505.07422,5.9746094 a 14.025217,14.025217 0 0 0 -12.2461,7.0136716 14.025217,14.025217 0 0 0 5.13282,19.158203 14.025217,14.025217 0 0 0 19.16015,-5.134765 14.025217,14.025217 0 0 0 -5.13476,-19.1582034 14.025217,14.025217 0 0 0 -6.91211,-1.8789062 z M 435.79297,45.974609 a 14.025217,14.025217 0 0 0 -12.24609,7.013672 14.025217,14.025217 0 0 0 5.13281,19.158203 14.025217,14.025217 0 0 0 19.1582,-5.134765 14.025217,14.025217 0 0 0 -5.13281,-19.158203 14.025217,14.025217 0 0 0 -6.91211,-1.878907 z m 108.9668,29.283203 a 14.025217,14.025217 0 0 0 -11.93165,7.011719 14.025217,14.025217 0 0 0 5.13282,19.158199 14.025217,14.025217 0 0 0 19.16015,-5.132808 14.025217,14.025217 0 0 0 -5.13476,-19.158203 14.025217,14.025217 0 0 0 -7.22656,-1.878907 z m -178.25,10.716797 a 14.025217,14.025217 0 0 0 -12.2461,7.013672 14.025217,14.025217 0 0 0 5.13477,19.158199 14.025217,14.025217 0 0 0 19.1582,-5.13476 14.025217,14.025217 0 0 0 -5.13476,-19.158204 14.025217,14.025217 0 0 0 -6.91211,-1.878907 z m 108.96875,29.283201 a 14.025217,14.025217 0 0 0 -11.93164,7.01172 14.025217,14.025217 0 0 0 5.13281,19.1582 14.025217,14.025217 0 0 0 19.1582,-5.13281 14.025217,14.025217 0 0 0 -5.13281,-19.1582 14.025217,14.025217 0 0 0 -7.22656,-1.87891 z m -178.25,10.7168 a 14.025217,14.025217 0 0 0 -12.2461,7.01367 14.025217,14.025217 0 0 0 5.13281,19.1582 14.025217,14.025217 0 0 0 19.15821,-5.13476 14.025217,14.025217 0 0 0 -5.13282,-19.1582 14.025217,14.025217 0 0 0 -6.9121,-1.87891 z m 287.8457,18.56445 a 14.025217,14.025217 0 0 0 -12.2461,7.01172 14.025217,14.025217 0 0 0 5.13282,19.16016 14.025217,14.025217 0 0 0 19.16015,-5.13477 14.025217,14.025217 0 0 0 -5.13476,-19.1582 14.025217,14.025217 0 0 0 -6.91211,-1.87891 z m -178.87891,10.71875 a 14.025217,14.025217 0 0 0 -11.93164,7.01172 14.025217,14.025217 0 0 0 5.13477,19.1582 14.025217,14.025217 0 0 0 19.1582,-5.13281 14.025217,14.025217 0 0 0 -5.13476,-19.1582 14.025217,14.025217 0 0 0 -7.22657,-1.87891 z m -178.24804,10.7168 a 14.025217,14.025217 0 0 0 -12.24805,7.01367 14.025217,14.025217 0 0 0 5.13476,19.1582 14.025217,14.025217 0 0 0 19.15821,-5.13476 14.025217,14.025217 0 0 0 -5.13281,-19.1582 14.025217,14.025217 0 0 0 -6.91211,-1.87891 z m 287.8457,18.56445 a 14.025217,14.025217 0 0 0 -12.24609,7.01172 14.025217,14.025217 0 0 0 5.13281,19.16016 14.025217,14.025217 0 0 0 19.1582,-5.13477 14.025217,14.025217 0 0 0 -5.13281,-19.1582 14.025217,14.025217 0 0 0 -6.91211,-1.87891 z m -178.87891,10.71875 a 14.025217,14.025217 0 0 0 -11.93164,7.01172 14.025217,14.025217 0 0 0 5.13281,19.1582 14.025217,14.025217 0 0 0 19.15821,-5.13281 14.025217,14.025217 0 0 0 -5.13282,-19.1582 14.025217,14.025217 0 0 0 -7.22656,-1.87891 z m -178.25,10.7168 a 14.025217,14.025217 0 0 0 -12.24609,7.01367 14.025217,14.025217 0 0 0 5.13281,19.1582 14.025217,14.025217 0 0 0 19.16016,-5.13476 14.025217,14.025217 0 0 0 -5.13477,-19.1582 14.025217,14.025217 0 0 0 -6.91211,-1.87891 z m 466.41016,7.8457 a 14.025217,14.025217 0 0 0 -12.2461,7.01367 14.025217,14.025217 0 0 0 5.13282,19.15821 14.025217,14.025217 0 0 0 19.16015,-5.13281 14.025217,14.025217 0 0 0 -5.13476,-19.16016 14.025217,14.025217 0 0 0 -6.91211,-1.87891 z m -178.56445,10.71875 a 14.025217,14.025217 0 0 0 -12.2461,7.01172 14.025217,14.025217 0 0 0 5.13477,19.16016 14.025217,14.025217 0 0 0 19.1582,-5.13477 14.025217,14.025217 0 0 0 -5.13476,-19.1582 14.025217,14.025217 0 0 0 -6.91211,-1.87891 z m -178.87891,10.71875 a 14.025217,14.025217 0 0 0 -11.93164,7.01172 14.025217,14.025217 0 0 0 5.13476,19.1582 14.025217,14.025217 0 0 0 19.15821,-5.13281 14.025217,14.025217 0 0 0 -5.13281,-19.1582 14.025217,14.025217 0 0 0 -7.22852,-1.87891 z m -178.248048,10.7168 a 14.025217,14.025217 0 0 0 -12.246093,7.01367 14.025217,14.025217 0 0 0 5.132812,19.1582 14.025217,14.025217 0 0 0 19.158199,-5.13476 14.025217,14.025217 0 0 0 -5.132808,-19.1582 14.025217,14.025217 0 0 0 -6.91211,-1.87891 z m 466.410158,7.8457 a 14.025217,14.025217 0 0 0 -12.24609,7.01367 14.025217,14.025217 0 0 0 5.13281,19.15821 14.025217,14.025217 0 0 0 19.1582,-5.13281 14.025217,14.025217 0 0 0 -5.13281,-19.16016 14.025217,14.025217 0 0 0 -6.91211,-1.87891 z m -178.56445,10.71875 a 14.025217,14.025217 0 0 0 -12.2461,7.01172 14.025217,14.025217 0 0 0 5.13281,19.16016 14.025217,14.025217 0 0 0 19.15821,-5.13477 14.025217,14.025217 0 0 0 -5.13282,-19.1582 14.025217,14.025217 0 0 0 -6.9121,-1.87891 z m -178.87891,10.71875 a 14.025217,14.025217 0 0 0 -11.93164,7.01172 14.025217,14.025217 0 0 0 5.13281,19.1582 14.025217,14.025217 0 0 0 19.16016,-5.13281 14.025217,14.025217 0 0 0 -5.13477,-19.1582 14.025217,14.025217 0 0 0 -7.22656,-1.87891 z m 466.72461,7.84571 a 14.025217,14.025217 0 0 0 -12.2461,7.01171 14.025217,14.025217 0 0 0 5.13282,19.15821 14.025217,14.025217 0 0 0 19.16015,-5.13282 14.025217,14.025217 0 0 0 -5.13476,-19.1582 14.025217,14.025217 0 0 0 -6.91211,-1.8789 z m -644.974611,2.87109 a 14.025217,14.025217 0 0 0 -12.2460934,7.01367 14.025217,14.025217 0 0 0 5.1347654,19.1582 14.025217,14.025217 0 0 0 19.158203,-5.13476 14.025217,14.025217 0 0 0 -5.134765,-19.1582 14.025217,14.025217 0 0 0 -6.91211,-1.87891 z m 466.410161,7.8457 a 14.025217,14.025217 0 0 0 -12.2461,7.01367 14.025217,14.025217 0 0 0 5.13477,19.15821 14.025217,14.025217 0 0 0 19.1582,-5.13281 14.025217,14.025217 0 0 0 -5.13476,-19.16016 14.025217,14.025217 0 0 0 -6.91211,-1.87891 z m -178.5625,10.71875 a 14.025217,14.025217 0 0 0 -12.24805,7.01172 14.025217,14.025217 0 0 0 5.13476,19.16016 14.025217,14.025217 0 0 0 19.15821,-5.13477 14.025217,14.025217 0 0 0 -5.13281,-19.1582 14.025217,14.025217 0 0 0 -6.91211,-1.87891 z m -178.87891,10.71875 a 14.025217,14.025217 0 0 0 -11.93164,7.01172 14.025217,14.025217 0 0 0 5.13281,19.1582 14.025217,14.025217 0 0 0 19.1582,-5.13281 14.025217,14.025217 0 0 0 -5.13281,-19.1582 14.025217,14.025217 0 0 0 -7.22656,-1.87891 z m 466.72461,7.84571 a 14.025217,14.025217 0 0 0 -12.24609,7.01171 14.025217,14.025217 0 0 0 5.13281,19.15821 14.025217,14.025217 0 0 0 19.1582,-5.13282 14.025217,14.025217 0 0 0 -5.13281,-19.1582 14.025217,14.025217 0 0 0 -6.91211,-1.8789 z m -178.56445,10.71679 a 14.025217,14.025217 0 0 0 -12.2461,7.01367 14.025217,14.025217 0 0 0 5.13281,19.15821 14.025217,14.025217 0 0 0 19.15821,-5.13281 14.025217,14.025217 0 0 0 -5.13282,-19.16016 14.025217,14.025217 0 0 0 -6.9121,-1.87891 z m -178.56446,10.71875 a 14.025217,14.025217 0 0 0 -12.24609,7.01172 14.025217,14.025217 0 0 0 5.13281,19.16016 14.025217,14.025217 0 0 0 19.16016,-5.13477 14.025217,14.025217 0 0 0 -5.13477,-19.1582 14.025217,14.025217 0 0 0 -6.91211,-1.87891 z m 466.41016,7.84571 a 14.025217,14.025217 0 0 0 -12.2461,7.01367 14.025217,14.025217 0 0 0 5.13282,19.1582 14.025217,14.025217 0 0 0 19.16015,-5.13476 14.025217,14.025217 0 0 0 -5.13476,-19.15821 14.025217,14.025217 0 0 0 -6.91211,-1.8789 z m -645.289064,2.87304 a 14.025217,14.025217 0 0 0 -11.93164,7.01172 14.025217,14.025217 0 0 0 5.134765,19.1582 14.025217,14.025217 0 0 0 19.158203,-5.13281 14.025217,14.025217 0 0 0 -5.134765,-19.1582 14.025217,14.025217 0 0 0 -7.226563,-1.87891 z m 466.724614,7.84571 a 14.025217,14.025217 0 0 0 -12.2461,7.01171 14.025217,14.025217 0 0 0 5.13477,19.15821 14.025217,14.025217 0 0 0 19.1582,-5.13282 14.025217,14.025217 0 0 0 -5.13476,-19.1582 14.025217,14.025217 0 0 0 -6.91211,-1.8789 z m -178.5625,10.71679 a 14.025217,14.025217 0 0 0 -12.24805,7.01367 14.025217,14.025217 0 0 0 5.13476,19.15821 14.025217,14.025217 0 0 0 19.15821,-5.13281 14.025217,14.025217 0 0 0 -5.13281,-19.16016 14.025217,14.025217 0 0 0 -6.91211,-1.87891 z m -178.56446,10.71875 a 14.025217,14.025217 0 0 0 -12.24609,7.01172 14.025217,14.025217 0 0 0 5.13281,19.16016 14.025217,14.025217 0 0 0 19.1582,-5.13477 14.025217,14.025217 0 0 0 -5.13281,-19.1582 14.025217,14.025217 0 0 0 -6.91211,-1.87891 z m 466.41016,7.84571 a 14.025217,14.025217 0 0 0 -12.24609,7.01367 14.025217,14.025217 0 0 0 5.13281,19.1582 14.025217,14.025217 0 0 0 19.1582,-5.13476 14.025217,14.025217 0 0 0 -5.13281,-19.15821 14.025217,14.025217 0 0 0 -6.91211,-1.8789 z m -178.56445,10.71875 a 14.025217,14.025217 0 0 0 -12.2461,7.01171 14.025217,14.025217 0 0 0 5.13281,19.15821 14.025217,14.025217 0 0 0 19.15821,-5.13282 14.025217,14.025217 0 0 0 -5.13282,-19.1582 14.025217,14.025217 0 0 0 -6.9121,-1.8789 z m -178.56446,10.71679 a 14.025217,14.025217 0 0 0 -12.24609,7.01367 14.025217,14.025217 0 0 0 5.13281,19.15821 14.025217,14.025217 0 0 0 19.16016,-5.13281 14.025217,14.025217 0 0 0 -5.13477,-19.16016 14.025217,14.025217 0 0 0 -6.91211,-1.87891 z m 466.09571,7.84766 a 14.025217,14.025217 0 0 0 -11.93165,7.01172 14.025217,14.025217 0 0 0 5.13282,19.1582 14.025217,14.025217 0 0 0 19.16015,-5.13281 14.025217,14.025217 0 0 0 -5.13476,-19.1582 14.025217,14.025217 0 0 0 -7.22656,-1.87891 z m -644.66016,2.87109 a 14.025217,14.025217 0 0 0 -12.246094,7.01172 14.025217,14.025217 0 0 0 5.134765,19.16016 14.025217,14.025217 0 0 0 19.158199,-5.13477 14.025217,14.025217 0 0 0 -5.13476,-19.1582 14.025217,14.025217 0 0 0 -6.91211,-1.87891 z m 466.41016,7.84571 a 14.025217,14.025217 0 0 0 -12.2461,7.01367 14.025217,14.025217 0 0 0 5.13477,19.1582 14.025217,14.025217 0 0 0 19.1582,-5.13476 14.025217,14.025217 0 0 0 -5.13476,-19.15821 14.025217,14.025217 0 0 0 -6.91211,-1.8789 z m -178.5625,10.71875 a 14.025217,14.025217 0 0 0 -12.24805,7.01171 14.025217,14.025217 0 0 0 5.13476,19.15821 14.025217,14.025217 0 0 0 19.15821,-5.13282 14.025217,14.025217 0 0 0 -5.13281,-19.1582 14.025217,14.025217 0 0 0 -6.91211,-1.8789 z m -178.56446,10.71679 a 14.025217,14.025217 0 0 0 -12.24609,7.01367 14.025217,14.025217 0 0 0 5.13281,19.15821 14.025217,14.025217 0 0 0 19.1582,-5.13281 14.025217,14.025217 0 0 0 -5.13281,-19.16016 14.025217,14.025217 0 0 0 -6.91211,-1.87891 z m 466.09571,7.84766 a 14.025217,14.025217 0 0 0 -11.93164,7.01172 14.025217,14.025217 0 0 0 5.13281,19.1582 14.025217,14.025217 0 0 0 19.1582,-5.13281 14.025217,14.025217 0 0 0 -5.13281,-19.1582 14.025217,14.025217 0 0 0 -7.22656,-1.87891 z m -178.25,10.7168 a 14.025217,14.025217 0 0 0 -12.2461,7.01367 14.025217,14.025217 0 0 0 5.13281,19.1582 14.025217,14.025217 0 0 0 19.15821,-5.13476 14.025217,14.025217 0 0 0 -5.13282,-19.15821 14.025217,14.025217 0 0 0 -6.9121,-1.8789 z m -178.56446,10.71875 a 14.025217,14.025217 0 0 0 -12.24609,7.01171 14.025217,14.025217 0 0 0 5.13281,19.15821 14.025217,14.025217 0 0 0 19.16016,-5.13282 14.025217,14.025217 0 0 0 -5.13477,-19.1582 14.025217,14.025217 0 0 0 -6.91211,-1.8789 z m 466.41016,7.8457 a 14.025217,14.025217 0 0 0 -12.2461,7.01172 14.025217,14.025217 0 0 0 5.13282,19.16015 14.025217,14.025217 0 0 0 19.16015,-5.13476 14.025217,14.025217 0 0 0 -5.13476,-19.15821 14.025217,14.025217 0 0 0 -6.91211,-1.8789 z m -644.97461,2.87109 a 14.025217,14.025217 0 0 0 -12.24609,7.01367 14.025217,14.025217 0 0 0 5.13476,19.15821 14.025217,14.025217 0 0 0 19.1582,-5.13281 14.025217,14.025217 0 0 0 -5.13476,-19.16016 14.025217,14.025217 0 0 0 -6.91211,-1.87891 z m 466.0957,7.84766 a 14.025217,14.025217 0 0 0 -11.93164,7.01172 14.025217,14.025217 0 0 0 5.13477,19.1582 14.025217,14.025217 0 0 0 19.1582,-5.13281 14.025217,14.025217 0 0 0 -5.13476,-19.1582 14.025217,14.025217 0 0 0 -7.22657,-1.87891 z m -178.24804,10.7168 a 14.025217,14.025217 0 0 0 -12.24805,7.01367 14.025217,14.025217 0 0 0 5.13476,19.1582 14.025217,14.025217 0 0 0 19.15821,-5.13476 14.025217,14.025217 0 0 0 -5.13281,-19.15821 14.025217,14.025217 0 0 0 -6.91211,-1.8789 z m -178.56446,10.71875 a 14.025217,14.025217 0 0 0 -12.24609,7.01171 14.025217,14.025217 0 0 0 5.13281,19.15821 14.025217,14.025217 0 0 0 19.1582,-5.13282 14.025217,14.025217 0 0 0 -5.13281,-19.1582 14.025217,14.025217 0 0 0 -6.91211,-1.8789 z m 466.41016,7.8457 a 14.025217,14.025217 0 0 0 -12.24609,7.01172 14.025217,14.025217 0 0 0 5.13281,19.16015 14.025217,14.025217 0 0 0 19.1582,-5.13476 14.025217,14.025217 0 0 0 -5.13281,-19.15821 14.025217,14.025217 0 0 0 -6.91211,-1.8789 z m -178.87891,10.71875 a 14.025217,14.025217 0 0 0 -11.93164,7.01172 14.025217,14.025217 0 0 0 5.13281,19.1582 14.025217,14.025217 0 0 0 19.15821,-5.13281 14.025217,14.025217 0 0 0 -5.13282,-19.1582 14.025217,14.025217 0 0 0 -7.22656,-1.87891 z m -178.25,10.7168 a 14.025217,14.025217 0 0 0 -12.24609,7.01367 14.025217,14.025217 0 0 0 5.13281,19.1582 14.025217,14.025217 0 0 0 19.16016,-5.13476 14.025217,14.025217 0 0 0 -5.13477,-19.15821 14.025217,14.025217 0 0 0 -6.91211,-1.8789 z m -178.56445,10.71875 a 14.025217,14.025217 0 0 0 -12.24609,7.01171 14.025217,14.025217 0 0 0 5.13476,19.15821 14.025217,14.025217 0 0 0 19.1582,-5.13282 14.025217,14.025217 0 0 0 -5.13476,-19.1582 14.025217,14.025217 0 0 0 -6.91211,-1.8789 z m 466.41016,7.8457 a 14.025217,14.025217 0 0 0 -12.2461,7.01172 14.025217,14.025217 0 0 0 5.13477,19.16015 14.025217,14.025217 0 0 0 19.1582,-5.13476 14.025217,14.025217 0 0 0 -5.13476,-19.15821 14.025217,14.025217 0 0 0 -6.91211,-1.8789 z m -178.87891,10.71875 a 14.025217,14.025217 0 0 0 -11.93164,7.01172 14.025217,14.025217 0 0 0 5.13476,19.1582 14.025217,14.025217 0 0 0 19.15821,-5.13281 14.025217,14.025217 0 0 0 -5.13281,-19.1582 14.025217,14.025217 0 0 0 -7.22852,-1.87891 z m -178.24805,10.7168 a 14.025217,14.025217 0 0 0 -12.24609,7.01367 14.025217,14.025217 0 0 0 5.13281,19.1582 14.025217,14.025217 0 0 0 19.1582,-5.13476 14.025217,14.025217 0 0 0 -5.13281,-19.15821 14.025217,14.025217 0 0 0 -6.91211,-1.8789 z m 287.84571,18.56445 a 14.025217,14.025217 0 0 0 -12.2461,7.01172 14.025217,14.025217 0 0 0 5.13281,19.16015 14.025217,14.025217 0 0 0 19.15821,-5.13476 14.025217,14.025217 0 0 0 -5.13282,-19.15821 14.025217,14.025217 0 0 0 -6.9121,-1.8789 z m -178.87891,10.71875 a 14.025217,14.025217 0 0 0 -11.93164,7.01172 14.025217,14.025217 0 0 0 5.13281,19.1582 14.025217,14.025217 0 0 0 19.16016,-5.13281 14.025217,14.025217 0 0 0 -5.13477,-19.1582 14.025217,14.025217 0 0 0 -7.22656,-1.87891 z m -178.25,10.7168 a 14.025217,14.025217 0 0 0 -12.24609,7.01367 14.025217,14.025217 0 0 0 5.13476,19.1582 14.025217,14.025217 0 0 0 19.1582,-5.13476 14.025217,14.025217 0 0 0 -5.13476,-19.15821 14.025217,14.025217 0 0 0 -6.91211,-1.8789 z m 287.84766,18.56445 a 14.025217,14.025217 0 0 0 -12.24805,7.01172 14.025217,14.025217 0 0 0 5.13476,19.16015 14.025217,14.025217 0 0 0 19.15821,-5.13476 14.025217,14.025217 0 0 0 -5.13281,-19.15821 14.025217,14.025217 0 0 0 -6.91211,-1.8789 z m -178.87891,10.71875 a 14.025217,14.025217 0 0 0 -11.93164,7.01172 14.025217,14.025217 0 0 0 5.13281,19.1582 14.025217,14.025217 0 0 0 19.1582,-5.13281 14.025217,14.025217 0 0 0 -5.13281,-19.1582 14.025217,14.025217 0 0 0 -7.22656,-1.87891 z m 109.5957,29.28125 a 14.025217,14.025217 0 0 0 -12.24609,7.01172 14.025217,14.025217 0 0 0 5.13281,19.16015 14.025217,14.025217 0 0 0 19.16016,-5.13476 14.025217,14.025217 0 0 0 -5.13477,-19.15821 14.025217,14.025217 0 0 0 -6.91211,-1.8789 z m -178.8789,10.71875 a 14.025217,14.025217 0 0 0 -11.93164,7.01172 14.025217,14.025217 0 0 0 5.13476,19.1582 14.025217,14.025217 0 0 0 19.1582,-5.13281 14.025217,14.025217 0 0 0 -5.13476,-19.1582 14.025217,14.025217 0 0 0 -7.22656,-1.87891 z m 109.59765,29.28125 a 14.025217,14.025217 0 0 0 -12.24609,7.01172 14.025217,14.025217 0 0 0 5.13281,19.16015 14.025217,14.025217 0 0 0 19.1582,-5.13476 14.025217,14.025217 0 0 0 -5.13281,-19.15821 14.025217,14.025217 0 0 0 -6.91211,-1.8789 z m -69.2832,40 a 14.025217,14.025217 0 0 0 -12.24609,7.01172 14.025217,14.025217 0 0 0 5.13476,19.16015 14.025217,14.025217 0 0 0 19.1582,-5.13476 14.025217,14.025217 0 0 0 -5.13476,-19.15821 14.025217,14.025217 0 0 0 -6.91211,-1.8789 z"
       transform="matrix(0.26458333,0,0,0.26458333,-27.116387,-27.116389)" />
  </g>
</svg>
